<svg width="116" height="116" viewBox="0 0 116 116" fill="none" xmlns="http://www.w3.org/2000/svg">
<path d="M106.811 57.5884C106.811 84.845 84.7399 106.927 57.5307 106.927C30.3215 106.927 8.25 84.845 8.25 57.5884C8.25 30.3317 30.3215 8.25 57.5307 8.25C84.7399 8.25 106.811 30.3317 106.811 57.5884Z" stroke="#D7EEFF" stroke-width="16.5"/>
<mask id="path-2-inside-1_567_21" fill="white">
<path d="M104.362 41.8347C108.716 40.4187 113.457 42.8029 114.231 47.3192C115.804 56.485 115.142 65.9394 112.246 74.8623C108.491 86.4286 101.175 96.5082 91.3463 103.657C81.5174 110.805 69.6799 114.655 57.5307 114.655C45.3814 114.655 33.544 110.805 23.715 103.656C13.886 96.5082 6.57008 86.4285 2.81575 74.8623C-0.938586 63.296 -0.938582 50.8369 2.81576 39.2707C6.5701 27.7045 13.886 17.6248 23.715 10.4765C31.2977 4.96183 40.0758 1.41013 49.2702 0.0747806C53.8006 -0.583191 57.5307 3.19292 57.5307 7.77535C57.5307 12.3578 53.7825 15.9882 49.2981 16.9094C43.6118 18.0775 38.2064 20.4492 33.4592 23.9017C26.4625 28.9902 21.2547 36.1653 18.5822 44.3987C15.9097 52.632 15.9097 61.501 18.5822 69.7343C21.2547 77.9677 26.4625 85.1428 33.4592 90.2313C40.4559 95.3198 48.8823 98.0605 57.5307 98.0605C66.1791 98.0605 74.6055 95.3198 81.6022 90.2313C88.5989 85.1428 93.8067 77.9677 96.4792 69.7343C98.2924 64.1481 98.8754 58.2692 98.2281 52.4948C97.7176 47.941 100.009 43.2508 104.362 41.8347Z"/>
</mask>
<path d="M112.246 74.8623L93.2227 68.6876L93.2227 68.6876L112.246 74.8623ZM23.715 10.4765L35.4784 26.6513L35.4784 26.6513L23.715 10.4765ZM33.4592 23.9017L21.6958 7.72697L21.6958 7.72697L33.4592 23.9017ZM96.4792 69.7343L77.4562 63.5596L96.4792 69.7343ZM98.2281 52.4948L118.104 50.2668L98.2281 52.4948ZM49.2981 16.9094L45.2735 -2.68149L49.2981 16.9094ZM49.2702 0.0747806L46.3957 -19.7176L49.2702 0.0747806ZM114.231 47.3192L133.943 43.9374L114.231 47.3192ZM94.5193 50.701C95.5463 56.6871 95.1138 62.8613 93.2227 68.6876L131.269 81.0371C135.17 69.0175 136.061 56.283 133.943 43.9374L94.5193 50.701ZM93.2227 68.6876C90.7711 76.2402 85.9951 82.8184 79.5829 87.4818L103.11 119.831C116.356 110.198 126.211 96.617 131.269 81.0371L93.2227 68.6876ZM79.5829 87.4818C73.1711 92.1449 65.4515 94.6549 57.5307 94.6549L57.5307 134.655C73.9084 134.655 89.8637 129.465 103.11 119.831L79.5829 87.4818ZM57.5307 94.6549C49.6098 94.6549 41.8903 92.1449 35.4784 87.4818L11.9516 119.831C25.1977 129.465 41.1529 134.655 57.5307 134.655L57.5307 94.6549ZM35.4784 87.4818C29.0662 82.8184 24.2902 76.2402 21.8387 68.6876L-16.2072 81.037C-11.1501 96.6169 -1.29425 110.198 11.9516 119.831L35.4784 87.4818ZM21.8387 68.6876C19.3871 61.1347 19.3871 52.9983 21.8387 45.4454L-16.2072 33.096C-21.2643 48.6756 -21.2643 65.4573 -16.2072 81.037L21.8387 68.6876ZM21.8387 45.4454C24.2902 37.8928 29.0663 31.3146 35.4784 26.6513L11.9516 -5.69822C-1.29421 3.93506 -11.15 17.5161 -16.2072 33.096L21.8387 45.4454ZM35.4784 26.6513C40.4248 23.0539 46.1497 20.7378 52.1447 19.8671L46.3957 -19.7176C34.0019 -17.9176 22.1706 -13.1302 11.9516 -5.69822L35.4784 26.6513ZM45.2735 -2.68149C36.8081 -0.942444 28.7616 2.58824 21.6958 7.72697L45.2226 40.0764C47.6513 38.3102 50.4154 37.0975 53.3227 36.5003L45.2735 -2.68149ZM21.6958 7.72697C11.2823 15.3004 3.53456 25.9769 -0.440749 38.2239L37.6051 50.5734C38.9748 46.3537 41.6427 42.68 45.2226 40.0764L21.6958 7.72697ZM-0.440749 38.2239C-4.41599 50.4707 -4.416 63.6623 -0.440764 75.9091L37.6051 63.5596C36.2354 59.3397 36.2354 54.7934 37.6051 50.5734L-0.440749 38.2239ZM-0.440764 75.9091C3.53454 88.1561 11.2822 98.8326 21.6958 106.406L45.2226 74.0566C41.6427 71.453 38.9748 67.7793 37.6051 63.5596L-0.440764 75.9091ZM21.6958 106.406C32.1096 113.98 44.6538 118.06 57.5307 118.06L57.5307 78.0605C53.1107 78.0605 48.8022 76.6599 45.2226 74.0566L21.6958 106.406ZM57.5307 118.06C70.4075 118.06 82.9518 113.98 93.3656 106.406L69.8387 74.0566C66.2592 76.6599 61.9506 78.0605 57.5307 78.0605L57.5307 118.06ZM93.3656 106.406C103.779 98.8326 111.527 88.1561 115.502 75.9091L77.4562 63.5596C76.0865 67.7793 73.4186 71.453 69.8387 74.0566L93.3656 106.406ZM115.502 75.9091C118.199 67.5993 119.066 58.8549 118.104 50.2668L78.3526 54.7229C78.6845 57.6835 78.3854 60.6968 77.4562 63.5596L115.502 75.9091ZM118.104 50.2668C118.289 51.9187 118.015 53.7696 117.004 55.6112C115.928 57.571 113.809 59.7935 110.548 60.854L98.1764 22.8154C82.5937 27.8836 77.0658 43.2436 78.3526 54.7229L118.104 50.2668ZM37.5307 7.77534C37.5307 4.35961 38.9809 1.66061 40.5134 0.0278844C41.9534 -1.50631 43.6346 -2.34482 45.2735 -2.68149L53.3227 36.5003C64.6614 34.171 77.5307 24.1445 77.5307 7.77536L37.5307 7.77534ZM52.1447 19.8671C47.8571 20.4898 43.8735 18.9 41.2702 16.4083C38.7997 14.0436 37.5307 10.9019 37.5307 7.77534L77.5307 7.77536C77.5307 -6.90664 64.9698 -22.4152 46.3957 -19.7176L52.1447 19.8671ZM133.943 43.9374C130.775 25.4719 112.179 18.2611 98.1764 22.8154L110.548 60.854C105.253 62.5763 96.1377 60.1338 94.5193 50.701L133.943 43.9374Z" fill="url(#paint0_linear_567_21)" mask="url(#path-2-inside-1_567_21)"/>
<path d="M35.0395 62.0245C35.487 61.6691 35.6911 61.5045 35.6516 61.5308C36.9416 60.4646 37.9551 59.5893 38.6922 58.9048C39.4425 58.2203 40.0744 57.5029 40.5877 56.7527C41.1011 56.0024 41.3578 55.2718 41.3578 54.561C41.3578 54.0213 41.2327 53.6001 40.9826 53.2973C40.7325 52.9946 40.3574 52.8432 39.8572 52.8432C39.357 52.8432 38.9621 53.0341 38.6725 53.4158C38.3961 53.7844 38.2579 54.3109 38.2579 54.9954H35C35.0263 53.8765 35.2633 52.9419 35.7108 52.1916C36.1715 51.4414 36.7704 50.8885 37.5076 50.5331C38.2579 50.1777 39.0871 50 39.9954 50C41.5618 50 42.7399 50.4015 43.5297 51.2044C44.3326 52.0074 44.7341 53.0538 44.7341 54.3438C44.7341 55.7523 44.2536 57.062 43.2927 58.273C42.3318 59.4708 41.1077 60.6423 39.6202 61.7875H44.9513V64.532H35.0395V62.0245Z" fill="url(#paint1_linear_567_21)"/>
<path d="M46.4378 57.3252C46.4378 55.0612 46.8722 53.2776 47.741 51.9745C48.6229 50.6713 50.0379 50.0197 51.9861 50.0197C53.9342 50.0197 55.3426 50.6713 56.2114 51.9745C57.0933 53.2776 57.5343 55.0612 57.5343 57.3252C57.5343 59.6156 57.0933 61.4124 56.2114 62.7155C55.3426 64.0187 53.9342 64.6702 51.9861 64.6702C50.0379 64.6702 48.6229 64.0187 47.741 62.7155C46.8722 61.4124 46.4378 59.6156 46.4378 57.3252ZM54.2172 57.3252C54.2172 55.9958 54.0724 54.9756 53.7828 54.2648C53.4932 53.5409 52.8943 53.1789 51.9861 53.1789C51.0778 53.1789 50.4789 53.5409 50.1893 54.2648C49.8997 54.9756 49.7549 55.9958 49.7549 57.3252C49.7549 58.2203 49.8076 58.964 49.9129 59.5564C50.0182 60.1356 50.2288 60.6094 50.5447 60.978C50.8738 61.3334 51.3542 61.5111 51.9861 61.5111C52.6179 61.5111 53.0918 61.3334 53.4077 60.978C53.7367 60.6094 53.9539 60.1356 54.0592 59.5564C54.1645 58.964 54.2172 58.2203 54.2172 57.3252Z" fill="url(#paint2_linear_567_21)"/>
<path d="M59.1996 62.0245C59.6472 61.6691 59.8512 61.5045 59.8117 61.5308C61.1017 60.4646 62.1152 59.5893 62.8524 58.9048C63.6027 58.2203 64.2345 57.5029 64.7478 56.7527C65.2612 56.0024 65.5179 55.2718 65.5179 54.561C65.5179 54.0213 65.3928 53.6001 65.1427 53.2973C64.8926 52.9946 64.5175 52.8432 64.0173 52.8432C63.5171 52.8432 63.1222 53.0341 62.8326 53.4158C62.5562 53.7844 62.418 54.3109 62.418 54.9954H59.1601C59.1865 53.8765 59.4234 52.9419 59.8709 52.1916C60.3316 51.4414 60.9306 50.8885 61.6677 50.5331C62.418 50.1777 63.2473 50 64.1555 50C65.7219 50 66.9 50.4015 67.6898 51.2044C68.4927 52.0074 68.8942 53.0538 68.8942 54.3438C68.8942 55.7523 68.4138 57.062 67.4529 58.273C66.492 59.4708 65.2678 60.6423 63.7804 61.7875H69.1114V64.532H59.1996V62.0245Z" fill="url(#paint3_linear_567_21)"/>
<path d="M70.4795 62.0245C70.927 61.6691 71.1311 61.5045 71.0916 61.5308C72.3816 60.4646 73.3951 59.5893 74.1322 58.9048C74.8825 58.2203 75.5144 57.5029 76.0277 56.7527C76.5411 56.0024 76.7978 55.2718 76.7978 54.561C76.7978 54.0213 76.6727 53.6001 76.4226 53.2973C76.1725 52.9946 75.7974 52.8432 75.2972 52.8432C74.797 52.8432 74.4021 53.0341 74.1125 53.4158C73.8361 53.7844 73.6979 54.3109 73.6979 54.9954H70.44C70.4663 53.8765 70.7033 52.9419 71.1508 52.1916C71.6115 51.4414 72.2104 50.8885 72.9476 50.5331C73.6979 50.1777 74.5271 50 75.4354 50C77.0018 50 78.1799 50.4015 78.9697 51.2044C79.7726 52.0074 80.1741 53.0538 80.1741 54.3438C80.1741 55.7523 79.6936 57.062 78.7327 58.273C77.7718 59.4708 76.5477 60.6423 75.0602 61.7875H80.3913V64.532H70.4795V62.0245Z" fill="url(#paint4_linear_567_21)"/>
<defs>
<linearGradient id="paint0_linear_567_21" x1="115.061" y1="3.41258e-06" x2="46.4974" y2="137.792" gradientUnits="userSpaceOnUse">
<stop stop-color="#0BA7E2"/>
<stop offset="1" stop-color="#006DB6"/>
</linearGradient>
<linearGradient id="paint1_linear_567_21" x1="80.3913" y1="50" x2="76.9315" y2="71.4375" gradientUnits="userSpaceOnUse">
<stop stop-color="#0BA7E2"/>
<stop offset="1" stop-color="#006DB6"/>
</linearGradient>
<linearGradient id="paint2_linear_567_21" x1="80.3913" y1="50" x2="76.9315" y2="71.4375" gradientUnits="userSpaceOnUse">
<stop stop-color="#0BA7E2"/>
<stop offset="1" stop-color="#006DB6"/>
</linearGradient>
<linearGradient id="paint3_linear_567_21" x1="80.3913" y1="50" x2="76.9315" y2="71.4375" gradientUnits="userSpaceOnUse">
<stop stop-color="#0BA7E2"/>
<stop offset="1" stop-color="#006DB6"/>
</linearGradient>
<linearGradient id="paint4_linear_567_21" x1="80.3913" y1="50" x2="76.9315" y2="71.4375" gradientUnits="userSpaceOnUse">
<stop stop-color="#0BA7E2"/>
<stop offset="1" stop-color="#006DB6"/>
</linearGradient>
</defs>
</svg>
