<svg width="116" height="116" viewBox="0 0 116 116" fill="none" xmlns="http://www.w3.org/2000/svg">
<path d="M107.05 57.5884C107.05 84.8372 84.9603 106.927 57.7114 106.927C30.4626 106.927 8.37305 84.8372 8.37305 57.5884C8.37305 30.3396 30.4626 8.25 57.7114 8.25C84.9603 8.25 107.05 30.3396 107.05 57.5884Z" stroke="#D7EEFF" stroke-opacity="0.7" stroke-width="16.5"/>
<mask id="path-2-inside-1_567_19" fill="white">
<path d="M86.6842 17.1892C89.3777 13.4819 94.6181 12.6217 97.9002 15.8196C105.649 23.3696 111.157 32.9943 113.709 43.6228C116.91 56.9559 115.248 70.9937 109.023 83.2112C102.798 95.4286 92.4179 105.024 79.7497 110.271C67.0814 115.519 52.9566 116.074 39.9157 111.836C26.8749 107.599 15.7739 98.8478 8.60938 87.1564C1.4449 75.465 -1.31284 61.6009 0.83219 48.0577C2.97722 34.5146 9.88425 22.1812 20.3109 13.276C28.6226 6.17718 38.7359 1.62819 49.4427 0.0747779C53.9776 -0.583184 57.7116 3.19297 57.7116 7.77539C57.7116 12.3578 53.9596 15.9881 49.4707 16.9094C42.7257 18.2937 36.3916 21.3649 31.0881 25.8945C23.666 32.2336 18.7493 41.0131 17.2223 50.6537C15.6954 60.2943 17.6585 70.1634 22.7585 78.4858C27.8585 86.8083 35.7607 93.0378 45.0437 96.0541C54.3268 99.0704 64.3815 98.6753 73.3992 94.94C82.417 91.2047 89.8061 84.3744 94.2374 75.6774C98.6687 66.9805 99.8514 56.9878 97.5728 47.4967C95.9447 40.7149 92.6256 34.5072 87.9824 29.4226C84.8923 26.0388 83.9907 20.8964 86.6842 17.1892Z"/>
</mask>
<path d="M86.6842 17.1892L70.5039 5.43346L70.5039 5.43347L86.6842 17.1892ZM97.9002 15.8196L83.943 30.1443L83.943 30.1444L97.9002 15.8196ZM113.709 43.6228L133.156 38.9539L113.709 43.6228ZM109.023 83.2112L126.843 92.291L126.843 92.291L109.023 83.2112ZM79.7497 110.271L72.096 91.7937L79.7497 110.271ZM39.9157 111.836L33.7354 130.857L39.9157 111.836ZM8.60938 87.1564L-8.44343 97.6063H-8.44343L8.60938 87.1564ZM0.83219 48.0577L-18.9216 44.929V44.929L0.83219 48.0577ZM20.3109 13.276L7.32197 -1.93215L7.32197 -1.93215L20.3109 13.276ZM49.4427 0.0747779L52.3144 19.8675H52.3144L49.4427 0.0747779ZM57.7116 7.77539L77.7116 7.77542V7.7754L57.7116 7.77539ZM49.4707 16.9094L53.4915 36.5011H53.4915L49.4707 16.9094ZM31.0881 25.8945L18.0992 10.6864L18.0992 10.6864L31.0881 25.8945ZM22.7585 78.4858L39.8113 68.0359V68.0358L22.7585 78.4858ZM94.2374 75.6774L112.058 84.7573L112.058 84.7572L94.2374 75.6774ZM97.5728 47.4967L78.1254 52.1656V52.1656L97.5728 47.4967ZM87.9824 29.4226L73.2138 42.9092L73.2138 42.9092L87.9824 29.4226ZM102.865 28.9449C99.6078 33.4274 90.808 36.8331 83.943 30.1443L111.857 1.49488C98.4282 -11.5897 79.1476 -6.46358 70.5039 5.43346L102.865 28.9449ZM83.943 30.1444C89.001 35.0725 92.596 41.3549 94.2614 48.2917L133.156 38.9539C129.718 24.6338 122.297 11.6667 111.857 1.49485L83.943 30.1444ZM94.2614 48.2917C96.3507 56.9944 95.2662 66.1569 91.203 74.1313L126.843 92.291C135.23 75.8305 137.469 56.9175 133.156 38.9539L94.2614 48.2917ZM91.2031 74.1313C87.1399 82.1058 80.3646 88.3687 72.096 91.7937L87.4033 128.749C104.471 121.679 118.456 108.751 126.843 92.291L91.2031 74.1313ZM72.096 91.7937C63.8274 95.2187 54.608 95.5809 46.0961 92.8152L33.7354 130.857C51.3053 136.566 70.3355 135.819 87.4033 128.749L72.096 91.7937ZM46.0961 92.8152C37.5842 90.0496 30.3385 84.3375 25.6622 76.7064L-8.44343 97.6063C1.20922 113.358 16.1655 125.149 33.7354 130.857L46.0961 92.8152ZM25.6622 76.7064C20.9859 69.0754 19.1859 60.0261 20.586 51.1864L-18.9216 44.929C-21.8116 63.1756 -18.0961 81.8546 -8.44343 97.6063L25.6622 76.7064ZM20.586 51.1864C21.986 42.3467 26.4943 34.2966 33.2999 28.4841L7.32197 -1.93215C-6.7258 10.0658 -16.0316 26.6824 -18.9216 44.929L20.586 51.1864ZM33.2999 28.4841C38.7246 23.851 45.3257 20.8815 52.3144 19.8675L46.571 -19.718C32.1462 -17.6251 18.5205 -11.4966 7.32197 -1.93215L33.2999 28.4841ZM52.3144 19.8675C42.829 21.2437 37.7116 13.3161 37.7116 7.77539L77.7116 7.7754C77.7116 -6.93018 65.1263 -22.4101 46.571 -19.718L52.3144 19.8675ZM37.7116 7.77537C37.7116 4.35307 39.1661 1.65176 40.6988 0.0204917C42.1388 -1.5122 43.8174 -2.34722 45.4499 -2.68226L53.4915 36.5011C64.8212 34.1759 77.7116 24.1591 77.7116 7.77542L37.7116 7.77537ZM45.4499 -2.68227C35.415 -0.6228 25.9905 3.94658 18.0992 10.6864L44.0771 41.1026C46.7928 38.7832 50.0364 37.2102 53.4915 36.5011L45.4499 -2.68227ZM18.0992 10.6864C7.05593 20.1182 -0.259554 33.1809 -2.53144 47.525L36.9761 53.7824C37.7581 48.8452 40.276 44.349 44.0771 41.1026L18.0992 10.6864ZM-2.53144 47.525C-4.80332 61.869 -1.8825 76.553 5.70566 88.9358L39.8113 68.0358C37.1995 63.7737 36.1941 58.7195 36.9761 53.7824L-2.53144 47.525ZM5.70566 88.9358C13.2938 101.319 25.0513 110.587 38.8634 115.075L51.2241 77.033C46.47 75.4883 42.4231 72.298 39.8113 68.0359L5.70566 88.9358ZM38.8634 115.075C52.6754 119.563 67.6355 118.975 81.0529 113.418L65.7456 76.4624C61.1274 78.3754 55.9781 78.5777 51.2241 77.033L38.8634 115.075ZM81.0529 113.418C94.4703 107.86 105.464 97.6972 112.058 84.7573L76.4173 66.5976C74.1479 71.0515 70.3638 74.5495 65.7456 76.4624L81.0529 113.418ZM112.058 84.7572C118.651 71.8173 120.411 56.9494 117.02 42.8278L78.1254 52.1656C79.2924 57.0262 78.6867 62.1437 76.4173 66.5976L112.058 84.7572ZM117.02 42.8278C114.598 32.7368 109.659 23.5005 102.751 15.936L73.2138 42.9092C75.5922 45.5138 77.2917 48.6929 78.1254 52.1656L117.02 42.8278ZM102.751 15.936C103.875 17.1667 104.742 18.8288 105.006 20.9152C105.287 23.1359 104.876 26.1762 102.865 28.9449L70.5039 5.43347C60.8738 18.6882 65.4146 34.3687 73.2138 42.9092L102.751 15.936Z" fill="url(#paint0_linear_567_19)" mask="url(#path-2-inside-1_567_19)"/>
<path d="M34.1625 62.0245C34.6101 61.6691 34.8141 61.5045 34.7746 61.5308C36.0646 60.4646 37.0782 59.5893 37.8153 58.9048C38.5656 58.2203 39.1974 57.5029 39.7108 56.7527C40.2241 56.0024 40.4808 55.2718 40.4808 54.561C40.4808 54.0213 40.3558 53.6001 40.1057 53.2973C39.8556 52.9946 39.4804 52.8432 38.9802 52.8432C38.48 52.8432 38.0851 53.0341 37.7955 53.4158C37.5191 53.7844 37.3809 54.3109 37.3809 54.9954H34.123C34.1494 53.8765 34.3863 52.9419 34.8339 52.1916C35.2946 51.4414 35.8935 50.8885 36.6306 50.5331C37.3809 50.1777 38.2102 50 39.1184 50C40.6848 50 41.8629 50.4015 42.6527 51.2044C43.4557 52.0074 43.8571 53.0538 43.8571 54.3438C43.8571 55.7523 43.3767 57.062 42.4158 58.273C41.4549 59.4708 40.2307 60.6423 38.7433 61.7875H44.0743V64.532H34.1625V62.0245Z" fill="url(#paint1_linear_567_19)"/>
<path d="M45.5609 57.3252C45.5609 55.0612 45.9953 53.2776 46.864 51.9745C47.7459 50.6713 49.161 50.0197 51.1091 50.0197C53.0572 50.0197 54.4657 50.6713 55.3344 51.9745C56.2164 53.2776 56.6573 55.0612 56.6573 57.3252C56.6573 59.6156 56.2164 61.4124 55.3344 62.7155C54.4657 64.0187 53.0572 64.6702 51.1091 64.6702C49.161 64.6702 47.7459 64.0187 46.864 62.7155C45.9953 61.4124 45.5609 59.6156 45.5609 57.3252ZM53.3402 57.3252C53.3402 55.9958 53.1954 54.9756 52.9059 54.2648C52.6163 53.5409 52.0174 53.1789 51.1091 53.1789C50.2009 53.1789 49.6019 53.5409 49.3123 54.2648C49.0228 54.9756 48.878 55.9958 48.878 57.3252C48.878 58.2203 48.9306 58.964 49.0359 59.5564C49.1412 60.1356 49.3518 60.6094 49.6677 60.978C49.9968 61.3334 50.4773 61.5111 51.1091 61.5111C51.7409 61.5111 52.2148 61.3334 52.5307 60.978C52.8598 60.6094 53.077 60.1356 53.1823 59.5564C53.2876 58.964 53.3402 58.2203 53.3402 57.3252Z" fill="url(#paint2_linear_567_19)"/>
<path d="M58.3227 62.0245C58.7702 61.6691 58.9742 61.5045 58.9347 61.5308C60.2247 60.4646 61.2383 59.5893 61.9754 58.9048C62.7257 58.2203 63.3575 57.5029 63.8709 56.7527C64.3843 56.0024 64.6409 55.2718 64.6409 54.561C64.6409 54.0213 64.5159 53.6001 64.2658 53.2973C64.0157 52.9946 63.6405 52.8432 63.1403 52.8432C62.6401 52.8432 62.2453 53.0341 61.9557 53.4158C61.6792 53.7844 61.541 54.3109 61.541 54.9954H58.2832C58.3095 53.8765 58.5464 52.9419 58.994 52.1916C59.4547 51.4414 60.0536 50.8885 60.7907 50.5331C61.541 50.1777 62.3703 50 63.2786 50C64.845 50 66.0231 50.4015 66.8128 51.2044C67.6158 52.0074 68.0173 53.0538 68.0173 54.3438C68.0173 55.7523 67.5368 57.062 66.5759 58.273C65.615 59.4708 64.3908 60.6423 62.9034 61.7875H68.2345V64.532H58.3227V62.0245Z" fill="url(#paint3_linear_567_19)"/>
<path d="M69.8 62.1627V59.4379L76.0393 50.5134H79.8105V59.2405H81.4295V62.1627H79.8105V64.7295H76.4342V62.1627H69.8ZM76.6711 54.2253L73.354 59.2405H76.6711V54.2253Z" fill="url(#paint4_linear_567_19)"/>
<defs>
<linearGradient id="paint0_linear_567_19" x1="115.3" y1="3.41258e-06" x2="46.7776" y2="137.847" gradientUnits="userSpaceOnUse">
<stop stop-color="#FDD10A"/>
<stop offset="1" stop-color="#F29622"/>
</linearGradient>
<linearGradient id="paint1_linear_567_19" x1="81.4295" y1="50" x2="78.0769" y2="71.5634" gradientUnits="userSpaceOnUse">
<stop stop-color="#FDD10A"/>
<stop offset="1" stop-color="#F29622"/>
</linearGradient>
<linearGradient id="paint2_linear_567_19" x1="81.4295" y1="50" x2="78.0769" y2="71.5634" gradientUnits="userSpaceOnUse">
<stop stop-color="#FDD10A"/>
<stop offset="1" stop-color="#F29622"/>
</linearGradient>
<linearGradient id="paint3_linear_567_19" x1="81.4295" y1="50" x2="78.0769" y2="71.5634" gradientUnits="userSpaceOnUse">
<stop stop-color="#FDD10A"/>
<stop offset="1" stop-color="#F29622"/>
</linearGradient>
<linearGradient id="paint4_linear_567_19" x1="81.4295" y1="50" x2="78.0769" y2="71.5634" gradientUnits="userSpaceOnUse">
<stop stop-color="#FDD10A"/>
<stop offset="1" stop-color="#F29622"/>
</linearGradient>
</defs>
</svg>
