<svg width="116" height="116" viewBox="0 0 116 116" fill="none" xmlns="http://www.w3.org/2000/svg">
<path d="M106.873 57.5884C106.873 84.845 84.8013 106.927 57.5922 106.927C30.383 106.927 8.31152 84.845 8.31152 57.5884C8.31152 30.3317 30.383 8.25 57.5922 8.25C84.8013 8.25 106.873 30.3317 106.873 57.5884Z" stroke="#D7EEFF" stroke-width="16.5"/>
<mask id="path-2-inside-1_567_20" fill="white">
<path d="M96.3953 26.4366C100.003 23.6154 105.272 24.2328 107.543 28.2115C112.529 36.945 115.167 46.8796 115.122 57.0345C115.066 69.9699 110.661 82.5095 102.616 92.6329C94.5718 102.756 83.3567 109.874 70.7783 112.839C58.1998 115.803 44.9905 114.443 33.2787 108.976C21.567 103.509 12.035 94.2548 6.21859 82.7037C0.402203 71.1526 -1.35979 57.9777 1.21654 45.302C3.79286 32.6262 10.5574 21.1878 20.4203 12.8299C28.1632 6.2685 37.4616 1.90561 47.3498 0.114796C51.8545 -0.701037 55.7139 2.94248 55.8737 7.52212C56.0335 12.1018 52.4141 15.8609 47.9645 16.9382C41.8009 18.4306 36.0291 21.3451 31.1316 25.4954C24.1108 31.4449 19.2955 39.5872 17.4615 48.6104C15.6276 57.6335 16.8819 67.012 21.0222 75.2346C25.1626 83.4571 31.9479 90.0449 40.2848 93.9364C48.6217 97.8279 58.0247 98.7964 66.9786 96.6859C75.9325 94.5754 83.9159 89.5089 89.6423 82.3026C95.3686 75.0963 98.5045 66.1701 98.5447 56.9621C98.5727 50.539 97.0931 44.2397 94.2733 38.554C92.2376 34.4495 92.7879 29.2578 96.3953 26.4366Z"/>
</mask>
<path d="M115.122 57.0345L95.1225 56.9474L115.122 57.0345ZM20.4203 12.8299L7.49026 -2.42831L20.4203 12.8299ZM31.1316 25.4954L44.0617 40.7536L31.1316 25.4954ZM98.5447 56.9621L118.544 57.0493L98.5447 56.9621ZM94.2733 38.554L76.3559 47.4403L94.2733 38.554ZM47.9645 16.9382L52.6711 36.3765L47.9645 16.9382ZM47.3498 0.114796L43.7856 -19.5651L47.3498 0.114796ZM107.543 28.2115L124.912 18.2963L107.543 28.2115ZM90.1738 38.1267C93.4286 43.8284 95.1514 50.3156 95.1225 56.9474L135.122 57.1217C135.182 43.4435 131.628 30.0616 124.912 18.2963L90.1738 38.1267ZM95.1225 56.9474C95.0857 65.3956 92.2084 73.5829 86.9579 80.1902L118.274 105.076C129.113 91.4361 135.046 74.5442 135.122 57.1217L95.1225 56.9474ZM86.9579 80.1902C81.7078 86.7972 74.3914 91.4389 66.1899 93.372L75.3666 132.305C92.3221 128.309 107.436 118.715 118.274 105.076L86.9579 80.1902ZM66.1899 93.372C57.9887 95.3051 49.3758 94.4183 41.7381 90.8531L24.8194 127.099C40.6051 134.467 58.411 136.302 75.3666 132.305L66.1899 93.372ZM41.7381 90.8531C34.0999 87.2879 27.8791 81.2502 24.0818 73.7089L-11.6446 91.6985C-3.80914 107.259 9.03406 119.731 24.8194 127.099L41.7381 90.8531ZM24.0818 73.7089C20.2843 66.1673 19.1333 57.5637 20.8158 49.2855L-18.3827 41.3185C-21.8529 58.3918 -19.4799 76.1379 -11.6446 91.6985L24.0818 73.7089ZM20.8158 49.2855C22.4983 41.0075 26.9152 33.5414 33.3503 28.0882L7.49026 -2.42831C-5.80034 8.83432 -14.9126 24.245 -18.3827 41.3185L20.8158 49.2855ZM33.3503 28.0882C38.4018 23.8075 44.4664 20.9623 50.9139 19.7947L43.7856 -19.5651C30.4568 -17.1511 17.9246 -11.2705 7.49026 -2.42831L33.3503 28.0882ZM43.258 -2.50013C34.0822 -0.278419 25.4906 4.0603 18.2016 10.2371L44.0617 40.7536C46.5677 38.63 49.5196 37.1396 52.6711 36.3765L43.258 -2.50013ZM18.2016 10.2371C7.75302 19.0914 0.590038 31.206 -2.13774 44.6269L37.0608 52.5939C38.0009 47.9685 40.4686 43.7984 44.0617 40.7536L18.2016 10.2371ZM-2.13774 44.6269C-4.86547 58.0476 -3.00025 71.9973 3.15901 84.2293L38.8854 66.2398C36.764 62.0267 36.1207 57.2195 37.0608 52.5939L-2.13774 44.6269ZM3.15901 84.2293C9.31846 96.4617 19.415 106.266 31.8255 112.059L48.7442 75.8135C44.4808 73.8235 41.0067 70.4525 38.8854 66.2398L3.15901 84.2293ZM31.8255 112.059C44.2364 117.852 58.2359 119.295 71.567 116.152L62.3903 77.2193C57.8136 78.2981 53.0071 77.8033 48.7442 75.8135L31.8255 112.059ZM71.567 116.152C84.8979 113.01 96.7799 105.468 105.3 94.7452L73.984 69.8599C71.0519 73.5498 66.9672 76.1405 62.3903 77.2193L71.567 116.152ZM105.3 94.7452C113.821 84.0229 118.485 70.7444 118.544 57.0493L78.5449 56.8749C78.5243 61.5958 76.9164 66.1697 73.984 69.8599L105.3 94.7452ZM118.544 57.0493C118.586 47.4955 116.385 38.1254 112.191 29.6677L76.3559 47.4403C77.8009 50.3539 78.5592 53.5824 78.5449 56.8749L118.544 57.0493ZM112.191 29.6677C112.93 31.1587 113.304 32.9917 112.984 35.0656C112.643 37.2723 111.413 40.0813 108.716 42.1908L84.0744 10.6824C71.1744 20.7711 71.2217 37.0883 76.3559 47.4403L112.191 29.6677ZM35.8859 8.21942C35.7668 4.80575 37.122 2.05806 38.5962 0.373233C39.9816 -1.20994 41.6321 -2.10647 43.258 -2.50013L52.6711 36.3765C63.9208 33.6527 76.4322 23.1837 75.8615 6.82482L35.8859 8.21942ZM50.9139 19.7947C46.6508 20.5667 42.6137 19.1171 39.9246 16.7174C37.3727 14.44 35.9949 11.3441 35.8859 8.21942L75.8615 6.82482C75.3496 -7.84875 62.2548 -22.91 43.7856 -19.5651L50.9139 19.7947ZM124.912 18.2963C115.616 2.01209 95.6663 1.61672 84.0744 10.6824L108.716 42.1908C104.339 45.614 94.9272 46.4536 90.1738 38.1267L124.912 18.2963Z" fill="url(#paint0_linear_567_20)" mask="url(#path-2-inside-1_567_20)"/>
<path d="M35.101 62.0442C35.5486 61.6888 35.7526 61.5243 35.7131 61.5506C37.0031 60.4844 38.0166 59.609 38.7538 58.9246C39.5041 58.2401 40.1359 57.5227 40.6492 56.7724C41.1626 56.0221 41.4193 55.2916 41.4193 54.5807C41.4193 54.0411 41.2942 53.6198 41.0441 53.3171C40.794 53.0143 40.4189 52.863 39.9187 52.863C39.4185 52.863 39.0236 53.0538 38.734 53.4356C38.4576 53.8041 38.3194 54.3306 38.3194 55.0151H35.0615C35.0878 53.8963 35.3248 52.9617 35.7723 52.2114C36.233 51.4611 36.832 50.9083 37.5691 50.5528C38.3194 50.1974 39.1487 50.0197 40.0569 50.0197C41.6233 50.0197 42.8014 50.4212 43.5912 51.2242C44.3941 52.0271 44.7956 53.0736 44.7956 54.3636C44.7956 55.772 44.3152 57.0817 43.3543 58.2927C42.3933 59.4906 41.1692 60.6621 39.6818 61.8073H45.0128V64.5518H35.101V62.0442Z" fill="url(#paint1_linear_567_20)"/>
<path d="M46.4993 57.345C46.4993 55.0809 46.9337 53.2973 47.8025 51.9942C48.6844 50.6911 50.0994 50.0395 52.0476 50.0395C53.9957 50.0395 55.4042 50.6911 56.2729 51.9942C57.1548 53.2973 57.5958 55.0809 57.5958 57.345C57.5958 59.6354 57.1548 61.4321 56.2729 62.7353C55.4042 64.0384 53.9957 64.69 52.0476 64.69C50.0994 64.69 48.6844 64.0384 47.8025 62.7353C46.9337 61.4321 46.4993 59.6354 46.4993 57.345ZM54.2787 57.345C54.2787 56.0155 54.1339 54.9954 53.8443 54.2846C53.5547 53.5606 52.9558 53.1986 52.0476 53.1986C51.1393 53.1986 50.5404 53.5606 50.2508 54.2846C49.9612 54.9954 49.8164 56.0155 49.8164 57.345C49.8164 58.2401 49.8691 58.9838 49.9744 59.5761C50.0797 60.1553 50.2903 60.6292 50.6062 60.9977C50.9353 61.3531 51.4158 61.5308 52.0476 61.5308C52.6794 61.5308 53.1533 61.3531 53.4692 60.9977C53.7983 60.6292 54.0155 60.1553 54.1208 59.5761C54.2261 58.9838 54.2787 58.2401 54.2787 57.345Z" fill="url(#paint2_linear_567_20)"/>
<path d="M59.2611 62.0442C59.7087 61.6888 59.9127 61.5243 59.8732 61.5506C61.1632 60.4844 62.1768 59.609 62.9139 58.9246C63.6642 58.2401 64.296 57.5227 64.8094 56.7724C65.3227 56.0221 65.5794 55.2916 65.5794 54.5807C65.5794 54.0411 65.4544 53.6198 65.2043 53.3171C64.9542 53.0143 64.579 52.863 64.0788 52.863C63.5786 52.863 63.1837 53.0538 62.8941 53.4356C62.6177 53.8041 62.4795 54.3306 62.4795 55.0151H59.2217C59.248 53.8963 59.4849 52.9617 59.9325 52.2114C60.3932 51.4611 60.9921 50.9083 61.7292 50.5528C62.4795 50.1974 63.3088 50.0197 64.217 50.0197C65.7834 50.0197 66.9615 50.4212 67.7513 51.2242C68.5543 52.0271 68.9557 53.0736 68.9557 54.3636C68.9557 55.772 68.4753 57.0817 67.5144 58.2927C66.5535 59.4906 65.3293 60.6621 63.8419 61.8073H69.1729V64.5518H59.2611V62.0442Z" fill="url(#paint3_linear_567_20)"/>
<path d="M70.7779 54.403C70.8306 52.9946 71.2913 51.9086 72.1601 51.1452C73.0288 50.3817 74.2069 50 75.6943 50C76.6816 50 77.524 50.1711 78.2217 50.5134C78.9325 50.8556 79.4656 51.3229 79.821 51.9152C80.1895 52.5076 80.3738 53.1723 80.3738 53.9094C80.3738 54.7782 80.1566 55.489 79.7222 56.0418C79.2879 56.5815 78.7811 56.9501 78.2019 57.1475V57.2265C78.9522 57.4766 79.5445 57.8913 79.9789 58.4704C80.4133 59.0496 80.6305 59.7933 80.6305 60.7016C80.6305 61.5177 80.4396 62.2416 80.0579 62.8735C79.6893 63.4921 79.1431 63.9792 78.4191 64.3346C77.7083 64.69 76.8593 64.8677 75.872 64.8677C74.2925 64.8677 73.0288 64.4794 72.0811 63.7027C71.1465 62.9261 70.6529 61.7546 70.6002 60.1882H73.8778C73.891 60.7674 74.0555 61.2281 74.3715 61.5703C74.6874 61.8994 75.1481 62.0639 75.7536 62.0639C76.2669 62.0639 76.6618 61.9192 76.9383 61.6296C77.2278 61.3268 77.3726 60.9319 77.3726 60.4449C77.3726 59.8131 77.1686 59.3589 76.7606 59.0825C76.3657 58.7929 75.7273 58.6481 74.8453 58.6481H74.2135V55.9036H74.8453C75.5166 55.9036 76.0563 55.7917 76.4644 55.568C76.8856 55.331 77.0962 54.9164 77.0962 54.3241C77.0962 53.8502 76.9646 53.4816 76.7013 53.2184C76.4381 52.9551 76.0761 52.8235 75.6154 52.8235C75.1152 52.8235 74.74 52.9749 74.4899 53.2776C74.253 53.5804 74.1148 53.9555 74.0753 54.403H70.7779Z" fill="url(#paint4_linear_567_20)"/>
<defs>
<linearGradient id="paint0_linear_567_20" x1="57.5922" y1="0" x2="57.5922" y2="114.372" gradientUnits="userSpaceOnUse">
<stop stop-color="#9D3EFA"/>
<stop offset="1" stop-color="#301CBB"/>
</linearGradient>
<linearGradient id="paint1_linear_567_20" x1="57.846" y1="50" x2="57.846" y2="64.8677" gradientUnits="userSpaceOnUse">
<stop stop-color="#9D3EFA"/>
<stop offset="1" stop-color="#301CBB"/>
</linearGradient>
<linearGradient id="paint2_linear_567_20" x1="57.846" y1="50" x2="57.846" y2="64.8677" gradientUnits="userSpaceOnUse">
<stop stop-color="#9D3EFA"/>
<stop offset="1" stop-color="#301CBB"/>
</linearGradient>
<linearGradient id="paint3_linear_567_20" x1="57.846" y1="50" x2="57.846" y2="64.8677" gradientUnits="userSpaceOnUse">
<stop stop-color="#9D3EFA"/>
<stop offset="1" stop-color="#301CBB"/>
</linearGradient>
<linearGradient id="paint4_linear_567_20" x1="57.846" y1="50" x2="57.846" y2="64.8677" gradientUnits="userSpaceOnUse">
<stop stop-color="#9D3EFA"/>
<stop offset="1" stop-color="#301CBB"/>
</linearGradient>
</defs>
</svg>
