<svg width="29" height="40" viewBox="0 0 29 40" fill="none" xmlns="http://www.w3.org/2000/svg">
<path fill-rule="evenodd" clip-rule="evenodd" d="M12.1415 18.4207C12.8706 18.7729 16.0084 18.7729 16.7375 18.4207C16.7375 19.0433 16.803 20.0592 16.6228 20.518C16.2132 21.583 14.8368 21.37 13.698 21.37C11.8383 21.37 12.1415 19.6414 12.1415 18.4125V18.4207ZM7.95503 10.8753C7.95503 10.1789 7.89768 10.1461 8.03695 9.56445C8.34827 9.41698 8.6514 9.46614 8.83164 9.20397C9.15934 8.7288 8.7579 8.95819 9.40512 8.54856C9.92125 8.22086 10.2735 7.86858 10.6914 7.45075C11.4533 6.68884 12.4118 5.54187 13.6243 5.54187C13.7226 5.54187 14.9761 6.0662 15.7052 6.24644C16.9751 6.56595 18.7529 6.78715 19.7196 7.81123C20.0883 8.20447 19.8507 8.4011 19.9572 8.96639C20.0555 9.49071 20.4078 9.35144 20.842 9.55625C20.9813 10.1461 20.9239 10.2444 20.9239 10.949C20.9239 11.4242 20.2685 11.3095 20.0473 11.629C19.6213 12.2434 20.4733 13.6198 19.1625 15.586C17.8763 17.5195 16.2296 17.7571 13.952 17.7571C11.06 17.7571 8.94633 15.5614 8.94633 13.161C8.94633 12.694 9.06103 11.9403 8.83983 11.6208C8.55309 11.203 7.96322 11.5634 7.96322 10.8589L7.95503 10.8753ZM12.9607 4.72261C11.3877 4.85369 9.52801 7.75388 8.44658 8.00785C8.42201 7.91773 6.74252 5.14044 8.17623 3.55107C8.9873 2.64988 9.44608 3.57565 10.2817 2.86289C11.4369 1.87978 13.4195 0.945818 15.0171 0.945818C16.9096 0.945818 18.0975 1.19979 19.4738 2.31398C19.949 2.69904 20.3505 3.11686 20.6536 3.68215C21.1615 4.64069 21.2516 5.05851 21.2516 6.11536C21.2516 6.94281 21.0632 7.22136 20.9239 7.8358L20.3832 7.22955C20.375 7.21317 20.3586 7.19678 20.3423 7.18859C20.3259 7.1804 20.3095 7.15582 20.3013 7.14763C18.3596 5.20598 15.3284 5.78765 13.9848 4.5178C13.8127 4.35394 13.7964 4.21467 13.5834 4.08359C13.1246 3.78865 12.7559 4.2884 12.9607 4.71442V4.72261ZM6.72614 5.05032C6.72614 6.65607 6.96372 7.33606 7.79117 8.58133C7.13577 9.56445 7.05384 8.67964 7.05384 10.9572C7.05384 11.7437 7.52901 12.0058 8.03695 12.268C8.03695 14.1769 8.12707 14.734 8.86441 15.9547C9.44608 16.9296 10.2162 17.5522 11.2403 18.093V18.6664C10.3473 18.8713 9.02007 19.3382 8.18442 19.7069C7.86491 19.8462 7.51263 19.9936 7.21769 20.1411C6.89818 20.2968 6.70975 20.436 6.37385 20.6081C3.24427 22.1975 0 25.753 0 29.4971C0 31.324 0.598061 32.856 1.5566 34.0931C1.71226 34.2979 1.89249 34.5028 2.07273 34.724C2.22839 34.9042 2.46598 35.1418 2.63802 35.3056C2.94115 35.5842 3.08042 35.576 3.4409 35.4039C3.68668 34.3389 3.08042 34.937 1.75322 32.7413C-0.352282 29.2677 1.81876 25.0894 4.4404 23.0249C5.39893 22.263 6.35747 21.5912 7.52082 21.0177C8.12707 20.7146 10.5439 19.6659 11.2403 19.6496V20.0592C11.2403 21.2471 12.2643 22.2712 13.4523 22.2712H15.4185C16.6064 22.2712 17.6305 21.2471 17.6305 20.0592V19.6496C18.3105 19.6659 20.6945 20.69 21.3008 20.9849C22.3331 21.4929 23.5783 22.263 24.3812 22.9921C26.2983 24.7044 27.9696 26.7689 27.9696 29.579C27.9696 31.2257 27.2568 32.7823 26.3065 33.9047C25.5528 34.7977 25.2169 34.5191 25.4299 35.4039C26.0034 35.6825 26.159 35.4285 26.8062 34.7322L27.8139 33.364C29.731 30.1525 28.879 26.3511 26.4376 23.7377C26.2819 23.5656 26.2901 23.541 26.1508 23.369C25.6265 22.7382 24.16 21.6485 23.48 21.198C21.8661 20.1165 19.4984 19.1006 17.6387 18.6746V18.1011C19.2526 17.2491 20.1702 16.1513 20.6863 14.4227C20.883 13.7591 20.842 13.1364 20.842 12.2762C21.989 11.6699 21.8251 11.3259 21.8251 9.90034C21.8251 9.45794 21.6777 9.1712 21.4155 8.99916C23.2179 5.59922 21.7678 1.68315 17.6141 0.331372C13.4605 -1.02041 9.71644 2.19929 9.59355 2.21567C9.29862 2.26483 8.70055 2.00267 7.7584 2.72362C7.20131 3.14963 6.72614 4.09997 6.72614 5.05851V5.05032Z" fill="#FA932B"/>
<path fill-rule="evenodd" clip-rule="evenodd" d="M5.25151 37.624V36.8048H23.6275C23.6275 37.6322 23.6112 39.0168 22.4806 39.0168H6.39847C5.76764 39.0168 5.25151 38.2794 5.25151 37.624ZM5.25151 26.7115C5.25151 25.8349 5.76764 25.1549 6.4804 25.1549H22.3986C23.1114 25.1549 23.6275 25.8349 23.6275 26.7115V35.9036H5.25151V26.7115ZM4.35032 28.5138C3.33444 27.8339 3.16239 29.2594 3.91611 30.095C4.4896 30.7259 4.35032 30.3818 4.35032 31.5533V37.2144C4.34213 39.0414 5.08766 39.9999 7.22593 39.9999H21.6695C25.0039 39.9999 24.5369 37.665 24.5369 35.3219C24.5369 34.0602 24.5369 32.8068 24.5369 31.5451C24.5369 30.3818 24.3976 30.7259 24.9711 30.0868C25.7248 29.2512 25.561 27.8257 24.5369 28.5057C24.5369 27.5062 24.6352 26.3346 24.3403 25.5809C24.0945 24.9501 23.308 24.2373 22.4806 24.2373H6.39847C5.5956 24.2373 4.8173 24.9255 4.56333 25.5235C4.24382 26.2855 4.34213 27.4652 4.34213 28.5057L4.35032 28.5138Z" fill="#FA932B"/>
<path fill-rule="evenodd" clip-rule="evenodd" d="M11.6499 13.661C11.6499 13.9642 11.8056 14.3984 11.9203 14.6196C12.2971 15.3733 13.4769 16.0287 14.4436 16.0287C15.14 16.0287 15.9756 15.6928 16.3525 15.3241C17.7616 13.9478 17.2209 12.8254 16.5737 13.1531C16.2132 13.3333 16.3934 13.6201 16.2214 14.0379C15.6561 15.4061 13.2393 15.4061 12.674 14.0379C12.5019 13.6201 12.6822 13.3333 12.3217 13.1531C11.9776 12.9811 11.6581 13.2432 11.6581 13.661H11.6499Z" fill="#FA932B"/>
<path fill-rule="evenodd" clip-rule="evenodd" d="M7.46338 27.6941C7.46338 27.9481 7.54531 28.2676 7.87301 28.2676C8.79058 28.2676 10.8715 28.3659 11.6498 28.1857C11.912 27.0551 11.7645 27.3664 7.79108 27.3664C7.60265 27.3664 7.46338 27.5057 7.46338 27.6941Z" fill="#FA932B"/>
<path fill-rule="evenodd" clip-rule="evenodd" d="M16.4917 9.56471V10.1382C16.4917 10.9411 17.3929 10.7608 17.3929 10.302C17.3929 9.64664 17.442 9.78591 17.311 9.23701C17.0324 9.17147 16.4917 9.05677 16.4917 9.56471Z" fill="#FA932B"/>
<path fill-rule="evenodd" clip-rule="evenodd" d="M11.5679 9.23603C11.1173 11.1777 12.3872 10.8909 12.3872 10.1372C12.3872 9.74397 12.5101 8.86736 11.5679 9.23603Z" fill="#FA932B"/>
</svg>
