<svg width="30" height="40" viewBox="0 0 30 40" fill="none" xmlns="http://www.w3.org/2000/svg">
<path fill-rule="evenodd" clip-rule="evenodd" d="M16.2449 29.6152C18.741 29.6152 21.5808 28.2229 23.5858 26.8797C23.6431 27.1008 23.8886 27.4694 24.0196 27.6905L26.7284 32.4735C26.8921 32.7601 27.1049 33.0468 27.1703 33.358C26.8102 33.3252 26.401 33.1942 26.0737 33.1287L23.8641 32.6864C21.769 32.2032 22.2764 32.58 20.9915 36.0034C20.8524 36.3801 20.6478 37.1254 20.4596 37.2646C20.4023 37.0271 20.3614 36.9698 20.2386 36.7814C20.124 36.5931 20.0749 36.4784 19.9522 36.2818L18.34 33.4399C18.1026 33.0222 16.2858 30.0165 16.2367 29.607L16.2449 29.6152ZM9.215 37.2728C8.99403 37.109 8.32296 35.0206 8.23294 34.7421C7.27543 31.9329 7.66825 32.3261 4.71389 32.9157L2.51244 33.3662C2.61883 32.9076 5.99057 27.3138 6.10514 26.8797C8.02016 28.1655 10.9663 29.6152 13.446 29.6152C13.4215 29.9264 10.0497 35.8068 9.47688 36.7405C9.35412 36.9452 9.28865 37.0108 9.23137 37.2728H9.215ZM0 14.2999C0 17.1827 0.409192 19.0009 1.55493 21.4989C2.72522 24.0623 4.47656 25.3154 4.84483 25.8642L0.646523 33.3007C0.392824 33.7266 0.0818383 34.0869 0.0818383 34.6111C0.0818383 35.8723 2.32421 35.0452 3.55178 34.7994C4.05918 34.7012 4.4029 34.6111 4.90212 34.5128L6.3261 34.218C6.74348 34.996 7.12812 36.3474 7.43092 37.2565C7.60278 37.7806 7.79101 38.272 7.97924 38.8207C8.04471 39.0255 8.1511 39.3367 8.25749 39.5578C8.42117 39.8936 8.67486 40.0001 9.06769 40.0001C9.59964 40.0001 9.78787 39.4186 10.0006 39.0583C11.1546 37.0599 12.2348 35.0124 13.4215 33.0304C13.6588 32.6291 14.5018 30.8764 14.8373 30.6225C15.1646 30.8601 16.6296 33.6856 16.916 34.1688C17.1697 34.6029 17.3825 34.9714 17.628 35.4137L20.0013 39.607C20.3041 40.1066 21.1143 40.1393 21.4089 39.607C21.7526 38.9682 22.0145 37.9936 22.2355 37.3138C22.4155 36.7651 22.5874 36.3146 22.7838 35.7495C22.9638 35.2417 23.1111 34.693 23.3648 34.218C23.6022 34.2343 23.8231 34.3162 24.0114 34.3572L26.0819 34.7831C26.843 34.9632 28.1524 35.3154 28.9053 35.3154C29.7482 35.3154 29.691 34.3736 29.3881 33.8904L25.4681 26.9534C25.2635 26.5931 25.0507 26.2327 24.8461 25.856C25.2226 25.299 26.9657 24.046 28.136 21.4907C28.537 20.6062 28.9217 19.8035 29.1917 18.7143C30.2802 14.3162 29.6091 9.76259 26.9003 6.14261C25.0507 3.66923 22.5956 1.75277 19.6248 0.761776C19.052 0.573406 18.3154 0.172095 17.7998 0.597976C17.2188 1.073 17.6362 1.82648 18.2254 2.00666C19.2566 2.31788 20.1977 2.58815 21.0816 3.12869C21.9081 3.63647 22.7838 4.1033 23.4958 4.77488C24.7234 5.92148 25.5663 6.79781 26.401 8.35391C26.5074 8.55047 26.5893 8.64875 26.6875 8.84531C27.154 9.78716 27.5059 10.7372 27.7514 11.8429C28.3488 14.6275 28.1769 17.6823 26.9494 20.2212C26.0491 22.0804 25.329 23.0632 23.8477 24.5374C20.7788 27.5677 16.1303 28.6815 11.932 27.756C11.0482 27.5595 10.1316 27.2728 9.41141 26.9125C7.9465 26.1754 6.63709 25.3646 5.48317 24.2098C5.36041 24.0869 5.27039 23.9477 5.1149 23.7921C4.95122 23.6283 4.82846 23.53 4.68934 23.358C2.11961 20.1639 1.03116 16.0443 1.90683 11.9575C2.43878 9.48413 3.67454 7.45301 5.30312 5.59388C5.58138 5.27447 5.82689 5.14343 6.12151 4.84859C6.90716 4.06235 8.05289 3.30068 9.08406 2.89118L11.4246 2.03123C12.0057 1.84286 12.4803 1.17128 11.9402 0.630736C11.4492 0.147525 10.729 0.540646 10.1316 0.737206C9.70603 0.876436 9.36231 0.991096 8.99403 1.1549C7.93832 1.63811 6.94808 2.17865 6.01512 2.85842L5.14763 3.55457C3.41266 5.10248 2.07869 6.84695 1.13755 9.07463C0.581052 10.4096 0.0163677 12.4407 0.0163677 14.2753L0 14.2999Z" fill="#57B5E8"/>
<path fill-rule="evenodd" clip-rule="evenodd" d="M4.68946 14.8483C4.68946 14.1931 4.82859 13.2021 4.95134 12.6124C5.11502 11.8917 5.33598 11.2938 5.59787 10.6795C6.80089 7.88675 9.54247 5.6345 12.5459 4.9793C14.8865 4.47151 16.7852 4.65169 18.9866 5.60174C21.139 6.52721 23.1358 8.52557 24.0606 10.6795C24.3225 11.2774 24.5353 11.8507 24.6908 12.5469C26.5157 20.3929 18.7002 27.551 10.6637 24.0866C8.51131 23.1611 6.51446 21.1628 5.58968 19.0088C5.04137 17.7393 4.67309 16.2979 4.67309 14.8483H4.68946ZM3.12635 14.2258C3.12635 16.4044 3.27366 17.9605 4.24753 19.9015C5.25414 21.9162 5.90885 22.4977 7.28374 23.8163L8.48676 24.7254C8.65862 24.8319 8.75683 24.881 8.92869 24.9875C14.6165 28.3945 22.2929 26.2897 25.46 19.8605C27.2687 16.1914 26.8185 11.4822 24.4452 8.14064C24.2488 7.86218 24.0851 7.6001 23.8396 7.33802C22.522 5.95391 21.9655 5.3069 19.9441 4.28314C16.1632 2.38306 11.5639 2.85808 8.07757 5.28233C6.89091 6.10133 6.75179 6.36341 5.91704 7.26431C5.65515 7.55096 5.51603 7.72295 5.29506 8.05055C4.8204 8.7467 4.64854 8.9924 4.23935 9.8114C3.73195 10.827 3.11816 12.768 3.11816 14.2422L3.12635 14.2258Z" fill="#57B5E8"/>
<path fill-rule="evenodd" clip-rule="evenodd" d="M9.92703 13.4397C10.4753 13.4233 11.8339 13.1449 12.5786 13.0466C13.0123 12.9892 13.0942 12.9892 13.3479 12.719C13.5688 12.4815 14.6818 10.2784 14.7719 9.91799H14.9274C15.001 10.2292 16.114 12.4487 16.3104 12.678C16.6705 13.1039 17.137 13.0466 17.9308 13.1694L19.7722 13.4397C19.4285 13.9557 17.4316 15.5527 17.4316 16.0195C17.4316 16.9778 17.8981 18.5257 17.8981 19.3037C14.4609 17.4856 15.2465 17.5429 13.2906 18.5257C12.7832 18.7796 12.3085 19.0417 11.8093 19.3037C11.8093 18.5584 12.2758 16.945 12.2758 16.1014C12.2758 15.7165 11.9975 15.5527 11.7848 15.3398L9.92703 13.4479V13.4397ZM12.2676 11.4823L8.17569 12.072C7.72558 12.1621 7.34912 12.3996 7.34912 12.891C7.34912 13.4069 8.0693 13.9802 8.45394 14.2833C8.6258 14.4225 8.73219 14.5453 8.88768 14.7091C9.31324 15.135 10.2053 16.126 10.6227 16.4127C10.459 17.1006 10.369 17.936 10.2544 18.624C10.058 19.8033 9.46055 21.5724 10.6963 21.5724C11.2528 21.5724 14.4527 19.574 14.8373 19.574C15.0092 19.574 16.5805 20.4094 16.8506 20.565C17.1452 20.7452 18.6755 21.5642 18.9702 21.5642C20.2059 21.5642 19.6167 19.7951 19.4203 18.6158C19.3139 17.9688 19.2075 17.0597 19.052 16.4045C19.453 16.1342 20.345 15.1596 20.7461 14.7419C21.1471 14.3406 22.3255 13.5298 22.3255 12.8828C22.3255 12.4159 21.9818 12.1784 21.5644 12.0802L18.8556 11.6625C18.4137 11.5969 17.8081 11.4741 17.4071 11.4741C17.3007 11.0318 16.5478 9.68048 16.3104 9.20546C15.6966 7.98515 15.5739 7.24805 14.7473 7.24805C14.2317 7.24805 14.1008 7.68212 13.9126 8.05886C13.5688 8.75501 12.3413 11.081 12.2431 11.4741L12.2676 11.4823Z" fill="#57B5E8"/>
<path fill-rule="evenodd" clip-rule="evenodd" d="M14.0598 0.704341C14.0598 1.87551 15.6229 1.87551 15.6229 0.704341C15.6229 0.27027 15.2956 0.03276 14.9355 0H14.7473C14.3872 0.03276 14.0598 0.27027 14.0598 0.704341Z" fill="#57B5E8"/>
</svg>
