<svg width="35" height="37" viewBox="0 0 35 37" fill="none" xmlns="http://www.w3.org/2000/svg">
<path fill-rule="evenodd" clip-rule="evenodd" d="M8.6532 24.627V24.4076H10.3793C10.3793 25.2021 10.4537 25.0659 8.93592 25.0659C8.71272 25.0659 8.64576 24.854 8.64576 24.627H8.6532ZM7.42557 23.0909V22.5764H11.6069V23.3103C10.915 23.4768 8.57879 23.386 7.71573 23.386C7.54461 23.386 7.42557 23.2649 7.42557 23.0909ZM6.62947 21.2597V20.677H12.3956C12.3956 21.2521 12.4774 21.4867 12.1798 21.4867H6.84523C6.68155 21.4867 6.62947 21.4337 6.62947 21.2673V21.2597ZM8.93592 14.737H10.0892V19.6479H8.93592V14.737ZM31.4201 18.3994C31.4201 19.2242 32.8263 21.4035 33.4216 22.2964C33.7266 22.7504 33.9424 23.0077 33.9424 23.7492C33.6076 23.8249 33.5629 23.9157 33.1016 23.9914C31.7029 24.2184 30.5868 24.2411 31.0333 25.9815C31.2713 26.9047 31.4499 26.723 30.2446 27.0182C29.761 27.1392 29.4113 27.1846 29.4113 27.6311C29.4113 28.0851 29.8056 28.1759 30.1553 28.3424C30.572 28.5391 30.9961 28.5921 30.9961 29.0234C30.9961 29.3563 30.5124 29.3034 30.2967 29.7725C29.9321 30.5671 30.319 32.9809 28.9054 32.9809C26.4947 32.9809 23.5931 30.8697 21.8893 34.57C21.7479 34.8727 21.4354 35.5764 21.4131 35.9169H11.3242C11.3242 35.4932 11.473 34.7516 11.5177 34.3581L11.6069 32.6177C11.6069 29.0461 10.5058 26.7306 10.4537 26.095C11.3614 25.6485 11.3912 25.4669 11.3912 24.4076C12.6709 24.4076 12.6858 23.2725 12.6858 22.425C13.7572 22.1677 13.4819 20.4425 13.4819 19.1258H20.2524C21.1304 19.1258 21.0188 18.3918 21.5098 17.9832C22.0455 17.5292 23.846 16.1217 24.0767 15.751C24.8207 14.5251 27.023 10.2952 27.6257 9.68982C28.3176 8.99366 28.2209 9.1904 28.6896 8.28236C29.017 8.5018 29.5824 9.1904 29.8354 9.53848C30.2148 10.053 30.4529 10.4011 30.758 11.0216C31.7698 13.0798 31.6805 14.5024 31.5764 16.712C31.5541 17.2492 31.435 17.8092 31.435 18.3994H31.4201ZM21.6884 16.4168C21.7554 16.1217 21.8298 15.6753 21.8298 15.3196C22.2687 15.3575 22.1422 15.5164 22.5514 15.6147C22.477 15.9099 22.3878 15.8796 22.1794 16.0461C21.9414 16.2428 21.986 16.2579 21.6884 16.4244V16.4168ZM6.3393 10.9232V10.6281C6.3393 10.1514 6.81547 10.5449 6.92707 10.6887C7.06844 10.8703 7.25444 11.1729 7.33628 11.3697C7.50741 11.7707 7.77525 12.6485 7.77525 13.1933C7.12796 13.0193 6.33186 11.801 6.33186 10.9232H6.3393ZM11.2424 13.1933C11.2498 12.7393 11.4879 11.9145 11.6293 11.5362C11.8004 11.1048 12.1129 10.4465 12.6114 10.4087C13.0652 11.3621 11.9418 13.0268 11.2424 13.1933ZM23.3475 14.8808C22.9532 14.6689 22.5812 14.4343 22.1943 14.2224L23.6228 11.7178C23.8758 11.2864 24.0916 10.9081 24.3371 10.4616L25.0811 9.1677L26.2343 9.82602C25.9888 10.2044 25.7284 10.666 25.5126 11.0746C25.2894 11.4983 25.029 11.9145 24.7984 12.3231L23.355 14.8883L23.3475 14.8808ZM5.26047 10.7038C5.26047 12.0583 5.93753 13.1782 6.87499 13.897C7.18004 14.1316 7.45533 14.3511 7.8571 14.4419V19.6479H6.62947C6.62947 17.7335 5.58784 16.5152 4.79918 15.3499C4.38997 14.7445 3.95844 14.0862 3.68316 13.4052C2.37369 10.1514 3.57899 6.72357 6.88987 5.54312C13.095 3.33357 18.7718 8.96339 14.2259 15.3499C13.7795 15.9704 13.3777 16.5303 13.0429 17.2265C12.8569 17.5973 12.7304 17.8697 12.5965 18.3162C12.5221 18.581 12.3956 19.315 12.3882 19.6479H11.1605V14.4419C12.9685 14.0106 14.4937 10.9308 13.4149 9.72765C12.0831 8.23696 10.1487 10.8173 10.1487 13.6322C8.988 13.7306 10.0147 13.7306 8.85408 13.6322C8.85408 12.1037 8.03566 9.31147 6.47322 9.31147C5.78129 9.31147 5.24559 9.99249 5.24559 10.7038H5.26047ZM14.7021 5.71716C15.1931 5.60366 15.8999 5.32368 16.7779 5.1118C18.9504 4.60482 22.0306 4.80156 24.0692 5.56582L25.2225 6.00471C25.096 6.48899 24.8356 6.45116 24.5901 7.48783C24.1585 9.29633 21.1825 13.3598 20.9444 14.4797L20.5054 17.2568C20.4236 17.7108 20.3789 17.7335 20.1855 18.0286H13.8464C14.1217 16.8406 16.2868 15.1305 16.7928 12.2323C17.016 10.9384 16.8969 9.46281 16.5249 8.41857C16.2571 7.66944 15.8106 6.94301 15.3047 6.36035C15.1336 6.16361 14.9773 5.9366 14.7095 5.8685V5.72473L14.7021 5.71716ZM26.8816 8.94069C26.5468 8.75908 25.8028 8.27479 25.5126 8.20669C25.5796 7.35919 26.3831 6.13334 26.8072 5.41448C27.0676 4.98317 27.2834 4.55942 27.5438 4.11297C27.7149 3.82542 28.1837 3.05359 28.2506 2.78118C28.578 2.81145 28.8905 3.08386 29.1658 3.24276C29.4931 3.42437 29.7387 3.56058 30.0511 3.73462C29.5824 4.64265 29.0616 5.47502 28.5631 6.39819L27.4099 8.37317C27.2239 8.59261 27.0453 8.69854 26.8891 8.94069H26.8816ZM30.2669 2.63741L29.1881 2.04718C29.3815 1.68397 29.5824 1.37372 29.761 1.01808C30.1255 1.21482 30.438 1.37372 30.7728 1.60073C30.6836 1.94881 30.3488 2.26663 30.2669 2.62984V2.63741ZM25.7284 5.05884C25.215 4.93776 24.3743 4.45348 22.9607 4.13567C20.1185 3.50004 17.2094 3.62868 14.5905 4.65022C13.1843 5.20261 13.958 5.11937 12.5444 4.54428C10.0222 3.52274 6.25002 3.97676 4.27093 5.88363C3.62364 6.51169 3.30371 6.76897 2.83498 7.72241C1.83055 9.75792 1.9868 12.255 2.90938 14.2754C3.09538 14.6916 3.37811 15.0926 3.62364 15.4558C3.765 15.6677 3.85428 15.8115 3.99564 16.0309C4.15189 16.2731 4.26349 16.4017 4.41229 16.6287C4.87359 17.3249 5.52832 18.2556 5.55064 19.3528C5.56552 19.9657 5.506 20.6619 5.55064 21.2597C5.58784 21.8197 5.87057 22.3039 6.3393 22.4326C6.3393 23.2952 6.38394 24.4151 7.63389 24.4151C7.63389 24.9751 7.59669 25.4064 8.05054 25.8226C8.59367 26.322 9.15913 25.9361 9.38977 26.3674L9.8585 27.8732C10.4984 30.0828 10.6769 32.421 10.3868 34.7667C10.2528 35.8337 9.80642 36.9536 10.662 36.9536H21.8298C22.7151 36.9536 22.3208 33.5106 24.8579 33.5106C25.5573 33.5106 26.0707 33.5711 26.6733 33.7149C28.8384 34.2219 30.6612 34.5246 31.0556 31.6113L31.1969 30.4384C31.2788 30.219 31.1597 30.3628 31.435 30.166C32.1418 29.6666 32.3502 28.6299 31.4053 27.79C32.8784 27.4419 31.9782 25.8907 31.9782 25.3005L33.9126 24.9221C35.6834 24.3697 34.9096 22.7504 34.2549 21.6683C33.9126 21.1008 33.5852 20.6392 33.243 20.0566C31.9335 17.8394 32.6255 18.6264 32.6255 15.8493C32.6255 13.723 32.618 12.1566 31.502 10.2498C31.1002 9.56118 30.9886 9.35687 30.4827 8.72124C30.1107 8.25209 29.5006 7.76024 29.2327 7.35162C29.5452 6.74627 31.1077 4.11297 31.1077 3.83299C31.1077 2.90982 30.8175 3.71948 31.4648 2.58444C31.993 1.6537 31.9038 1.07861 31.0184 0.548926C29.8428 -0.162368 29.2997 -0.359109 28.511 1.04835C27.5736 2.72064 28.3399 0.367319 26.584 3.63625C26.4278 3.92379 26.3162 4.09783 26.1599 4.37781C26.0037 4.64265 25.9144 4.91506 25.6986 5.08154L25.7284 5.05884Z" fill="#82C233"/>
<path fill-rule="evenodd" clip-rule="evenodd" d="M14.2032 4.25661C14.7017 4.25661 14.8431 3.71179 15.0588 3.36371C15.6392 2.39514 14.6422 1.98652 14.2106 2.72052C14.0172 3.05346 13.6675 3.55288 13.7419 3.848C13.794 4.075 13.9874 4.25661 14.2106 4.25661H14.2032Z" fill="#82C233"/>
<path fill-rule="evenodd" clip-rule="evenodd" d="M0.00744018 6.67033C0.00744018 7.13191 0.171124 7.17732 0.535693 7.38162C0.714257 7.47999 1.13835 7.77511 1.30203 7.77511C1.71124 7.77511 2.37342 7.17732 1.34667 6.62493C1.00442 6.44332 0.82586 6.23145 0.43153 6.23145C0.260406 6.23145 0 6.49629 0 6.67033H0.00744018Z" fill="#82C233"/>
<path fill-rule="evenodd" clip-rule="evenodd" d="M3.82373 2.78922C3.82373 3.19784 3.89069 3.20541 4.19574 3.72753C4.84303 4.84744 5.33409 3.87887 5.33409 3.81076C5.33409 3.49295 4.72399 2.34277 4.39662 2.34277C4.01718 2.34277 3.82373 2.59248 3.82373 2.78166V2.78922Z" fill="#82C233"/>
<path fill-rule="evenodd" clip-rule="evenodd" d="M17.6631 7.76729C17.797 7.76729 19.0321 7.32084 19.0321 6.73819C19.0321 6.45821 18.8089 6.22363 18.5262 6.22363C18.2732 6.22363 17.6036 6.65495 17.4325 6.79115C16.9786 7.16194 17.2093 7.75973 17.6631 7.75973V7.76729Z" fill="#82C233"/>
<path fill-rule="evenodd" clip-rule="evenodd" d="M9.01741 1.46256C9.01741 2.60517 8.87605 2.93055 9.66471 2.93055C10.1781 2.93055 10.0218 1.99225 10.0218 1.31879C10.0218 0.849636 9.00997 0.728564 9.00997 1.46256H9.01741Z" fill="#82C233"/>
</svg>
