<svg width="36" height="39" viewBox="0 0 36 39" fill="none" xmlns="http://www.w3.org/2000/svg">
<path fill-rule="evenodd" clip-rule="evenodd" d="M9.73233 3.18381C9.92207 3.13637 11.2266 2.47226 12.0014 2.21137C13.9541 1.56307 14.7843 1.39704 16.745 1.29427C17.0849 1.27845 17.1166 1.21521 17.496 1.21521L19.7967 1.41286C20.0734 1.46029 20.2632 1.51563 20.5162 1.52354C20.4608 2.21137 20.3738 3.07312 20.2315 3.65026C19.8204 5.35006 19.0852 5.26309 17.2035 5.45284C15.9069 5.58724 15.82 6.85221 14.8554 6.5834C13.0845 6.09323 14.9187 4.13253 11.7326 3.65817C10.8708 3.53167 10.1118 3.76095 9.72442 3.1759L9.73233 3.18381ZM0 16.9087C0 19.9288 0.347865 21.8341 1.42309 24.4589C1.63655 24.9807 2.15835 25.803 2.26113 26.2615C2.74339 26.1508 2.93314 25.8425 3.39169 25.7318C3.32844 25.4709 2.26113 23.4312 1.84211 21.929C1.4389 20.5059 1.20962 18.9168 1.20962 17.13C1.4389 17.2961 1.94488 18.0946 2.32437 18.4345C2.84617 18.9089 4.7199 18.8931 5.7635 19.8972C6.06393 20.1818 6.04811 20.2766 6.04021 20.8222C6.0323 21.4309 6.15089 21.51 6.19042 21.9527C6.45923 21.8262 7.0759 21.6523 7.40005 21.5732C7.0759 20.1739 7.81116 19.1856 4.86221 17.9286C3.30472 17.2724 3.47865 17.9365 2.71177 16.9877C2.55365 16.798 1.4468 15.201 1.4468 15.0824C1.4468 13.5644 2.53784 11.0424 3.25729 9.65094C3.66049 8.87615 4.1902 8.1567 4.70409 7.47678C5.07567 6.9787 6.01649 5.90348 6.50666 5.57933C6.79919 5.6584 7.06799 5.95092 7.32889 6.10904C8.66501 6.90755 8.36458 6.43319 9.34493 6.81268C10.4281 7.22379 9.75604 7.99067 10.0565 8.8129C10.1751 9.13705 10.3253 9.41376 10.6099 9.61932C11.1396 10.0067 11.7167 10.3783 12.0883 10.9317C11.1633 11.999 9.23425 10.9712 7.39214 12.1255C5.97696 13.0031 7.54235 13.8253 5.14683 13.8807C4.52225 13.8965 4.09532 13.8886 3.6684 14.3629C3.04382 15.0587 2.90151 16.8929 4.38785 16.8929C4.68828 16.8929 5.24961 16.7585 5.44726 16.6636C5.53422 16.8454 5.58956 17.1142 5.68444 17.3356C6.36436 18.9326 7.17868 18.7666 8.18274 18.5689C11.5586 17.9206 12.0014 20.0157 13.3059 20.8775C13.63 21.091 14.3732 21.4151 14.8792 21.4151C15.1717 21.4151 15.0926 21.1779 15.1242 20.9012C15.148 20.664 15.1796 20.5375 15.1796 20.2055C14.1518 20.1185 13.6853 19.6284 13.124 18.9405C12.9343 18.7033 12.8315 18.5452 12.5864 18.3476C10.9261 17.0668 9.26587 17.0194 7.26564 17.4858C6.87825 16.9087 6.84662 17.0194 6.67269 16.1971C6.39598 14.8926 5.08358 15.5488 4.47481 15.6042C4.49853 15.3196 4.5855 15.2484 4.70409 15.0745C5.97696 15.0745 7.18658 15.1614 7.70047 14.1495C8.1274 13.3193 7.55026 13.011 9.47143 12.758C10.183 12.6631 11.0605 12.7659 11.7167 12.592C12.5232 12.3864 13.2979 11.8093 13.2979 10.8527C13.2979 9.61141 11.5033 9.01846 11.2582 8.44132C10.8787 7.53212 11.8274 6.35413 9.66908 5.57933C9.01288 5.34215 8.58595 5.45284 7.95347 5.02591C7.74001 4.8836 7.71629 4.79664 7.48701 4.7413C7.66094 4.4804 8.3883 4.03766 8.69664 3.84001C9.74023 5.4054 11.5586 4.41715 12.5073 5.16032C12.7445 5.34215 12.7524 6.35413 13.2821 6.94708C13.7091 7.42935 14.4127 7.83255 15.1875 7.83255C16.3813 7.83255 16.4841 7.07357 17.1798 6.73362C17.5435 6.55968 18.1918 6.65455 18.6029 6.57549C19.8837 6.3225 20.8561 5.7928 21.2909 4.51202C21.5439 3.76095 21.7495 2.7806 21.7495 1.80816C22.129 1.83978 23.2358 2.26671 23.5679 2.40111C24.1766 2.6462 24.6668 2.88338 25.2202 3.168C25.6946 3.41308 26.2955 3.76885 26.7145 4.08509C26.9596 4.26693 27.173 4.40924 27.4181 4.59108C27.6553 4.77292 27.9241 4.8836 28.0111 5.20775C27.4735 5.33425 26.9279 5.67421 26.4773 5.93511C24.5087 7.09729 25.8132 7.48469 25.4495 9.05008C24.5008 9.05008 23.8604 9.50863 23.4414 10.0621C22.6271 11.1373 23.2595 12.8608 22.3662 13.5881C21.457 14.3313 20.5557 15.1693 21.1565 16.5055C21.457 17.1696 22.0736 17.6202 22.7298 17.9523C24.8645 19.0117 26.6987 18.5689 27.1335 19.739C27.1809 19.8576 27.2442 20.9249 27.26 21.1226C27.2995 21.6128 27.4497 22.0476 27.4814 22.4824C27.8134 22.4034 28.3273 22.2848 28.691 22.2532L28.3273 19.3754C28.0901 18.6164 27.3786 18.0788 26.667 17.7942C26.1611 17.5886 26.0741 17.5649 25.3863 17.4937C24.904 17.4463 24.485 17.3198 24.0581 17.1617C23.6074 16.9877 23.2991 16.885 22.9275 16.632C21.4016 15.5963 22.7694 15.0191 23.5046 14.2048C24.6984 12.8766 23.4414 10.6155 25.323 10.2913C26.2717 10.1332 26.7224 9.79325 26.7224 8.74965C26.7224 8.1567 26.6512 7.8958 26.6512 7.31866C26.8647 7.20798 26.9596 7.12892 27.1651 7.00242C27.3628 6.87592 27.5288 6.79686 27.7423 6.67037C27.9004 6.57549 28.8649 6.10904 28.9914 6.10904C29.363 6.10904 30.628 7.87208 30.881 8.21995C32.731 10.821 33.822 14.1653 33.822 17.4226C33.822 18.1341 33.7271 18.9168 33.6639 19.6046C33.5453 20.8933 33.1263 22.2769 32.6835 23.447C32.478 23.9925 32.0669 24.5617 31.9404 25.1151L33.0709 25.6448C33.1974 25.0835 33.5769 24.5696 33.7904 24.032C35.5218 19.6916 35.4902 14.2364 33.3951 10.0858C32.6993 8.69431 31.9404 7.39772 30.9363 6.21182L29.9243 5.11288C29.2128 4.39343 28.4617 3.75304 27.6316 3.18381C27.1888 2.88338 26.8173 2.6462 26.3429 2.36158C25.4337 1.81606 24.4771 1.39704 23.473 1.00965C18.8638 -0.761302 12.871 -0.12882 8.79151 2.32996C7.92184 2.85175 7.0838 3.42099 6.2932 4.05347C4.81477 5.24728 3.33635 6.98661 2.43506 8.63897C1.11475 11.0661 0.0474362 13.5802 0.0474362 16.885L0 16.9087Z" fill="#FF6D6D"/>
<path fill-rule="evenodd" clip-rule="evenodd" d="M15.3141 29.5822H19.6861C21.0618 29.5822 21.8524 30.1435 22.4374 30.9816C23.0699 31.8987 22.9355 33.219 22.9355 34.7132C22.39 34.8397 22.224 35.156 20.453 35.3932C18.1524 35.7094 14.8872 35.7568 12.6656 34.9425C12.4126 34.8476 12.3256 34.7686 12.0726 34.7053C12.0726 33.2427 11.9303 31.9303 12.5391 31.0211C13.1083 30.1673 13.9147 29.5743 15.3141 29.5743V29.5822ZM14.484 25.3604C14.484 24.9967 14.6421 24.4117 14.7607 24.1271C15.7489 21.8343 19.1327 21.7473 20.2158 24.0717C21.6389 27.1393 17.7096 29.8194 15.3694 27.4871C14.8635 26.9811 14.484 26.1036 14.484 25.3604ZM13.2743 25.1311C13.2743 25.9692 13.3139 26.404 13.6538 27.1709C13.9226 27.7717 14.1993 27.9536 14.484 28.3805C14.3179 28.4596 14.0096 28.4991 13.7724 28.5782C12.1596 29.1079 10.863 30.6495 10.863 32.381C10.863 35.4011 10.357 35.7015 13.2269 36.4209C15.4327 36.9744 19.4885 36.9902 21.7022 36.4367C24.6432 35.7015 24.1293 35.4248 24.1293 32.381C24.1293 30.6733 22.8406 29.1237 21.2752 28.6019C21.0934 28.5386 20.6586 28.4596 20.5084 28.3884C20.7693 28.001 20.9985 27.8666 21.3148 27.2341C21.6626 26.5384 21.718 25.9296 21.718 25.1469C21.718 23.0914 19.781 21.1465 17.7175 21.1465H17.2669C15.2113 21.1465 13.2664 23.0914 13.2664 25.1469L13.2743 25.1311Z" fill="#FF6D6D"/>
<path fill-rule="evenodd" clip-rule="evenodd" d="M24.137 27.1703C24.137 26.8066 24.2952 26.2215 24.4138 25.9369C25.402 23.6442 28.7858 23.5572 29.8689 25.8816C30.2405 26.688 30.2326 27.5497 29.9164 28.3403C28.9518 30.7201 25.4415 30.7754 24.4138 28.3957C24.2952 28.1111 24.137 27.526 24.137 27.1623V27.1703ZM28.011 38.634H26.2717C25.323 38.6024 24.4217 38.5233 23.6864 38.3968C22.4926 38.1913 22.121 37.9541 21.4885 37.8039C21.5281 37.2821 21.8364 37.0528 21.9392 36.5942C23.7497 37.5509 27.758 37.5192 30.0903 37.203C31.8612 36.9579 32.0273 36.6496 32.5728 36.5152C32.5728 34.76 32.8179 33.7876 31.8533 32.4831C30.9758 31.2972 29.5369 31.3842 28.2719 31.3842C26.2875 31.3842 25.6629 31.3684 24.5007 30.4829C23.4176 29.6527 22.9195 28.5143 22.9195 26.9331C22.9195 24.8775 24.8644 22.9326 26.92 22.9326H27.3706C29.4341 22.9326 31.3711 24.8775 31.3711 26.9331C31.3711 28.9412 30.8651 29.123 30.1614 30.1745C30.3117 30.2457 30.7465 30.3327 30.9283 30.388C32.5016 30.9098 33.7824 32.4673 33.7824 34.1671C33.7824 37.203 34.2963 37.5034 31.3553 38.2229C30.4461 38.4443 29.2443 38.5707 28.0031 38.6103L28.011 38.634Z" fill="#FF6D6D"/>
<path fill-rule="evenodd" clip-rule="evenodd" d="M4.83046 27.171C4.83046 26.8074 4.98858 26.2223 5.10717 25.9377C5.86615 24.1826 8.27749 23.4868 9.93776 25.0048C11.8115 26.7125 10.6177 30.1911 7.85057 30.1911C6.22983 30.1911 4.83046 28.7997 4.83046 27.171ZM8.45143 38.6348H7.02043C5.77919 38.6348 1.2095 38.1762 1.2095 36.8243C1.2095 34.7213 0.916978 32.9583 2.35588 31.4877C3.52597 30.2939 4.37191 30.4046 4.83046 30.1911C4.13473 29.1555 3.62084 28.9736 3.62084 26.9497C3.62084 24.8941 5.56572 22.9492 7.62129 22.9492H8.07194C11.8273 22.9492 13.5983 28.1514 10.4437 30.5232C7.85847 32.4681 4.79884 30.2465 3.10695 32.5392C2.17404 33.8042 2.41912 34.8399 2.41912 36.5239C2.67212 36.5871 2.75908 36.6662 3.01208 36.7611C5.57363 37.7019 11.092 37.6386 13.0527 36.6029C13.1555 37.0536 13.4639 37.2829 13.5034 37.8126C13.1081 37.9074 12.8867 38.0418 12.4203 38.1604C10.7758 38.5636 9.79545 38.6348 8.45143 38.6427V38.6348Z" fill="#FF6D6D"/>
</svg>
