<svg width="35" height="38" viewBox="0 0 35 38" fill="none" xmlns="http://www.w3.org/2000/svg">
<path fill-rule="evenodd" clip-rule="evenodd" d="M29.2397 2.63019L30.0934 3.4454L31.4931 2.08416C31.5085 5.4065 31.5085 8.71347 31.5085 12.0204C31.5085 15.1582 31.6777 18.9881 31.4392 21.9413C31.2162 24.7561 30.7086 26.9402 29.0321 29.4474C27.9554 31.0624 26.8787 32.1929 25.3944 33.3004C24.9099 33.6618 24.4485 33.9925 23.8947 34.3002C21.7337 35.5076 19.6957 36.1228 17.2039 36.2459C16.1887 36.2997 16.1503 36.3689 14.866 36.2382C12.3973 35.9844 10.4208 35.223 8.33663 33.9848C7.35992 33.408 6.3909 32.5928 5.59877 31.8007L4.43749 30.4625C3.31466 29.0244 2.39947 27.2786 1.87651 25.5252C0.815205 21.9567 1.069 17.6038 2.88398 14.3661C3.00703 14.143 3.08394 13.9585 3.21468 13.7124C4.23753 11.8051 5.97561 10.0132 7.72907 8.7673C7.91365 8.63656 8.06746 8.54428 8.28279 8.41354C9.89013 7.4599 10.9899 6.90617 12.9818 6.45243C13.5662 6.32169 13.9662 6.25247 14.6045 6.18326C15.0582 6.12942 15.8657 6.04483 16.3579 6.04483V4.8374C11.9358 4.8374 7.89826 6.52164 4.79125 9.62865C3.51461 10.9053 2.32257 12.4896 1.53812 14.2507C0.323006 16.9655 0 18.619 0 21.726C0 23.5564 0.392221 25.0868 0.938255 26.6941C2.39947 30.9855 5.45265 34.0233 9.36717 35.9844C13.1894 37.8994 18.2345 38.0839 22.2413 36.4689C23.0334 36.1536 23.6871 35.8537 24.41 35.4537C24.7715 35.2538 25.056 35.0615 25.3867 34.8385C29.855 31.8545 32.7159 26.9095 32.7159 21.3492V2.11492L34.1002 3.46078L35.0077 2.59174C34.1848 2.02263 32.7005 0 32.1083 0C31.693 0 31.0393 0.807515 30.6163 1.2305C30.2549 1.59196 29.4781 2.2918 29.232 2.65326L29.2397 2.63019Z" fill="#50AB89"/>
<path fill-rule="evenodd" clip-rule="evenodd" d="M6.9061 13.5281L8.7057 11.69C9.22867 11.8362 10.9667 13.1436 11.3743 13.1436L12.6894 12.5668C14.3429 11.8285 14.1814 12.536 14.6506 10.6595C14.7428 10.2903 15.0043 9.45207 15.012 9.05215H17.7345C17.7422 9.32133 18.2575 11.7593 18.6266 12.0207C18.7035 12.0746 20.1109 12.5283 20.6877 12.8359C21.5183 13.282 21.2568 13.2974 22.7103 12.436C23.0103 12.2515 23.7332 11.7669 24.0177 11.7054L25.8558 13.505C25.725 13.9665 24.3946 15.843 24.3946 16.0968C24.3946 16.3736 24.5253 16.5813 24.633 16.7658C24.7868 17.0196 24.8175 17.1504 24.9483 17.4349L25.4789 18.8731C25.7558 19.3037 28.2245 19.8036 28.4783 19.8113V22.5338C28.1091 22.5415 26.6864 22.9491 26.148 23.0798C25.1482 23.3182 25.5097 23.672 25.0021 24.8102C24.0408 26.9482 24.1331 25.5331 25.8327 28.7478L23.9562 30.6628C23.5947 30.4167 21.6721 29.2093 21.3645 29.2093C21.0645 29.2093 20.3493 29.6476 20.0494 29.7937C18.3267 30.6013 18.5958 29.6784 18.0883 31.6933C17.996 32.0625 17.7345 32.9008 17.7268 33.3007H15.0043C14.9966 32.9315 14.589 31.5088 14.4583 30.9704C14.2199 29.9783 13.8738 30.3321 12.7279 29.8245C11.1975 29.14 11.7204 28.8863 10.0669 29.886C9.63627 30.1475 9.1979 30.3859 8.7903 30.6551L6.87534 28.7786C7.12144 28.3325 7.40599 27.9019 7.65209 27.4789C8.4673 26.1176 8.48268 26.2868 8.04431 25.487C7.14451 23.8566 7.6444 23.3875 6.64462 23.1029C6.11397 22.9491 4.66813 22.5492 4.24515 22.5492V19.8267C4.63737 19.819 5.37567 19.5806 5.79096 19.4806C7.22911 19.1192 7.19065 19.2191 7.45982 18.2732C7.53673 18.0117 7.63671 17.7733 7.73669 17.5657C8.53651 15.7584 8.67494 16.5813 7.26756 14.2433L6.9061 13.5512V13.5281ZM8.64418 10.275C8.20581 10.275 7.29832 11.3516 6.92148 11.7285C5.24493 13.405 5.17571 13.1666 5.90632 14.3741C7.32139 16.7197 7.03684 15.843 6.53695 17.1734C6.0832 18.3809 6.60617 17.9656 3.79909 18.6731C3.40687 18.7731 3.04541 18.8654 3.04541 19.3576V22.9876C3.04541 23.895 5.06804 23.8028 6.04475 24.2257C6.33699 24.3565 6.34469 24.6487 6.53695 25.1717C7.02146 26.4714 7.33677 25.6024 5.93708 27.9249C5.16802 29.1939 5.23724 28.9324 6.92917 30.6166C8.82106 32.5085 8.26734 32.4162 10.4745 31.0935C11.7435 30.3321 11.1129 30.532 12.3741 31.0012C13.5662 31.4472 13.1586 30.8858 13.8738 33.739C13.9738 34.1313 14.0661 34.4927 14.5583 34.4927H18.1959C18.8727 34.4927 18.9265 33.5391 19.1496 32.647C19.4187 31.5703 19.288 31.4165 19.7725 31.2242C21.7182 30.4398 21.1107 30.3936 22.1874 31.0396C24.1638 32.2163 24.0254 32.4239 24.9944 31.4472C27.8246 28.6017 27.7015 29.4015 26.3018 27.0713C25.5712 25.8562 25.6789 26.556 26.3941 24.6718C26.6018 24.1181 26.5479 24.2719 27.8015 23.9566C28.7321 23.7259 29.7088 23.672 29.7088 22.9876V19.3576C29.7088 18.4501 27.6861 18.5424 26.7094 18.1194C26.4172 17.9887 26.4095 17.6964 26.2172 17.1734C25.7327 15.8737 25.4174 16.7428 26.8171 14.4202C27.5862 13.1513 27.517 13.4127 25.825 11.7285C23.9331 9.8366 24.5176 9.9135 22.2796 11.2517C21.0645 11.9823 21.7721 11.8746 19.8802 11.1594C19.3264 10.9517 19.4726 11.0056 19.1649 9.752C18.9342 8.82143 18.8804 7.84473 18.1959 7.84473H14.5583C13.6508 7.84473 13.7431 9.85198 13.3201 10.8441C13.2278 11.0594 13.1816 11.0594 12.9432 11.1517C10.8745 11.9438 11.7512 12.0207 9.62089 10.7364C9.39017 10.598 8.94411 10.2673 8.65187 10.2673L8.64418 10.275Z" fill="#50AB89"/>
<path fill-rule="evenodd" clip-rule="evenodd" d="M10.3131 21.1727C10.3131 17.3659 14.0123 14.3973 17.7115 15.2894C19.9726 15.8354 21.7106 17.5658 22.2567 19.8346C23.2795 24.0952 19.2881 28.0866 15.0198 27.0638C13.151 26.6177 11.6744 25.3795 10.8592 23.6491C10.69 23.2877 10.5592 22.8877 10.4746 22.5186C10.4054 22.2187 10.3054 21.4881 10.3054 21.1727H10.3131ZM9.10571 20.8728C9.10571 22.7416 9.56715 24.5412 10.79 25.8486L11.2053 26.3408C12.3819 27.5175 14.32 28.4404 16.0657 28.4404C17.9345 28.4404 19.7265 27.9866 21.0416 26.7561L21.5338 26.3408C22.672 25.2026 23.6333 23.2261 23.6333 21.5496C23.6333 20.1653 23.5564 19.2885 22.9488 18.0657C22.7412 17.6427 22.5874 17.3505 22.3105 16.966C21.6491 16.0431 21.6953 16.22 21.0723 15.6278C20.9031 15.4663 20.7647 15.3663 20.5647 15.2279C20.1802 14.951 19.8803 14.7972 19.465 14.5896C17.0117 13.3821 13.5817 13.8205 11.6821 15.597C10.7746 16.443 10.3977 16.7968 9.76711 18.0734C9.41334 18.7886 9.09033 19.8115 9.09033 20.8728H9.10571Z" fill="#50AB89"/>
</svg>
