<svg width="35" height="39" viewBox="0 0 35 39" fill="none" xmlns="http://www.w3.org/2000/svg">
<path fill-rule="evenodd" clip-rule="evenodd" d="M1.25242 21.3135H8.56854C8.56854 22.5889 9.0302 23.8565 9.48403 24.7172C10.0474 25.797 10.5091 26.3604 11.3228 27.1898C14.2336 30.1397 18.9285 30.4058 22.4496 28.1836C22.8174 27.9488 23.3416 27.5341 23.6468 27.2211C25.1648 25.6875 26.4402 23.6452 26.4402 21.3056H33.7563V22.5419L31.9097 23.2305C30.3604 23.8408 31.3385 23.8721 30.0631 26.4699C29.0224 28.5748 28.9676 27.8706 29.7579 29.6311C29.9144 29.9754 30.2117 30.5858 30.2978 30.9379L27.7 33.4966C27.3088 33.2775 25.4152 32.4011 25.0631 32.4011C24.8283 32.4011 23.6546 33.0662 23.3416 33.2227C20.29 34.7642 20.7282 33.1523 19.7188 35.9926C19.6014 36.3213 19.4293 36.6499 19.3588 36.9473H15.6577C15.5873 36.6577 15.4308 36.3682 15.3213 36.0552C14.2806 33.121 14.7657 34.7876 11.7297 33.254C11.4324 33.1053 11.1742 32.9801 10.8534 32.8158C9.6953 32.2289 10.1961 32.2524 8.61549 32.9097C8.1773 33.0897 7.72347 33.2775 7.34006 33.4809L4.74225 30.9222C4.87527 30.2415 5.79859 28.7704 5.79859 28.2462C5.79859 27.941 5.54037 27.628 5.41517 27.4011L4.97699 26.5247C3.3338 23.1131 5.07089 24.0521 2.20704 22.894C1.93317 22.7845 1.50281 22.6045 1.25242 22.5419V21.3056V21.3135ZM9.80485 21.3135H25.2117C24.93 22.5263 25.0318 22.9253 24.3745 24.1773C24.1632 24.5842 23.9207 24.9676 23.6703 25.3197C21.6984 28.0584 17.6061 29.2321 14.4527 27.761C13.6233 27.3776 12.8721 26.916 12.2149 26.3056C12.0505 26.1491 11.9097 26.0161 11.7689 25.8283C10.7986 24.5842 10.2587 23.7704 9.94569 22.1038C9.91439 21.9316 9.88309 21.4621 9.81267 21.3135H9.80485ZM0.023938 20.5388V23.0036C0.023938 23.4027 0.24303 23.52 0.548195 23.6296C0.869008 23.7391 2.75477 24.3807 2.89561 24.592C2.89561 24.592 3.65461 26.8064 3.97542 27.4402C4.42926 28.3479 4.68747 27.941 3.8737 29.6233C2.98951 31.4465 3.09906 31.0396 5.12566 33.074C7.29311 35.2415 6.7219 35.1241 8.52159 34.3494C9.94569 33.7391 9.65618 33.5905 10.6264 34.1304C11.448 34.592 12.3557 34.9128 13.2712 35.1867C13.8581 35.3588 13.7172 35.351 14.2102 36.7125C14.5232 37.5576 14.6327 38.1914 15.1961 38.1914H19.8205C20.3995 38.1914 20.4778 37.5967 20.7908 36.7751C20.916 36.4387 21.0177 36.1883 21.135 35.8831C21.5263 34.8737 21.2524 35.5545 23.4668 34.592C23.772 34.459 24.0145 34.3494 24.3041 34.193C25.3291 33.653 24.9144 33.6452 26.448 34.3338C28.3729 35.2023 27.7313 35.2415 30.8142 32.1585C31.8315 31.1413 31.9566 31.3291 31.1663 29.6859C30.3135 27.9097 30.5169 28.5905 31.3698 26.7047C32.5513 24.0991 31.3307 24.8033 33.5138 23.9973C33.8033 23.8878 34.0615 23.7704 34.4058 23.653C34.7501 23.5357 34.9926 23.434 34.9926 23.0036V20.5388C34.9926 20.351 34.7188 20.0771 34.531 20.0771H0.477772C0.289979 20.0771 0.0161133 20.351 0.0161133 20.5388H0.023938Z" fill="#842B82"/>
<path fill-rule="evenodd" clip-rule="evenodd" d="M6.02551 14.076C7.48873 14.076 8.41205 14.389 9.39797 15.2497C9.83615 15.6331 9.96135 15.7348 10.3369 16.3061C10.556 16.6425 10.9081 17.2685 10.9551 17.7693H1.4011C1.84711 15.8679 3.68592 14.0682 6.02551 14.0682V14.076ZM6.26025 12.7693C5.5482 12.7693 5.12567 12.5971 4.65618 12.1355C3.74852 11.2435 3.84241 9.75676 4.69531 8.97428C5.29781 8.41873 6.19765 8.21528 7.05055 8.58305C7.80172 8.90386 8.34945 9.60809 8.35728 10.5471C8.37293 11.7755 7.44179 12.7693 6.25243 12.7693H6.26025ZM2.71565 10.6097C2.71565 12.0338 3.40423 12.5345 3.87371 13.2309C3.56855 13.3718 3.459 13.3953 3.14601 13.583C2.27747 14.1151 1.98795 14.3186 1.31502 15.1402C0.962912 15.5705 -1.16541 19.0917 0.869016 19.0917H11.5028C12.5513 19.0917 12.4496 18.3953 12.254 17.5737C11.8315 15.7896 10.603 14.2325 8.99108 13.4422C8.79546 13.3483 8.67027 13.317 8.49813 13.2388C8.62332 13.051 8.74069 12.9649 8.88154 12.7771C11.5811 9.27162 6.78451 5.10887 3.69374 8.20746C3.16949 8.73172 2.71565 9.59244 2.71565 10.6175V10.6097Z" fill="#842B82"/>
<path fill-rule="evenodd" clip-rule="evenodd" d="M32.2149 5.1406H33.7564V17.7775H32.2149V5.1406ZM30.9082 4.6007V18.3879C30.9082 18.9356 31.3542 19.0843 31.9098 19.0843C32.794 19.0843 34.9927 19.3268 34.9927 18.5444V4.52245C34.9927 4.14686 34.7501 3.9043 34.3746 3.9043H31.4481C31.1664 3.9043 30.9082 4.27988 30.9082 4.6007Z" fill="#842B82"/>
<path fill-rule="evenodd" clip-rule="evenodd" d="M29.5232 0.672251C29.5232 1.25911 30.1492 1.21216 30.7595 1.21216L29.3119 2.54236C29.1398 2.71451 28.999 2.88665 28.8112 3.04314C26.1508 5.26537 27.7392 5.148 23.9442 3.55958C23.4356 3.34831 23.0365 3.18399 22.5436 2.9649C20.8143 2.19807 20.9473 2.13548 19.8831 2.98055C19.3119 3.43438 14.6171 6.90073 14.4058 7.21372C14.2806 7.40934 14.265 7.55019 14.3432 7.76145C14.6641 8.59088 15.4935 7.92577 15.7986 7.68321C16.049 7.47976 16.2759 7.32327 16.5498 7.11983L19.531 4.8663C21.5185 3.37961 20.3448 3.46568 23.9285 4.96803L26.855 6.20433C27.3871 6.28258 28.6312 4.85066 29.1633 4.40465C29.398 4.20903 29.4763 4.16208 29.6954 3.94299C29.9301 3.70042 30.0162 3.64565 30.2666 3.4422C30.6656 3.11357 30.9473 2.7458 31.3698 2.46411C31.3698 4.01341 32.4497 3.52828 32.6218 2.871C32.7 2.58149 32.7783 2.112 32.8331 1.77554C33.1617 -0.211943 33.4982 0.00714957 30.1335 0.00714957C29.7188 0.00714957 29.5154 0.28884 29.5154 0.70355L29.5232 0.672251Z" fill="#842B82"/>
<path fill-rule="evenodd" clip-rule="evenodd" d="M20.2039 8.91122H21.7454V17.7688H20.2039V8.91122ZM18.8972 8.29307V18.387C18.8972 18.9347 19.3432 19.0834 19.8988 19.0834C20.783 19.0834 22.9817 19.3259 22.9817 18.5435V8.22265C22.9817 7.84706 22.7392 7.60449 22.3636 7.60449H19.4371C19.1554 7.60449 18.8972 7.98008 18.8972 8.30089V8.29307Z" fill="#842B82"/>
<path fill-rule="evenodd" clip-rule="evenodd" d="M26.2132 10.837H27.7547V17.7697H26.2132V10.837ZM24.9065 10.2188V18.3879C24.9065 18.9356 25.3525 19.0843 25.9081 19.0843C26.7923 19.0843 28.991 19.3268 28.991 18.5444V10.1484C28.991 9.77284 28.7484 9.53027 28.3728 9.53027H25.4464C25.1647 9.53027 24.9065 9.90586 24.9065 10.2267V10.2188Z" fill="#842B82"/>
<path fill-rule="evenodd" clip-rule="evenodd" d="M14.1944 13.6142H15.7359V17.777H14.1944V13.6142ZM12.8877 12.9961V18.3873C12.8877 18.9351 13.3337 19.0837 13.8893 19.0837C14.7735 19.0837 16.9722 19.3263 16.9722 18.5438V12.9961C16.9722 12.6205 16.7296 12.3779 16.354 12.3779H13.5058C13.1303 12.3779 12.8877 12.6205 12.8877 12.9961Z" fill="#842B82"/>
</svg>
