<svg width="20" height="21" viewBox="0 0 20 21" fill="none" xmlns="http://www.w3.org/2000/svg">
<path d="M19.6298 8.21912C19.5123 8.10145 19.3728 8.00811 19.2193 7.94442C19.0657 7.88073 18.9011 7.84794 18.7348 7.84794C18.5686 7.84794 18.404 7.88073 18.2504 7.94442C18.0969 8.00811 17.9574 8.10145 17.8399 8.21912L17.2077 8.85135L15.1731 10.8859V4.7418C15.1713 4.72814 15.1686 4.71462 15.1649 4.70133C15.1633 4.68811 15.1607 4.67501 15.1573 4.66214C15.145 4.60836 15.1186 4.55883 15.0808 4.51862L10.6551 0.0929392C10.6152 0.0550311 10.5659 0.0284131 10.5122 0.015806C10.4996 0.0123949 10.4867 0.00985994 10.4737 0.00821912C10.46 0.00451498 10.446 0.00176864 10.432 0L1.5806 0C1.1614 0 0.759367 0.166527 0.462947 0.462947C0.166527 0.759367 0 1.1614 0 1.5806V18.6511C0 19.0703 0.166527 19.4723 0.462947 19.7687C0.759367 20.0651 1.1614 20.2317 1.5806 20.2317H13.5932C13.8007 20.2317 14.0063 20.1908 14.198 20.1114C14.3898 20.0319 14.564 19.9155 14.7108 19.7687C14.8576 19.622 14.974 19.4477 15.0534 19.2559C15.1329 19.0642 15.1738 18.8586 15.1738 18.6511V14.4631L18.9963 10.6406L19.6285 10.0084C19.7462 9.891 19.8395 9.75161 19.9033 9.59815C19.967 9.44469 19.9999 9.28017 20 9.114C20.0001 8.94782 19.9675 8.78326 19.904 8.62971C19.8404 8.47616 19.7473 8.33663 19.6298 8.21912ZM10.7481 1.07923L14.0945 4.42568H11.6964C11.4449 4.42568 11.2037 4.32576 11.0258 4.14791C10.848 3.97006 10.7481 3.72884 10.7481 3.47732V1.07923ZM10.4427 4.42568H2.84508C2.76124 4.42568 2.68083 4.39237 2.62155 4.33309C2.56226 4.2738 2.52896 4.1934 2.52896 4.10956V2.84508C2.52896 2.76124 2.56226 2.68083 2.62155 2.62155C2.68083 2.56226 2.76124 2.52896 2.84508 2.52896H10.1158V3.47732C10.1178 3.82073 10.2327 4.15397 10.4427 4.42568ZM14.544 18.6511C14.544 18.9026 14.4441 19.1438 14.2663 19.3217C14.0884 19.4995 13.8472 19.5994 13.5957 19.5994H1.58313C1.33161 19.5994 1.09039 19.4995 0.912537 19.3217C0.734685 19.1438 0.634769 18.9026 0.634769 18.6511V1.5806C0.634768 1.32952 0.734337 1.08868 0.911642 0.9109C1.08895 0.733121 1.32952 0.632909 1.5806 0.63224H10.1158V1.89672H2.84508C2.59356 1.89672 2.35234 1.99664 2.17449 2.17449C1.99663 2.35234 1.89672 2.59356 1.89672 2.84508V4.10956C1.89672 4.36108 1.99663 4.6023 2.17449 4.78015C2.35234 4.958 2.59356 5.05792 2.84508 5.05792H14.5415V11.5188L10.9118 15.1485C10.8976 15.1656 10.8853 15.1843 10.8752 15.2041C10.8688 15.2142 10.8581 15.2199 10.853 15.2307L9.95904 17.0186C9.93356 17.0725 9.92407 17.1325 9.93169 17.1915C9.93931 17.2506 9.96372 17.3062 10.002 17.3518L9.60878 17.7489C9.57641 17.7776 9.55029 17.8127 9.53203 17.852C9.51378 17.8912 9.50379 17.9338 9.50268 17.9771C9.50157 18.0204 9.50936 18.0634 9.52557 18.1036C9.54178 18.1437 9.56606 18.1801 9.59692 18.2105C9.62777 18.2409 9.66453 18.2646 9.70493 18.2802C9.74532 18.2957 9.78849 18.3029 9.83174 18.3011C9.875 18.2993 9.91743 18.2886 9.9564 18.2698C9.99538 18.2509 10.0301 18.2242 10.0583 18.1914L10.4408 17.8045L10.4648 17.8285C10.5117 17.8755 10.5722 17.9064 10.6376 17.9171C10.7031 17.9278 10.7703 17.9176 10.8296 17.888L12.6176 16.9933C12.6284 16.9883 12.634 16.9775 12.6442 16.9712C12.664 16.9611 12.6827 16.9488 12.6998 16.9345L14.5415 15.0935L14.544 18.6511ZM11.2248 15.9059L11.9455 16.6266L10.7538 17.2228L10.6684 17.1369V17.1331H10.6646L10.6317 17.1002L11.2248 15.9059ZM14.6389 14.1078L12.4817 16.2644L11.5807 15.3723L17.4302 9.52279L18.3242 10.4168L14.6389 14.1078ZM19.1866 9.5601L18.7769 9.96979L17.8823 9.07517L18.292 8.66548C18.3507 8.60674 18.4204 8.56014 18.4972 8.52835C18.5739 8.49656 18.6562 8.4802 18.7393 8.4802C18.8223 8.4802 18.9046 8.49656 18.9813 8.52835C19.0581 8.56014 19.1278 8.60674 19.1866 8.66548C19.2453 8.72422 19.2919 8.79395 19.3237 8.8707C19.3555 8.94745 19.3719 9.02971 19.3719 9.11279C19.3719 9.19586 19.3555 9.27812 19.3237 9.35487C19.2919 9.43162 19.2453 9.50135 19.1866 9.5601ZM5.37404 10.1158H12.9609C13.0448 10.1158 13.1252 10.0825 13.1844 10.0232C13.2437 9.96396 13.277 9.88355 13.277 9.79971C13.277 9.71587 13.2437 9.63547 13.1844 9.57618C13.1252 9.5169 13.0448 9.48359 12.9609 9.48359H5.37404C5.2902 9.48359 5.20979 9.5169 5.15051 9.57618C5.09122 9.63547 5.05792 9.71587 5.05792 9.79971C5.05792 9.88355 5.09122 9.96396 5.15051 10.0232C5.20979 10.0825 5.2902 10.1158 5.37404 10.1158ZM5.37404 8.21912H12.9609C13.0448 8.21912 13.1252 8.18581 13.1844 8.12653C13.2437 8.06724 13.277 7.98684 13.277 7.903C13.277 7.81916 13.2437 7.73875 13.1844 7.67946C13.1252 7.62018 13.0448 7.58688 12.9609 7.58688H5.37404C5.2902 7.58688 5.20979 7.62018 5.15051 7.67946C5.09122 7.73875 5.05792 7.81916 5.05792 7.903C5.05792 7.98684 5.09122 8.06724 5.15051 8.12653C5.20979 8.18581 5.2902 8.21912 5.37404 8.21912ZM8.53524 17.6553C8.29173 17.6615 8.0528 17.5885 7.85431 17.4473C7.55475 17.2528 7.20525 17.1493 6.8481 17.1493C6.49096 17.1493 6.14146 17.2528 5.84189 17.4473C5.64341 17.5885 5.40448 17.6615 5.16097 17.6553C4.91838 17.6619 4.68018 17.5898 4.48195 17.4498C4.1857 17.2495 3.83491 17.1453 3.47732 17.1514C3.39348 17.1514 3.31307 17.1847 3.25379 17.244C3.1945 17.3033 3.1612 17.3837 3.1612 17.4675C3.1612 17.5514 3.1945 17.6318 3.25379 17.691C3.31307 17.7503 3.39348 17.7836 3.47732 17.7836C3.7204 17.7776 3.95888 17.8506 4.15698 17.9916C4.45322 18.192 4.80402 18.2962 5.1616 18.2901C5.5195 18.2963 5.87066 18.1923 6.1675 17.9923C6.3686 17.8567 6.60559 17.7843 6.8481 17.7843C7.09062 17.7843 7.32761 17.8567 7.52871 17.9923C7.82554 18.1923 8.1767 18.2963 8.5346 18.2901C8.61844 18.2901 8.69885 18.2568 8.75813 18.1975C8.81742 18.1382 8.85072 18.0578 8.85072 17.9739C8.85072 17.8901 8.81742 17.8097 8.75813 17.7504C8.69885 17.6911 8.61844 17.6578 8.5346 17.6578L8.53524 17.6553ZM5.37404 6.95464H12.9609C13.0448 6.95464 13.1252 6.92133 13.1844 6.86205C13.2437 6.80276 13.277 6.72236 13.277 6.63852C13.277 6.55468 13.2437 6.47427 13.1844 6.41499C13.1252 6.3557 13.0448 6.3224 12.9609 6.3224H5.37404C5.2902 6.3224 5.20979 6.3557 5.15051 6.41499C5.09122 6.47427 5.05792 6.55468 5.05792 6.63852C5.05792 6.72236 5.09122 6.80276 5.15051 6.86205C5.20979 6.92133 5.2902 6.95464 5.37404 6.95464ZM5.37404 11.3803H12.9609C13.0448 11.3803 13.1252 11.347 13.1844 11.2877C13.2437 11.2284 13.277 11.148 13.277 11.0642C13.277 10.9804 13.2437 10.8999 13.1844 10.8407C13.1252 10.7814 13.0448 10.7481 12.9609 10.7481H5.37404C5.2902 10.7481 5.20979 10.7814 5.15051 10.8407C5.09122 10.8999 5.05792 10.9804 5.05792 11.0642C5.05792 11.148 5.09122 11.2284 5.15051 11.2877C5.20979 11.347 5.2902 11.3803 5.37404 11.3803ZM2.84508 11.3803C3.03265 11.3803 3.216 11.3247 3.37196 11.2205C3.52792 11.1163 3.64947 10.9682 3.72125 10.7949C3.79303 10.6216 3.81181 10.4309 3.77522 10.2469C3.73862 10.063 3.6483 9.89399 3.51567 9.76136C3.38304 9.62873 3.21406 9.53841 3.03009 9.50182C2.84613 9.46522 2.65545 9.48401 2.48216 9.55578C2.30887 9.62756 2.16075 9.74912 2.05655 9.90507C1.95234 10.061 1.89672 10.2444 1.89672 10.432C1.89672 10.6835 1.99663 10.9247 2.17449 11.1025C2.35234 11.2804 2.59356 11.3803 2.84508 11.3803ZM2.84508 10.1158C2.9076 10.1158 2.96872 10.1344 3.0207 10.1691C3.07269 10.2038 3.11321 10.2532 3.13714 10.311C3.16106 10.3687 3.16732 10.4323 3.15512 10.4936C3.14293 10.5549 3.11282 10.6113 3.06861 10.6555C3.0244 10.6997 2.96807 10.7298 2.90675 10.742C2.84543 10.7542 2.78187 10.7479 2.7241 10.724C2.66634 10.7001 2.61697 10.6596 2.58223 10.6076C2.5475 10.5556 2.52896 10.4945 2.52896 10.432C2.52896 10.3481 2.56226 10.2677 2.62155 10.2084C2.68083 10.1491 2.76124 10.1158 2.84508 10.1158ZM3.79344 13.5932C3.79344 13.4056 3.73782 13.2222 3.63361 13.0663C3.5294 12.9103 3.38129 12.7888 3.208 12.717C3.03471 12.6452 2.84403 12.6264 2.66006 12.663C2.4761 12.6996 2.30712 12.7899 2.17449 12.9226C2.04186 13.0552 1.95153 13.2242 1.91494 13.4081C1.87835 13.5921 1.89713 13.7828 1.96891 13.9561C2.04069 14.1294 2.16224 14.2775 2.3182 14.3817C2.47415 14.4859 2.65751 14.5415 2.84508 14.5415C3.0966 14.5415 3.33782 14.4416 3.51567 14.2637C3.69352 14.0859 3.79344 13.8447 3.79344 13.5932ZM2.84508 13.9093C2.78256 13.9093 2.72144 13.8907 2.66945 13.856C2.61747 13.8213 2.57695 13.7719 2.55302 13.7141C2.5291 13.6564 2.52284 13.5928 2.53503 13.5315C2.54723 13.4702 2.57734 13.4138 2.62155 13.3696C2.66576 13.3254 2.72209 13.2953 2.78341 13.2831C2.84473 13.2709 2.90829 13.2772 2.96605 13.3011C3.02382 13.325 3.07319 13.3655 3.10792 13.4175C3.14266 13.4695 3.1612 13.5306 3.1612 13.5932C3.1612 13.677 3.12789 13.7574 3.06861 13.8167C3.00932 13.876 2.92892 13.9093 2.84508 13.9093ZM5.37404 13.277H10.432C10.5158 13.277 10.5962 13.2437 10.6555 13.1844C10.7148 13.1252 10.7481 13.0448 10.7481 12.9609C10.7481 12.8771 10.7148 12.7967 10.6555 12.7374C10.5962 12.6781 10.5158 12.6448 10.432 12.6448H5.37404C5.2902 12.6448 5.20979 12.6781 5.15051 12.7374C5.09122 12.7967 5.05792 12.8771 5.05792 12.9609C5.05792 13.0448 5.09122 13.1252 5.15051 13.1844C5.20979 13.2437 5.2902 13.277 5.37404 13.277ZM2.84508 8.21912C3.03265 8.21912 3.216 8.1635 3.37196 8.05929C3.52792 7.95508 3.64947 7.80697 3.72125 7.63368C3.79303 7.46039 3.81181 7.2697 3.77522 7.08574C3.73862 6.90178 3.6483 6.73279 3.51567 6.60016C3.38304 6.46753 3.21406 6.37721 3.03009 6.34062C2.84613 6.30403 2.65545 6.32281 2.48216 6.39459C2.30887 6.46637 2.16075 6.58792 2.05655 6.74388C1.95234 6.89983 1.89672 7.08319 1.89672 7.27076C1.89672 7.52228 1.99663 7.7635 2.17449 7.94135C2.35234 8.1192 2.59356 8.21912 2.84508 8.21912ZM2.84508 6.95464C2.9076 6.95464 2.96872 6.97318 3.0207 7.00791C3.07269 7.04265 3.11321 7.09202 3.13714 7.14978C3.16106 7.20755 3.16732 7.27111 3.15512 7.33243C3.14293 7.39375 3.11282 7.45008 3.06861 7.49429C3.0244 7.5385 2.96807 7.5686 2.90675 7.5808C2.84543 7.593 2.78187 7.58674 2.7241 7.56281C2.66634 7.53889 2.61697 7.49837 2.58223 7.44638C2.5475 7.3944 2.52896 7.33328 2.52896 7.27076C2.52896 7.18692 2.56226 7.10651 2.62155 7.04722C2.68083 6.98794 2.76124 6.95464 2.84508 6.95464ZM5.37404 14.5415H10.432C10.5158 14.5415 10.5962 14.5082 10.6555 14.4489C10.7148 14.3896 10.7481 14.3092 10.7481 14.2254C10.7481 14.1416 10.7148 14.0611 10.6555 14.0019C10.5962 13.9426 10.5158 13.9093 10.432 13.9093H5.37404C5.2902 13.9093 5.20979 13.9426 5.15051 14.0019C5.09122 14.0611 5.05792 14.1416 5.05792 14.2254C5.05792 14.3092 5.09122 14.3896 5.15051 14.4489C5.20979 14.5082 5.2902 14.5415 5.37404 14.5415Z" fill="white"/>
</svg>
