<svg width="39" height="40" viewBox="0 0 39 40" fill="none" xmlns="http://www.w3.org/2000/svg">
<path d="M35 5H32.8571V6.42857H35C35.5683 6.42857 36.1134 6.65434 36.5152 7.0562C36.9171 7.45806 37.1429 8.00311 37.1429 8.57143V27.8571H35.7143V8.57143C35.7143 8.38199 35.639 8.20031 35.5051 8.06635C35.3711 7.9324 35.1894 7.85714 35 7.85714H32.8571V9.28571H34.2857V27.8571H32.1429V2.14286C32.1429 1.57454 31.9171 1.02949 31.5152 0.627628C31.1134 0.225765 30.5683 0 30 0H8.57143C8.00311 0 7.45806 0.225765 7.0562 0.627628C6.65434 1.02949 6.42857 1.57454 6.42857 2.14286V27.8571H4.28571V9.28571H5.71429V7.85714H3.57143C3.38199 7.85714 3.20031 7.9324 3.06635 8.06635C2.9324 8.20031 2.85714 8.38199 2.85714 8.57143V27.8571H1.42857V8.57143C1.42857 8.00311 1.65434 7.45806 2.0562 7.0562C2.45806 6.65434 3.00311 6.42857 3.57143 6.42857H5.71429V5H3.57143C2.62423 5 1.71582 5.37627 1.04605 6.04605C0.376274 6.71582 0 7.62423 0 8.57143V31.4286C0 32.3758 0.376274 33.2842 1.04605 33.954C1.71582 34.6237 2.62423 35 3.57143 35H15.7143V38.5714H12.1429V40H26.4286V38.5714H22.8571V35H35C35.9472 35 36.8556 34.6237 37.5254 33.954C38.1952 33.2842 38.5714 32.3758 38.5714 31.4286V8.57143C38.5714 7.62423 38.1952 6.71582 37.5254 6.04605C36.8556 5.37627 35.9472 5 35 5ZM8.57143 1.42857H30C30.1894 1.42857 30.3711 1.50383 30.5051 1.63778C30.639 1.77174 30.7143 1.95342 30.7143 2.14286V4.28571H7.85714V2.14286C7.85714 1.95342 7.9324 1.77174 8.06635 1.63778C8.20031 1.50383 8.38199 1.42857 8.57143 1.42857ZM7.85714 5.71429H30.7143V27.8571H7.85714V5.71429ZM21.4286 38.5714H17.1429V35H21.4286V38.5714ZM35 33.5714H3.57143C3.00311 33.5714 2.45806 33.3457 2.0562 32.9438C1.65434 32.5419 1.42857 31.9969 1.42857 31.4286V29.2857H37.1429V31.4286C37.1429 31.9969 36.9171 32.5419 36.5152 32.9438C36.1134 33.3457 35.5683 33.5714 35 33.5714ZM16.4286 30.7143H22.1429V32.1429H16.4286V30.7143ZM12.1429 3.57143H10V2.14286H12.1429V3.57143ZM15.7143 3.57143H13.5714V2.14286H15.7143V3.57143ZM19.2857 14.7286V18.8429C19.2857 19.0323 19.2105 19.214 19.0765 19.3479C18.9426 19.4819 18.7609 19.5571 18.5714 19.5571H16.1357L17.8143 21.1214C17.8848 21.1886 17.9408 21.2696 17.9789 21.3593C18.017 21.4489 18.0363 21.5454 18.0357 21.6429C18.0363 21.7403 18.017 21.8368 17.9789 21.9265C17.9408 22.0161 17.8848 22.0971 17.8143 22.1643L14.6714 25.0786C14.5393 25.2011 14.3659 25.2691 14.1857 25.2691C14.0056 25.2691 13.8321 25.2011 13.7 25.0786L11.8929 23.4V25.7143C11.8929 25.9037 11.8176 26.0854 11.6836 26.2194C11.5497 26.3533 11.368 26.4286 11.1786 26.4286H8.57143V25H10.4643V22.6071C10.4644 22.4565 10.5121 22.3098 10.6006 22.1879C10.6892 22.066 10.8139 21.9753 10.9571 21.9286C11.1571 21.8643 11.35 21.7857 11.5357 21.7071C11.6638 21.6497 11.8059 21.6313 11.9444 21.6542C12.0828 21.677 12.2115 21.7402 12.3143 21.8357L14.1857 23.5714L16.2786 21.6357L14.4714 20C14.3567 19.8927 14.2805 19.7506 14.2547 19.5957C14.2288 19.4407 14.2548 19.2816 14.3286 19.1429C14.4162 18.9743 14.4926 18.8001 14.5571 18.6214C14.6082 18.4847 14.7 18.3669 14.82 18.2839C14.94 18.2009 15.0826 18.1567 15.2286 18.1571H17.8571V15.4429H15.2286C15.0826 15.4433 14.94 15.3991 14.82 15.3161C14.7 15.2331 14.6082 15.1153 14.5571 14.9786C14.4926 14.7999 14.4162 14.6257 14.3286 14.4571C14.2548 14.3184 14.2288 14.1593 14.2547 14.0043C14.2805 13.8494 14.3567 13.7073 14.4714 13.6L16.2786 11.9286L14.1857 10L12.3143 11.7429C12.2115 11.8384 12.0828 11.9016 11.9444 11.9244C11.8059 11.9473 11.6638 11.9289 11.5357 11.8714C11.35 11.7929 11.1571 11.7143 10.9571 11.65C10.8139 11.6033 10.6892 11.5125 10.6006 11.3907C10.5121 11.2688 10.4644 11.1221 10.4643 10.9714V8.57143H8.57143V7.14286H11.1786C11.368 7.14286 11.5497 7.21811 11.6836 7.35207C11.8176 7.48602 11.8929 7.6677 11.8929 7.85714V10.1714L13.7 8.49286C13.8321 8.37036 14.0056 8.30229 14.1857 8.30229C14.3659 8.30229 14.5393 8.37036 14.6714 8.49286L17.8143 11.4286C17.8848 11.4958 17.9408 11.5767 17.9789 11.6664C18.017 11.7561 18.0363 11.8526 18.0357 11.95C18.0363 12.0474 18.017 12.1439 17.9789 12.2336C17.9408 12.3233 17.8848 12.4042 17.8143 12.4714L16.1357 14.0357H18.5714C18.7572 14.0356 18.9357 14.1079 19.0691 14.2373C19.2024 14.3666 19.2801 14.5429 19.2857 14.7286ZM8.97857 20.7143H8.57143V19.2857H8.97857C10.7143 19.2857 12.1429 18.1643 12.1429 16.7857C12.1429 15.4071 10.7143 14.2857 8.97857 14.2857H8.57143V12.8571H8.97857C11.5143 12.8571 13.5714 14.6214 13.5714 16.7857C13.5714 18.95 11.5143 20.7143 8.97857 20.7143ZM28.5714 7.85714H21.4286C21.2391 7.85714 21.0574 7.9324 20.9235 8.06635C20.7895 8.20031 20.7143 8.38199 20.7143 8.57143V14.2857C20.7143 14.4752 20.7895 14.6568 20.9235 14.7908C21.0574 14.9247 21.2391 15 21.4286 15H28.5714C28.7609 15 28.9426 14.9247 29.0765 14.7908C29.2105 14.6568 29.2857 14.4752 29.2857 14.2857V8.57143C29.2857 8.38199 29.2105 8.20031 29.0765 8.06635C28.9426 7.9324 28.7609 7.85714 28.5714 7.85714ZM27.8571 13.5714H22.1429V9.28571H27.8571V13.5714ZM26.4286 18.5714H20.7143V17.1429H26.4286V18.5714ZM26.4286 22.1429H20.7143V20.7143H26.4286V22.1429ZM27.1429 17.1429H29.2857V18.5714H27.1429V17.1429ZM27.1429 20.7143H29.2857V22.1429H27.1429V20.7143ZM23.5714 24.2857H29.2857V25.7143H23.5714V24.2857ZM20.7143 24.2857H22.8571V25.7143H20.7143V24.2857Z" fill="url(#paint0_linear_811_2383)"/>
<defs>
<linearGradient id="paint0_linear_811_2383" x1="39" y1="2.58003e-07" x2="2.11921e-06" y2="40" gradientUnits="userSpaceOnUse">
<stop stop-color="#2BC44C"/>
<stop offset="1" stop-color="#D1394E"/>
</linearGradient>
</defs>
</svg>
