<svg width="47" height="40" viewBox="0 0 47 40" fill="none" xmlns="http://www.w3.org/2000/svg">
<path d="M42.4792 34.6282V31.7735H40.428V14.6672H42.4792V11.8129H46.0474V6.55243L23.0237 0L0 6.55243V11.8129H4.39293V14.6672H6.44466V31.7735H4.39293V34.6282H0.468506V40H46.5159V34.6282H42.4792ZM41.5672 32.6856V34.6282H34.0951V32.6856H41.5672ZM13.69 11.8129H18.3751V14.6672H20.4269V31.7735H18.3751V34.6282H13.69V31.7735H11.6383V14.6672H13.69V11.8129ZM24.7089 31.7735H21.3389V14.6672H24.7089V31.7735ZM20.4269 13.7551H19.2872V11.8129H26.7602V13.7551H20.4269ZM19.2872 32.6856H26.7602V34.6282H19.2872V32.6856ZM25.621 31.7735V14.6672H27.6722V11.8129H33.183V14.6672H35.2342V31.7735H33.183V34.6282H27.6722V31.7735H25.621ZM39.5159 31.7735H36.1464V14.6672H39.5159V31.7735ZM41.5671 13.7551H34.0951V11.8129H41.5672L41.5671 13.7551ZM0.912076 7.24097L23.0237 0.948622L45.1353 7.24097V10.9008H0.912076V7.24097ZM5.30501 13.7551V11.8129H12.778V13.7551H5.30501ZM7.35673 14.6672H10.7262V31.7735H7.35673V14.6672ZM5.30501 32.6856H12.778V34.6282H5.30501V32.6856ZM45.6038 39.0879H1.38058V35.5402H45.6038V39.0879ZM22.3557 4.79113C22.3558 4.96831 22.4262 5.1382 22.5514 5.26352C22.6767 5.38884 22.8465 5.45936 23.0237 5.4596C23.4024 5.45851 23.7689 5.59387 24.0559 5.8409C24.343 6.08794 24.5315 6.43011 24.5869 6.80476C24.6422 7.17942 24.5608 7.56149 24.3575 7.88101C24.1542 8.20053 23.8426 8.43613 23.4797 8.54466V9.08118H22.5676V8.5446C22.2437 8.44744 21.9595 8.2487 21.7571 7.97773C21.5547 7.70675 21.4448 7.37789 21.4436 7.03968H22.3557C22.3557 7.1718 22.3948 7.30096 22.4682 7.41082C22.5416 7.52068 22.646 7.6063 22.768 7.65686C22.8901 7.70743 23.0244 7.72066 23.154 7.69488C23.2836 7.6691 23.4026 7.60548 23.4961 7.51205C23.5895 7.41863 23.6531 7.29959 23.6789 7.17001C23.7047 7.04042 23.6914 6.9061 23.6409 6.78404C23.5903 6.66197 23.5047 6.55764 23.3948 6.48423C23.285 6.41083 23.1558 6.37165 23.0237 6.37165C22.6449 6.37268 22.2785 6.23727 21.9914 5.99019C21.7043 5.74311 21.5158 5.4009 21.4605 5.02621C21.4051 4.65153 21.4865 4.26943 21.6898 3.94987C21.8932 3.63031 22.2048 3.39468 22.5676 3.2861V2.74962H23.4797V3.2861C23.8037 3.38328 24.0878 3.58203 24.2902 3.85302C24.4926 4.124 24.6025 4.45287 24.6038 4.7911H23.6917C23.6911 4.61435 23.6204 4.44507 23.4952 4.32032C23.37 4.19558 23.2004 4.12553 23.0237 4.12553C22.8469 4.12553 22.6774 4.19558 22.5522 4.32032C22.427 4.44507 22.3563 4.61439 22.3557 4.79113ZM2.69926 19.6604H3.54409V20.572H2.69926V19.6604ZM0.924544 19.6604H1.76937V20.572H0.924544V19.6604ZM3.54409 18.8788H2.69926V17.9667H3.54409V18.8788ZM1.76937 18.8788H0.924544V17.9667H1.76937V18.8788ZM44.3693 28.0414H45.2146V28.9535H44.3693V28.0414ZM42.595 28.0414H43.4403V28.9535H42.595V28.0414ZM45.2146 27.2594H44.3693V26.3473H45.2146V27.2594ZM43.4403 27.2594H42.595V26.3473H43.4403V27.2594Z" fill="url(#paint0_linear_727_10513)"/>
<defs>
<linearGradient id="paint0_linear_727_10513" x1="46.5159" y1="1.19056e-06" x2="24.7719" y2="50.6372" gradientUnits="userSpaceOnUse">
<stop stop-color="#FFC553"/>
<stop offset="1" stop-color="#D18B00"/>
</linearGradient>
</defs>
</svg>
