<svg width="19" height="18" viewBox="0 0 19 18" fill="none" xmlns="http://www.w3.org/2000/svg">
<path d="M17.0526 3.78947H13.2632V1.89474C13.2632 0.843158 12.42 0 11.3684 0H7.57895C6.52737 0 5.68421 0.843158 5.68421 1.89474V3.78947H1.89474C0.843158 3.78947 0.00947367 4.63263 0.00947367 5.68421L0 16.1053C0 17.1568 0.843158 18 1.89474 18H17.0526C18.1042 18 18.9474 17.1568 18.9474 16.1053V5.68421C18.9474 4.63263 18.1042 3.78947 17.0526 3.78947ZM7.57895 1.89474H11.3684V3.78947H7.57895V1.89474ZM17.0526 16.1053H1.89474V5.68421H17.0526V16.1053Z" fill="white"/>
</svg>
