<svg width="24" height="18" viewBox="0 0 24 18" fill="none" xmlns="http://www.w3.org/2000/svg">
<path d="M21.1765 11.8588V8.47059C21.1765 7.83529 20.7529 7.41177 20.1176 7.41177H12.7059V6.14118C13.9765 5.71765 14.8235 4.55294 14.8235 3.17647C14.8235 1.37647 13.4471 0 11.6471 0C9.84706 0 8.47059 1.37647 8.47059 3.17647C8.47059 4.55294 9.31765 5.71765 10.5882 6.14118V7.41177H3.17647C2.54118 7.41177 2.11765 7.83529 2.11765 8.47059V11.8588C0.847059 12.2824 0 13.4471 0 14.8235C0 16.6235 1.37647 18 3.17647 18C4.97647 18 6.35294 16.6235 6.35294 14.8235C6.35294 13.4471 5.50588 12.2824 4.23529 11.8588V9.52941H10.5882V11.8588C9.31765 12.2824 8.47059 13.4471 8.47059 14.8235C8.47059 16.6235 9.84706 18 11.6471 18C13.4471 18 14.8235 16.6235 14.8235 14.8235C14.8235 13.4471 13.9765 12.2824 12.7059 11.8588V9.52941H19.0588V11.8588C17.7882 12.2824 16.9412 13.4471 16.9412 14.8235C16.9412 16.6235 18.3176 18 20.1176 18C21.9176 18 23.2941 16.6235 23.2941 14.8235C23.2941 13.4471 22.4471 12.2824 21.1765 11.8588ZM11.6471 2.11765C12.2824 2.11765 12.7059 2.54118 12.7059 3.17647C12.7059 3.81176 12.2824 4.23529 11.6471 4.23529C11.0118 4.23529 10.5882 3.81176 10.5882 3.17647C10.5882 2.54118 11.0118 2.11765 11.6471 2.11765ZM3.17647 15.8824C2.54118 15.8824 2.11765 15.4588 2.11765 14.8235C2.11765 14.1882 2.54118 13.7647 3.17647 13.7647C3.81176 13.7647 4.23529 14.1882 4.23529 14.8235C4.23529 15.4588 3.81176 15.8824 3.17647 15.8824ZM11.6471 15.8824C11.0118 15.8824 10.5882 15.4588 10.5882 14.8235C10.5882 14.1882 11.0118 13.7647 11.6471 13.7647C12.2824 13.7647 12.7059 14.1882 12.7059 14.8235C12.7059 15.4588 12.2824 15.8824 11.6471 15.8824ZM20.1176 15.8824C19.4824 15.8824 19.0588 15.4588 19.0588 14.8235C19.0588 14.1882 19.4824 13.7647 20.1176 13.7647C20.7529 13.7647 21.1765 14.1882 21.1765 14.8235C21.1765 15.4588 20.7529 15.8824 20.1176 15.8824Z" fill="white"/>
</svg>
