<svg width="17" height="18" viewBox="0 0 17 18" fill="none" xmlns="http://www.w3.org/2000/svg">
<path d="M9 0H1.92857C1.41708 0 0.926543 0.203188 0.564866 0.564866C0.203188 0.926543 0 1.41708 0 1.92857V16.0714C0 16.5829 0.203188 17.0735 0.564866 17.4351C0.926543 17.7968 1.41708 18 1.92857 18H14.7857C15.2972 18 15.7877 17.7968 16.1494 17.4351C16.5111 17.0735 16.7143 16.5829 16.7143 16.0714V9C16.7143 8.48851 16.5111 7.99797 16.1494 7.63629C15.7877 7.27462 15.2972 7.07143 14.7857 7.07143H10.9286V1.92857C10.9286 1.41708 10.7254 0.926543 10.3637 0.564866C10.002 0.203188 9.51149 0 9 0ZM0.642857 16.0714V1.92857C0.642857 1.58758 0.778316 1.26055 1.01943 1.01943C1.26055 0.778316 1.58758 0.642857 1.92857 0.642857H9C9.34099 0.642857 9.66802 0.778316 9.90914 1.01943C10.1503 1.26055 10.2857 1.58758 10.2857 1.92857V17.3571H7.71429V13.1786C7.71429 13.0933 7.68042 13.0116 7.62014 12.9513C7.55986 12.891 7.47811 12.8571 7.39286 12.8571H3.53571C3.45047 12.8571 3.36871 12.891 3.30843 12.9513C3.24815 13.0116 3.21429 13.0933 3.21429 13.1786V17.3571H1.92857C1.58758 17.3571 1.26055 17.2217 1.01943 16.9806C0.778316 16.7394 0.642857 16.4124 0.642857 16.0714ZM3.85714 17.3571V13.5H7.07143V17.3571H3.85714ZM14.7857 7.71429C15.1267 7.71429 15.4537 7.84974 15.6949 8.09086C15.936 8.33198 16.0714 8.65901 16.0714 9V16.0714C16.0714 16.4124 15.936 16.7394 15.6949 16.9806C15.4537 17.2217 15.1267 17.3571 14.7857 17.3571H10.9286V7.71429H14.7857Z" fill="white"/>
<path d="M2.24999 3.85728H3.5357C3.62095 3.85728 3.70271 3.82342 3.76299 3.76314C3.82327 3.70286 3.85713 3.6211 3.85713 3.53585V2.25014C3.85713 2.16489 3.82327 2.08313 3.76299 2.02286C3.70271 1.96258 3.62095 1.92871 3.5357 1.92871H2.24999C2.16474 1.92871 2.08298 1.96258 2.0227 2.02286C1.96242 2.08313 1.92856 2.16489 1.92856 2.25014V3.53585C1.92856 3.6211 1.96242 3.70286 2.0227 3.76314C2.08298 3.82342 2.16474 3.85728 2.24999 3.85728ZM2.57142 2.57157H3.21427V3.21443H2.57142V2.57157ZM2.24999 7.07157H3.5357C3.62095 7.07157 3.70271 7.0377 3.76299 6.97742C3.82327 6.91714 3.85713 6.83539 3.85713 6.75014V5.46443C3.85713 5.37918 3.82327 5.29742 3.76299 5.23714C3.70271 5.17686 3.62095 5.143 3.5357 5.143H2.24999C2.16474 5.143 2.08298 5.17686 2.0227 5.23714C1.96242 5.29742 1.92856 5.37918 1.92856 5.46443V6.75014C1.92856 6.83539 1.96242 6.91714 2.0227 6.97742C2.08298 7.0377 2.16474 7.07157 2.24999 7.07157ZM2.57142 5.78585H3.21427V6.42871H2.57142V5.78585ZM3.5357 10.2859C3.62095 10.2859 3.70271 10.252 3.76299 10.1917C3.82327 10.1314 3.85713 10.0497 3.85713 9.96443V8.67871C3.85713 8.59346 3.82327 8.51171 3.76299 8.45143C3.70271 8.39115 3.62095 8.35728 3.5357 8.35728H2.24999C2.16474 8.35728 2.08298 8.39115 2.0227 8.45143C1.96242 8.51171 1.92856 8.59346 1.92856 8.67871V9.96443C1.92856 10.0497 1.96242 10.1314 2.0227 10.1917C2.08298 10.252 2.16474 10.2859 2.24999 10.2859H3.5357ZM2.57142 9.00014H3.21427V9.643H2.57142V9.00014ZM7.39284 3.85728H8.67856C8.76381 3.85728 8.84556 3.82342 8.90584 3.76314C8.96612 3.70286 8.99999 3.6211 8.99999 3.53585V2.25014C8.99999 2.16489 8.96612 2.08313 8.90584 2.02286C8.84556 1.96258 8.76381 1.92871 8.67856 1.92871H7.39284C7.3076 1.92871 7.22584 1.96258 7.16556 2.02286C7.10528 2.08313 7.07142 2.16489 7.07142 2.25014V3.53585C7.07142 3.6211 7.10528 3.70286 7.16556 3.76314C7.22584 3.82342 7.3076 3.85728 7.39284 3.85728ZM7.71427 2.57157H8.35713V3.21443H7.71427V2.57157ZM7.39284 7.07157H8.67856C8.76381 7.07157 8.84556 7.0377 8.90584 6.97742C8.96612 6.91714 8.99999 6.83539 8.99999 6.75014V5.46443C8.99999 5.37918 8.96612 5.29742 8.90584 5.23714C8.84556 5.17686 8.76381 5.143 8.67856 5.143H7.39284C7.3076 5.143 7.22584 5.17686 7.16556 5.23714C7.10528 5.29742 7.07142 5.37918 7.07142 5.46443V6.75014C7.07142 6.83539 7.10528 6.91714 7.16556 6.97742C7.22584 7.0377 7.3076 7.07157 7.39284 7.07157ZM7.71427 5.78585H8.35713V6.42871H7.71427V5.78585ZM7.39284 10.2859H8.67856C8.76381 10.2859 8.84556 10.252 8.90584 10.1917C8.96612 10.1314 8.99999 10.0497 8.99999 9.96443V8.67871C8.99999 8.59346 8.96612 8.51171 8.90584 8.45143C8.84556 8.39115 8.76381 8.35728 8.67856 8.35728H7.39284C7.3076 8.35728 7.22584 8.39115 7.16556 8.45143C7.10528 8.51171 7.07142 8.59346 7.07142 8.67871V9.96443C7.07142 10.0497 7.10528 10.1314 7.16556 10.1917C7.22584 10.252 7.3076 10.2859 7.39284 10.2859ZM7.71427 9.00014H8.35713V9.643H7.71427V9.00014ZM13.1786 10.9287H14.4643C14.5495 10.9287 14.6313 10.8948 14.6916 10.8346C14.7518 10.7743 14.7857 10.6925 14.7857 10.6073V9.32157C14.7857 9.23632 14.7518 9.15456 14.6916 9.09428C14.6313 9.034 14.5495 9.00014 14.4643 9.00014H13.1786C13.0933 9.00014 13.0116 9.034 12.9513 9.09428C12.891 9.15456 12.8571 9.23632 12.8571 9.32157V10.6073C12.8571 10.6925 12.891 10.7743 12.9513 10.8346C13.0116 10.8948 13.0933 10.9287 13.1786 10.9287ZM13.5 9.643H14.1428V10.2859H13.5V9.643ZM13.1786 14.143H14.4643C14.5495 14.143 14.6313 14.1091 14.6916 14.0489C14.7518 13.9886 14.7857 13.9068 14.7857 13.8216V12.5359C14.7857 12.4506 14.7518 12.3688 14.6916 12.3086C14.6313 12.2483 14.5495 12.2144 14.4643 12.2144H13.1786C13.0933 12.2144 13.0116 12.2483 12.9513 12.3086C12.891 12.3688 12.8571 12.4506 12.8571 12.5359V13.8216C12.8571 13.9068 12.891 13.9886 12.9513 14.0489C13.0116 14.1091 13.0933 14.143 13.1786 14.143ZM13.5 12.8573H14.1428V13.5001H13.5V12.8573Z" fill="white"/>
</svg>
