<svg width="20" height="20" viewBox="0 0 20 20" fill="none" xmlns="http://www.w3.org/2000/svg">
<path d="M20 2.33333V12.3333C19.9993 12.952 19.7532 13.545 19.3158 13.9825C18.8784 14.4199 18.2853 14.666 17.6667 14.6667H13.71L13.96 16.6667H14.6667C14.9319 16.6667 15.1862 16.772 15.3738 16.9596C15.5613 17.1471 15.6667 17.4014 15.6667 17.6667C15.6667 17.9319 15.5613 18.1862 15.3738 18.3738C15.1862 18.5613 14.9319 18.6667 14.6667 18.6667H10.6667V18H14.6667C14.7551 18 14.8399 17.9649 14.9024 17.9024C14.9649 17.8399 15 17.7551 15 17.6667C15 17.5783 14.9649 17.4935 14.9024 17.431C14.8399 17.3685 14.7551 17.3333 14.6667 17.3333H10.6667V16.6667H13.29L13.04 14.6667H10.6667V14H17.6667C18.1087 14 18.5326 13.8244 18.8452 13.5118C19.1577 13.1993 19.3333 12.7754 19.3333 12.3333V12H10.6667V11.3333H19.3333V2.33333C19.3333 1.89131 19.1577 1.46738 18.8452 1.15482C18.5326 0.842261 18.1087 0.666667 17.6667 0.666667H4.33333C3.89131 0.666667 3.46738 0.842261 3.15482 1.15482C2.84226 1.46738 2.66667 1.89131 2.66667 2.33333V9.33333H2V2.33333C2.00071 1.71471 2.24677 1.12163 2.6842 0.684197C3.12163 0.246765 3.71471 0.000705787 4.33333 0H17.6667C18.2853 0.000705787 18.8784 0.246765 19.3158 0.684197C19.7532 1.12163 19.9993 1.71471 20 2.33333Z" fill="white"/>
<path d="M17.3333 12.6667H18V13.3333H17.3333V12.6667ZM9 10H1C0.735027 10.0008 0.481133 10.1064 0.293767 10.2938C0.106402 10.4811 0.000791364 10.735 0 11V19C0.000791364 19.265 0.106402 19.5189 0.293767 19.7062C0.481133 19.8936 0.735027 19.9992 1 20H9C9.26497 19.9992 9.51887 19.8936 9.70623 19.7062C9.8936 19.5189 9.99921 19.265 10 19V11C9.99921 10.735 9.8936 10.4811 9.70623 10.2938C9.51887 10.1064 9.26497 10.0008 9 10ZM9.33333 19C9.33333 19.0884 9.29821 19.1732 9.2357 19.2357C9.17319 19.2982 9.08841 19.3333 9 19.3333H1C0.911595 19.3333 0.82681 19.2982 0.764298 19.2357C0.701786 19.1732 0.666667 19.0884 0.666667 19V11C0.666667 10.9116 0.701786 10.8268 0.764298 10.7643C0.82681 10.7018 0.911595 10.6667 1 10.6667H9C9.08841 10.6667 9.17319 10.7018 9.2357 10.7643C9.29821 10.8268 9.33333 10.9116 9.33333 11V19Z" fill="white"/>
<path d="M6.10233 14.4451L5.03567 13.7345C4.93528 13.6678 4.81868 13.6295 4.69828 13.6238C4.57788 13.6181 4.45818 13.6451 4.35192 13.702C4.24566 13.7589 4.15682 13.8436 4.09485 13.947C4.03288 14.0504 4.0001 14.1686 4 14.2891V15.7105C3.99978 15.8312 4.03236 15.9498 4.09427 16.0535C4.15618 16.1571 4.24508 16.2421 4.35149 16.2992C4.4579 16.3562 4.57782 16.3834 4.69843 16.3776C4.81905 16.3718 4.93584 16.3334 5.03633 16.2665L6.103 15.5558C6.19431 15.4949 6.26917 15.4125 6.32095 15.3157C6.37273 15.2189 6.39982 15.1109 6.39982 15.0011C6.39982 14.8914 6.37273 14.7834 6.32095 14.6866C6.26917 14.5898 6.19431 14.5074 6.103 14.4465L6.10233 14.4451ZM4.66667 15.7125V14.2891L5.73333 14.9998L4.66667 15.7125Z" fill="white"/>
<path d="M5 12.0001C4.40666 12.0001 3.82664 12.176 3.33329 12.5057C2.83994 12.8353 2.45543 13.3038 2.22836 13.852C2.0013 14.4002 1.94189 15.0034 2.05765 15.5853C2.1734 16.1673 2.45912 16.7018 2.87868 17.1214C3.29824 17.541 3.83279 17.8267 4.41473 17.9424C4.99667 18.0582 5.59987 17.9988 6.14805 17.7717C6.69623 17.5447 7.16477 17.1601 7.49441 16.6668C7.82405 16.1734 8 15.5934 8 15.0001C7.99912 14.2047 7.68277 13.4421 7.12035 12.8797C6.55793 12.3173 5.79538 12.001 5 12.0001ZM5 17.3334C4.53851 17.3334 4.08739 17.1966 3.70367 16.9402C3.31996 16.6838 3.02089 16.3194 2.84428 15.893C2.66768 15.4666 2.62147 14.9975 2.7115 14.5449C2.80153 14.0922 3.02376 13.6765 3.35009 13.3502C3.67641 13.0238 4.09217 12.8016 4.54479 12.7116C4.99741 12.6215 5.46657 12.6678 5.89293 12.8444C6.31929 13.021 6.68371 13.32 6.9401 13.7037C7.19649 14.0875 7.33333 14.5386 7.33333 15.0001C7.33263 15.6187 7.08657 16.2118 6.64914 16.6492C6.21171 17.0866 5.61862 17.3327 5 17.3334ZM16.86 6.38008L16 6.09341V5.99008C16.2066 5.83671 16.3744 5.63718 16.4902 5.40742C16.6059 5.17766 16.6664 4.92402 16.6667 4.66674V3.66674C16.6667 3.22472 16.4911 2.80079 16.1785 2.48823C15.866 2.17567 15.442 2.00008 15 2.00008C14.558 2.00008 14.134 2.17567 13.8215 2.48823C13.5089 2.80079 13.3333 3.22472 13.3333 3.66674V4.66674C13.3336 4.92402 13.3941 5.17766 13.5098 5.40742C13.6256 5.63718 13.7934 5.83671 14 5.99008V6.09341L13.14 6.38008C12.8079 6.48999 12.5189 6.70188 12.3143 6.98556C12.1096 7.26924 11.9996 7.61026 12 7.96008V9.66674C12 9.75515 12.0351 9.83993 12.0976 9.90245C12.1601 9.96496 12.2449 10.0001 12.3333 10.0001H17.6667C17.7551 10.0001 17.8399 9.96496 17.9024 9.90245C17.9649 9.83993 18 9.75515 18 9.66674V7.96008C18.0004 7.61026 17.8904 7.26924 17.6857 6.98556C17.4811 6.70188 17.1921 6.48999 16.86 6.38008ZM14 3.66674C14 3.40153 14.1054 3.14717 14.2929 2.95964C14.4804 2.7721 14.7348 2.66674 15 2.66674C15.2652 2.66674 15.5196 2.7721 15.7071 2.95964C15.8946 3.14717 16 3.40153 16 3.66674V3.99008C15.9528 3.97913 15.9087 3.95792 15.8707 3.92796C15.8326 3.898 15.8017 3.86003 15.78 3.81674L15.6333 3.51674C15.6094 3.46943 15.5746 3.42846 15.5318 3.39717C15.489 3.36588 15.4394 3.34516 15.3871 3.3367C15.3347 3.32825 15.2811 3.33231 15.2307 3.34853C15.1802 3.36476 15.1343 3.3927 15.0967 3.43008L15.0167 3.51341C14.7425 3.78315 14.3831 3.94928 14 3.98341V3.66674ZM14 4.65341C14.4463 4.62758 14.8752 4.47109 15.2333 4.20341C15.3168 4.33365 15.4296 4.4425 15.5628 4.52123C15.6959 4.59996 15.8457 4.64637 16 4.65674V4.66674C16 4.93196 15.8946 5.18631 15.7071 5.37385C15.5196 5.56139 15.2652 5.66674 15 5.66674C14.7348 5.66674 14.4804 5.56139 14.2929 5.37385C14.1054 5.18631 14 4.93196 14 4.66674V4.65341ZM15.4467 6.58008L15 6.91674L14.5533 6.58008C14.5886 6.54929 14.6169 6.5114 14.6364 6.46888C14.656 6.42637 14.6663 6.3802 14.6667 6.33341V6.30008C14.8867 6.34452 15.1133 6.34452 15.3333 6.30008V6.33341C15.3337 6.3802 15.344 6.42637 15.3636 6.46888C15.3831 6.5114 15.4114 6.54929 15.4467 6.58008ZM17.3333 9.33341H12.6667V7.96008C12.6665 7.75045 12.7324 7.54609 12.8551 7.37612C12.9778 7.20615 13.151 7.07922 13.35 7.01341L13.8133 6.85674L14.8 7.60008C14.8577 7.64335 14.9279 7.66674 15 7.66674C15.0721 7.66674 15.1423 7.64335 15.2 7.60008L16.1867 6.85674L16.65 7.01341C16.849 7.07922 17.0222 7.20615 17.1449 7.37612C17.2676 7.54609 17.3335 7.75045 17.3333 7.96008V9.33341ZM10.6667 4.15908V5.66674H11.3333V3.66674C11.3334 3.60012 11.3135 3.53501 11.2762 3.47981C11.2388 3.42461 11.1858 3.38186 11.124 3.35708L7.79067 2.02374C7.71103 1.99209 7.6223 1.99209 7.54267 2.02374L4.20933 3.35708C4.14737 3.38176 4.09424 3.42447 4.0568 3.47967C4.01937 3.53488 3.99936 3.60004 3.99936 3.66674C3.99936 3.73344 4.01937 3.79861 4.0568 3.85381C4.09424 3.90902 4.14737 3.95173 4.20933 3.97641L5.33333 4.42574V6.33341C5.33333 6.42182 5.36845 6.5066 5.43097 6.56911C5.49348 6.63162 5.57826 6.66674 5.66667 6.66674H9.66667C9.75507 6.66674 9.83986 6.63162 9.90237 6.56911C9.96488 6.5066 10 6.42182 10 6.33341V4.42574L10.6667 4.15908ZM7.66667 2.69241L10.1027 3.66674L7.66667 4.64108L5.23067 3.66674L7.66667 2.69241ZM9.33333 6.00008H6V4.69241L7.54267 5.30974C7.62232 5.3413 7.71101 5.3413 7.79067 5.30974L9.33333 4.69241V6.00008ZM5.33333 7.33341H6V8.00008H5.33333V7.33341ZM6.66667 7.33341H10V8.00008H6.66667V7.33341ZM5.33333 8.66674H10V9.33341H5.33333V8.66674Z" fill="white"/>
</svg>
