<svg width="18" height="18" viewBox="0 0 18 18" fill="none" xmlns="http://www.w3.org/2000/svg">
<path d="M16.575 11.625L17.925 9.6C18 9.45 18 9.3 17.925 9.225C17.85 9.15 17.775 9 17.625 9H16.35L15.075 7.125L16.425 5.1C16.5 4.95 16.5 4.8 16.425 4.725C16.35 4.65 16.275 4.5 16.125 4.5H14.175C14.7 4.05 15 3.375 15 2.625C15 1.2 13.8 0 12.375 0C10.95 0 9.75 1.2 9.75 2.625C9.75 3.375 10.05 4.05 10.575 4.5H7.425C7.95 4.05 8.25 3.375 8.25 2.625C8.25 1.2 7.05 0 5.625 0C4.2 0 3 1.2 3 2.625C3 3.375 3.3 4.05 3.825 4.5H3.375C2.325 4.5 1.5 5.325 1.5 6.375V7.875C1.5 8.325 1.65 8.7 1.875 9C0.825 9 0 9.825 0 10.875V12.375C0 13.425 0.825 14.25 1.875 14.25H3.75V17.625C3.75 17.775 3.825 17.925 3.975 18C4.125 18 4.275 18 4.35 17.925L6 16.575L7.65 17.925C7.725 18 7.8 18 7.875 18H8.025C8.175 17.925 8.25 17.775 8.25 17.625V14.25H17.625C17.775 14.25 17.925 14.175 17.925 14.025C18 13.875 18 13.725 17.925 13.65L16.575 11.625ZM10.5 2.625C10.5 1.575 11.325 0.75 12.375 0.75C13.425 0.75 14.25 1.575 14.25 2.625C14.25 3.675 13.425 4.5 12.375 4.5C11.325 4.5 10.5 3.675 10.5 2.625ZM3.75 2.625C3.75 1.575 4.575 0.75 5.625 0.75C6.675 0.75 7.5 1.575 7.5 2.625C7.5 3.675 6.675 4.5 5.625 4.5C4.575 4.5 3.75 3.675 3.75 2.625ZM2.25 6.375C2.25 5.775 2.775 5.25 3.375 5.25H15.45L14.325 6.9C14.25 7.05 14.25 7.2 14.325 7.35L15.45 9H3.375C2.775 9 2.25 8.475 2.25 7.875V6.375ZM8.25 13.5V12H7.5V16.875L6.225 15.825C6.075 15.75 5.925 15.75 5.775 15.825L4.5 16.875V12H3.75V13.5H1.875C1.275 13.5 0.75 12.975 0.75 12.375V10.875C0.75 10.275 1.275 9.75 1.875 9.75H16.95L15.825 11.4C15.75 11.55 15.75 11.7 15.825 11.85L16.95 13.5H8.25Z" fill="white"/>
</svg>
