<svg width="18" height="20" viewBox="0 0 18 20" fill="none" xmlns="http://www.w3.org/2000/svg">
<path d="M1 17V3C1 2.46957 1.21071 1.96086 1.58579 1.58579C1.96086 1.21071 2.46957 1 3 1H16.4C16.5591 1 16.7117 1.06321 16.8243 1.17574C16.9368 1.28826 17 1.44087 17 1.6V14.714M3 15H17M3 19H17" stroke="white" stroke-width="1.5" stroke-linecap="round"/>
<path d="M3 19C2.46957 19 1.96086 18.7893 1.58579 18.4142C1.21071 18.0391 1 17.5304 1 17C1 16.4696 1.21071 15.9609 1.58579 15.5858C1.96086 15.2107 2.46957 15 3 15" stroke="white" stroke-width="1.5" stroke-linecap="round" stroke-linejoin="round"/>
<path d="M6 5H12" stroke="white" stroke-width="1.5" stroke-linecap="round"/>
</svg>
