<svg width="44" height="40" viewBox="0 0 44 40" fill="none" xmlns="http://www.w3.org/2000/svg">
<path d="M40 34.5455H3.63636C1.63091 34.5455 0 32.9145 0 30.9091V3.63636C0 1.63091 1.63091 0 3.63636 0H40C42.0055 0 43.6364 1.63091 43.6364 3.63636V30.9091C43.6364 32.9145 42.0055 34.5455 40 34.5455ZM3.63636 1.81818C2.63364 1.81818 1.81818 2.63364 1.81818 3.63636V30.9091C1.81818 31.9118 2.63364 32.7273 3.63636 32.7273H40C41.0027 32.7273 41.8182 31.9118 41.8182 30.9091V3.63636C41.8182 2.63364 41.0027 1.81818 40 1.81818H3.63636ZM34.5455 40H9.09091C8.8498 40 8.61857 39.9042 8.44808 39.7337C8.2776 39.5632 8.18182 39.332 8.18182 39.0909C8.18182 38.8498 8.2776 38.6186 8.44808 38.4481C8.61857 38.2776 8.8498 38.1818 9.09091 38.1818H34.5455C34.7866 38.1818 35.0178 38.2776 35.1883 38.4481C35.3588 38.6186 35.4545 38.8498 35.4545 39.0909C35.4545 39.332 35.3588 39.5632 35.1883 39.7337C35.0178 39.9042 34.7866 40 34.5455 40Z" fill="url(#paint0_linear_811_4751)"/>
<path d="M28.2 40.0004H15.4545C15.3105 40 15.1686 39.9656 15.0405 39.8998C14.9124 39.834 14.8017 39.7388 14.7175 39.622C14.6333 39.5051 14.578 39.37 14.5562 39.2276C14.5343 39.0853 14.5465 38.9398 14.5918 38.8031L16.41 33.3485C16.4705 33.1676 16.5863 33.0103 16.7412 32.8989C16.896 32.7874 17.082 32.7275 17.2727 32.7276H26.3636C26.5545 32.7276 26.7406 32.7876 26.8954 32.8992C27.0502 33.0108 27.166 33.1683 27.2264 33.3494L28.99 38.6413C29.0688 38.7795 29.1099 38.9361 29.1092 39.0952C29.1085 39.2544 29.066 39.4105 28.986 39.5481C28.9061 39.6857 28.7914 39.7999 28.6534 39.8792C28.5155 39.9586 28.3591 40.0004 28.2 40.0004ZM16.7154 38.1822H26.9209L25.7091 34.5458H17.9282L16.7154 38.1822ZM40 27.2731H3.63635V3.63672H40V27.2731ZM5.45453 25.4549H38.1818V5.4549H5.45453V25.4549Z" fill="url(#paint1_linear_811_4751)"/>
<path d="M21.8182 31.818C22.8223 31.818 23.6364 31.004 23.6364 29.9998C23.6364 28.9957 22.8223 28.1816 21.8182 28.1816C20.814 28.1816 20 28.9957 20 29.9998C20 31.004 20.814 31.818 21.8182 31.818Z" fill="url(#paint2_linear_811_4751)"/>
<defs>
<linearGradient id="paint0_linear_811_4751" x1="43.6364" y1="1.19056e-06" x2="20.9393" y2="49.5848" gradientUnits="userSpaceOnUse">
<stop stop-color="#00BA8A"/>
<stop offset="1" stop-color="#006C51"/>
</linearGradient>
<linearGradient id="paint1_linear_811_4751" x1="40" y1="3.63672" x2="18.2081" y2="47.2768" gradientUnits="userSpaceOnUse">
<stop stop-color="#00BA8A"/>
<stop offset="1" stop-color="#006C51"/>
</linearGradient>
<linearGradient id="paint2_linear_811_4751" x1="23.6364" y1="28.1816" x2="21.4572" y2="32.5457" gradientUnits="userSpaceOnUse">
<stop stop-color="#00BA8A"/>
<stop offset="1" stop-color="#006C51"/>
</linearGradient>
</defs>
</svg>
