<svg width="18" height="20" viewBox="0 0 18 20" fill="none" xmlns="http://www.w3.org/2000/svg">
<path d="M15.7143 2.14286H14.2857V1.42857C14.2857 0.640714 13.645 0 12.8571 0H4.28571C3.49786 0 2.85714 0.640714 2.85714 1.42857V2.14286H1.42857C0.640714 2.14286 0 2.78357 0 3.57143V5.71429C0 7.50214 1.32429 8.97357 3.04071 9.23214C3.485 11.0129 4.75286 12.47 6.42857 13.1507V16.4286C5.24714 16.4286 4.28571 17.39 4.28571 18.5714V19.2857C4.28571 19.68 4.60571 20 5 20H12.1429C12.5371 20 12.8571 19.68 12.8571 19.2857V18.5714C12.8571 17.39 11.8957 16.4286 10.7143 16.4286V13.1507C12.39 12.47 13.6579 11.0129 14.1021 9.23214C15.8186 8.97357 17.1429 7.50214 17.1429 5.71429V3.57143C17.1429 2.78357 16.5021 2.14286 15.7143 2.14286ZM1.42857 5.71429V3.57143H2.85714V7.735C2.02571 7.44 1.42857 6.64571 1.42857 5.71429ZM11.4286 18.5714H5.71429C5.71429 18.1779 6.035 17.8571 6.42857 17.8571H10.7143C11.1079 17.8571 11.4286 18.1779 11.4286 18.5714ZM7.85714 16.4286V13.5714H9.28571V16.4286H7.85714ZM12.8571 7.85714C12.8571 10.2207 10.935 12.1429 8.57143 12.1429C6.20786 12.1429 4.28571 10.2207 4.28571 7.85714V1.42857H12.8571V7.85714ZM15.7143 5.71429C15.7143 6.64571 15.1171 7.44 14.2857 7.735V3.57143H15.7143V5.71429Z" fill="white"/>
</svg>
