<svg width="40" height="40" viewBox="0 0 40 40" fill="none" xmlns="http://www.w3.org/2000/svg">
<path fill-rule="evenodd" clip-rule="evenodd" d="M7.66688 18.9236L3.56188 16.354C3.26979 16.1706 2.88354 16.2594 2.70063 16.5519C2.51771 16.8444 2.60646 17.2302 2.89854 17.4131L7.00354 19.9831C7.29563 20.1661 7.68188 20.0773 7.86479 19.7852C8.04771 19.4927 7.95896 19.1069 7.66688 18.9236ZM10.8477 9.06814L14.5773 15.0248C14.7602 15.3173 15.1465 15.4061 15.4385 15.2227C15.731 15.0398 15.8198 14.654 15.6369 14.3615L11.9073 8.4048C11.7244 8.1123 11.3385 8.02355 11.046 8.20647C10.7535 8.38939 10.6648 8.77564 10.8477 9.06814Z" fill="url(#paint0_linear_727_10519)"/>
<path fill-rule="evenodd" clip-rule="evenodd" d="M1.84902 12.5908L0.646516 13.7929C0.213183 14.2262 0.0948493 14.8833 0.349849 15.4404L1.1061 17.0933C1.30568 17.53 1.70693 17.8417 2.17985 17.9267C2.65277 18.0117 3.13777 17.86 3.47735 17.52C5.4086 15.5887 10.0832 10.9146 12.0144 8.98291C12.3544 8.64332 12.5061 8.15874 12.4211 7.68582C12.3357 7.21291 12.0244 6.81166 11.5873 6.61166L9.93485 5.85541C9.37735 5.60082 8.72068 5.71916 8.28735 6.15249L3.3911 11.0483C3.14735 11.2921 3.14735 11.6883 3.3911 11.9321C3.63527 12.1762 4.0311 12.1762 4.27527 11.9321L9.1711 7.03624C9.23527 6.97207 9.33235 6.95457 9.41485 6.99249L11.0673 7.74832C11.1323 7.77791 11.1782 7.83707 11.1907 7.90707C11.2036 7.97707 11.1811 8.04874 11.1307 8.09916L2.5936 16.6362C2.54318 16.6867 2.47152 16.7092 2.40152 16.6967C2.33152 16.6837 2.27235 16.6379 2.24277 16.5733C2.24277 16.5729 1.48652 14.9204 1.48652 14.9204C1.44902 14.8379 1.46652 14.7408 1.53068 14.6767L2.73277 13.4746C2.97652 13.2308 2.97652 12.8346 2.73277 12.5908C2.48902 12.3467 2.09277 12.3467 1.84902 12.5908ZM13.0836 10.735L5.10693 18.7117C4.86277 18.9554 4.86277 19.3517 5.10693 19.5954C5.35068 19.8392 5.74693 19.8392 5.99068 19.5954L13.9674 11.6187C14.2111 11.375 14.2111 10.9787 13.9674 10.735C13.7232 10.4908 13.3273 10.4908 13.0836 10.735ZM34.5153 20.41L24.3607 26.7675C24.0686 26.9504 23.9799 27.3362 24.1628 27.6287C24.3457 27.9212 24.7319 28.01 25.024 27.8267L35.1786 21.4696C35.4711 21.2862 35.5598 20.9004 35.3769 20.6079C35.1936 20.3154 34.8078 20.2267 34.5153 20.41ZM11.7423 21.245L20.8319 6.72666C21.0148 6.43416 20.9261 6.04832 20.634 5.86499C20.3415 5.68207 19.9557 5.77082 19.7723 6.06332L10.6828 20.5817C10.4998 20.8742 10.5886 21.26 10.8807 21.4433C11.1732 21.6262 11.5594 21.5375 11.7423 21.245Z" fill="url(#paint1_linear_727_10519)"/>
<path fill-rule="evenodd" clip-rule="evenodd" d="M22.7197 7.92889L20.1514 5.36014C20.0035 5.21222 19.9372 5.0018 19.9743 4.79597C20.0114 4.59014 20.1468 4.41555 20.3368 4.32889L23.7535 2.76597C23.996 2.65514 24.2814 2.70639 24.4702 2.89514L38.346 16.771C38.5347 16.9593 38.586 17.2451 38.4752 17.4876L36.9122 20.9043C36.8256 21.0943 36.651 21.2297 36.4452 21.2668C36.2393 21.3039 36.0285 21.2376 35.881 21.0897L24.351 9.56014C24.1072 9.31597 23.711 9.31597 23.4672 9.56014C23.2231 9.80389 23.2231 10.2001 23.4672 10.4439C23.4672 10.4439 32.5547 19.5314 34.9968 21.9739C35.4343 22.411 36.0581 22.6064 36.6668 22.4968C37.2756 22.3872 37.7918 21.9864 38.0489 21.4243C38.5602 20.3068 39.2122 18.8814 39.6118 18.0076C39.9402 17.2906 39.7877 16.4447 39.2302 15.8872C36.781 13.4385 27.8027 4.45972 25.3539 2.01097C24.7964 1.45347 23.9506 1.30097 23.2335 1.6293L19.8168 3.19222C19.2547 3.4493 18.8539 3.96555 18.7443 4.5743C18.6347 5.18305 18.8302 5.8068 19.2672 6.24389L21.836 8.81264C22.0797 9.05639 22.476 9.05639 22.7197 8.81264C22.9635 8.56889 22.9635 8.17264 22.7197 7.92889ZM17.5552 9.34347L32.0035 23.7914C32.2472 24.0356 32.6435 24.0356 32.8872 23.7914C33.1314 23.5476 33.1314 23.1514 32.8872 22.9076L18.4393 8.4593C18.1952 8.21555 17.7993 8.21555 17.5552 8.4593C17.3114 8.70347 17.3114 9.0993 17.5552 9.34347ZM23.3264 20.7156L28.7252 26.1143C28.9689 26.3581 29.3652 26.3581 29.6089 26.1143C29.8527 25.8701 29.8527 25.4743 29.6089 25.2301L24.2102 19.8314C23.9664 19.5876 23.5702 19.5876 23.3264 19.8314C23.0822 20.0756 23.0822 20.4714 23.3264 20.7156ZM15.2327 12.6218L20.5256 17.9147C20.7697 18.1589 21.1656 18.1589 21.4097 17.9147C21.6535 17.671 21.6535 17.2747 21.4097 17.031L16.1164 11.7381C15.8727 11.4939 15.4764 11.4939 15.2327 11.7381C14.9889 11.9818 14.9889 12.3776 15.2327 12.6218ZM17.4514 20.4418L24.7443 27.7347C24.9885 27.9785 25.3843 27.9785 25.6285 27.7347C25.8722 27.4906 25.8722 27.0947 25.6285 26.8506L18.3356 19.5576C18.0914 19.3139 17.6956 19.3139 17.4514 19.5576C17.2077 19.8018 17.2077 20.1976 17.4514 20.4418ZM12.8664 15.8568L15.8593 18.8497C16.1035 19.0935 16.4993 19.0935 16.7435 18.8497C16.9872 18.6056 16.9872 18.2097 16.7435 17.9656L13.7506 14.9726C13.5064 14.7289 13.1106 14.7289 12.8664 14.9726C12.6227 15.2168 12.6227 15.6126 12.8664 15.8568Z" fill="url(#paint2_linear_727_10519)"/>
<path fill-rule="evenodd" clip-rule="evenodd" d="M24.2104 17.0311C23.1937 16.0144 21.5429 16.0144 20.5258 17.0311C19.5091 18.0477 19.5091 19.6986 20.5258 20.7156C21.5429 21.7323 23.1937 21.7323 24.2104 20.7156C25.227 19.6986 25.227 18.0477 24.2104 17.0311ZM23.3266 17.9148C23.8554 18.444 23.8554 19.3027 23.3266 19.8315C22.7974 20.3606 21.9387 20.3606 21.4099 19.8315C20.8808 19.3027 20.8808 18.444 21.4099 17.9148C21.9387 17.3861 22.7974 17.3861 23.3266 17.9148ZM11.5241 20.2827C6.48536 20.2827 2.39453 24.3736 2.39453 29.4119C2.39453 34.4506 6.48536 38.5415 11.5241 38.5415C16.5629 38.5415 20.6537 34.4506 20.6537 29.4119C20.6537 24.3736 16.5629 20.2827 11.5241 20.2827ZM11.5241 21.5327C15.8729 21.5327 19.4037 25.0631 19.4037 29.4119C19.4037 33.7606 15.8729 37.2915 11.5241 37.2915C7.17536 37.2915 3.64453 33.7606 3.64453 29.4119C3.64453 25.0631 7.17536 21.5327 11.5241 21.5327Z" fill="url(#paint3_linear_727_10519)"/>
<path fill-rule="evenodd" clip-rule="evenodd" d="M10.2683 26.0756C10.6587 25.9281 11.082 25.8477 11.5241 25.8477C13.4912 25.8477 15.0883 27.4447 15.0883 29.4118C15.0883 31.3793 13.4912 32.9764 11.5241 32.9764C9.55704 32.9764 7.95996 31.3793 7.95996 29.4118C7.95996 28.5768 8.24788 27.8085 8.72954 27.2006C8.94371 26.9306 8.89829 26.5368 8.62788 26.3227C8.35788 26.1085 7.96454 26.1539 7.74996 26.4239C7.09913 27.2452 6.70996 28.2835 6.70996 29.4118C6.70996 32.0689 8.86704 34.2264 11.5241 34.2264C14.1812 34.2264 16.3383 32.0689 16.3383 29.4118C16.3383 26.7547 14.1812 24.5977 11.5241 24.5977C10.927 24.5977 10.355 24.7068 9.82704 24.906C9.50454 25.0277 9.34121 25.3885 9.46288 25.7114C9.58454 26.0339 9.94538 26.1972 10.2683 26.0756ZM24.9845 26.6639C21.7066 26.6639 19.0458 29.3252 19.0458 32.6027C19.0458 35.8802 21.7066 38.5414 24.9845 38.5414C28.262 38.5414 30.9233 35.8802 30.9233 32.6027C30.9233 29.3252 28.262 26.6639 24.9845 26.6639ZM24.9845 27.9139C27.572 27.9139 29.6733 30.0147 29.6733 32.6027C29.6733 35.1906 27.572 37.2914 24.9845 37.2914C22.3966 37.2914 20.2958 35.1906 20.2958 32.6027C20.2958 30.0147 22.3966 27.9139 24.9845 27.9139Z" fill="url(#paint4_linear_727_10519)"/>
<path fill-rule="evenodd" clip-rule="evenodd" d="M24.9844 30.1992C23.6577 30.1992 22.5811 31.2759 22.5811 32.6026C22.5811 33.9288 23.6577 35.0059 24.9844 35.0059C26.3106 35.0059 27.3877 33.9288 27.3877 32.6026C27.3877 31.2759 26.3106 30.1992 24.9844 30.1992ZM24.9844 31.4492C25.6206 31.4492 26.1377 31.9659 26.1377 32.6026C26.1377 33.2392 25.6206 33.7559 24.9844 33.7559C24.3477 33.7559 23.8311 33.2392 23.8311 32.6026C23.8311 31.9659 24.3477 31.4492 24.9844 31.4492Z" fill="url(#paint5_linear_727_10519)"/>
<defs>
<linearGradient id="paint0_linear_727_10519" x1="15.732" y1="8.11133" x2="8.96596" y2="22.9739" gradientUnits="userSpaceOnUse">
<stop stop-color="#C7401B"/>
<stop offset="1" stop-color="#581A09"/>
</linearGradient>
<linearGradient id="paint1_linear_727_10519" x1="35.4721" y1="5.72266" x2="25.9479" y2="36.0128" gradientUnits="userSpaceOnUse">
<stop stop-color="#C7401B"/>
<stop offset="1" stop-color="#581A09"/>
</linearGradient>
<linearGradient id="paint2_linear_727_10519" x1="39.7831" y1="1.45801" x2="24.1554" y2="33.5108" gradientUnits="userSpaceOnUse">
<stop stop-color="#C7401B"/>
<stop offset="1" stop-color="#581A09"/>
</linearGradient>
<linearGradient id="paint3_linear_727_10519" x1="24.9729" y1="16.2686" x2="11.7348" y2="43.1425" gradientUnits="userSpaceOnUse">
<stop stop-color="#C7401B"/>
<stop offset="1" stop-color="#581A09"/>
</linearGradient>
<linearGradient id="paint4_linear_727_10519" x1="30.9233" y1="24.5977" x2="25.3705" y2="43.9075" gradientUnits="userSpaceOnUse">
<stop stop-color="#C7401B"/>
<stop offset="1" stop-color="#581A09"/>
</linearGradient>
<linearGradient id="paint5_linear_727_10519" x1="27.3877" y1="30.1992" x2="24.5072" y2="35.9677" gradientUnits="userSpaceOnUse">
<stop stop-color="#C7401B"/>
<stop offset="1" stop-color="#581A09"/>
</linearGradient>
</defs>
</svg>
