<svg width="22" height="16" viewBox="0 0 22 16" fill="none" xmlns="http://www.w3.org/2000/svg">
<path d="M20.3991 0H10.4617C10.0369 -4.52647e-07 9.62949 0.168586 9.3289 0.468736C9.02831 0.768887 8.85913 1.17606 8.85851 1.60085V4.72064H1.60319C1.1784 4.72064 0.77098 4.88922 0.47039 5.18937C0.169801 5.48952 0.000620128 5.8967 0 6.32149V11.7302C0.000619085 12.1546 0.169478 12.5614 0.469562 12.8615C0.769646 13.1616 1.17647 13.3304 1.60085 13.3311H4.61064L6.30978 15.4374C6.3422 15.4769 6.38293 15.5086 6.42905 15.5305C6.47517 15.5523 6.52556 15.5637 6.57659 15.5638C6.62757 15.5639 6.67789 15.5524 6.72373 15.5301C6.76956 15.5078 6.80969 15.4753 6.84106 15.4351L8.52851 13.3287H11.5383C11.9631 13.3287 12.3705 13.1601 12.6711 12.86C12.9717 12.5598 13.1409 12.1527 13.1415 11.7279V8.61276H13.4691L15.1706 10.7191C15.203 10.7615 15.2448 10.7956 15.2928 10.8188C15.3408 10.842 15.3935 10.8536 15.4468 10.8525C15.4981 10.8525 15.5487 10.8409 15.5949 10.8186C15.6411 10.7963 15.6816 10.7639 15.7136 10.7238L17.4011 8.61744H20.3991C20.6099 8.61714 20.8185 8.57529 21.013 8.49429C21.2076 8.41329 21.3842 8.29473 21.5329 8.1454C21.6816 7.99606 21.7994 7.81888 21.8795 7.62398C21.9597 7.42909 22.0006 7.2203 22 7.00957V1.60085C21.9994 1.17647 21.8305 0.769646 21.5304 0.469562C21.2303 0.169478 20.8235 0.000619085 20.3991 0ZM12.4604 11.7302C12.4568 11.9736 12.3585 12.2061 12.1863 12.3782C12.0142 12.5504 11.7817 12.6487 11.5383 12.6523H8.36468C8.31395 12.6523 8.26386 12.6636 8.2181 12.6855C8.17233 12.7074 8.13204 12.7392 8.10021 12.7787L6.57425 14.6885L5.03893 12.7787C5.00652 12.7393 4.96579 12.7075 4.91967 12.6857C4.87355 12.6638 4.82316 12.6524 4.77213 12.6523H1.60085C1.35669 12.6517 1.12275 12.5543 0.95032 12.3814C0.777894 12.2086 0.681063 11.9744 0.681064 11.7302V6.32149C0.681064 6.07754 0.777969 5.84359 0.950463 5.6711C1.12296 5.49861 1.35691 5.4017 1.60085 5.4017H11.5383C11.7825 5.4017 12.0166 5.49853 12.1895 5.67096C12.3624 5.84338 12.4598 6.07733 12.4604 6.32149V11.7302ZM21.3189 7.00957C21.3189 7.25373 21.2221 7.48792 21.0497 7.66079C20.8772 7.83365 20.6433 7.93108 20.3991 7.9317H17.2255C17.1742 7.93176 17.1236 7.94336 17.0774 7.96564C17.0313 7.98793 16.9907 8.02032 16.9587 8.06042L15.4468 9.96787L13.9091 8.05808C13.8772 8.01872 13.8369 7.98695 13.7912 7.96509C13.7454 7.94323 13.6954 7.93183 13.6447 7.9317H13.1532V6.32149C13.1529 6.11016 13.1108 5.90098 13.0294 5.70598C12.9479 5.51097 12.8287 5.33399 12.6787 5.18522C12.5286 5.03644 12.3506 4.91881 12.1549 4.83908C11.9592 4.75935 11.7496 4.71909 11.5383 4.72064H9.53957V1.60085C9.54019 1.35669 9.63762 1.12275 9.81048 0.95032C9.98335 0.777894 10.2175 0.681063 10.4617 0.681064H20.3991C20.6431 0.681064 20.877 0.77797 21.0495 0.950463C21.222 1.12296 21.3189 1.35691 21.3189 1.60085V7.00957Z" fill="white"/>
<path d="M9.4483 8.17483L7.66489 7.94079L6.85277 6.33525C6.82293 6.2811 6.77974 6.23548 6.72731 6.20271C6.67488 6.16994 6.61494 6.15111 6.55319 6.14802C6.4898 6.1492 6.42799 6.168 6.37467 6.2023C6.32135 6.23661 6.27862 6.28507 6.25128 6.34228L5.47191 7.96419L3.69553 8.24036C3.63377 8.25084 3.57607 8.27809 3.52875 8.31915C3.48143 8.36021 3.44631 8.41348 3.42722 8.47315C3.40814 8.53282 3.40582 8.59659 3.42054 8.65749C3.43525 8.71839 3.46642 8.77407 3.51064 8.81844L4.81192 10.0589L4.51936 11.8353C4.5088 11.8982 4.51618 11.9628 4.54066 12.0217C4.56514 12.0806 4.60573 12.1314 4.65777 12.1683C4.70981 12.2052 4.7712 12.2267 4.8349 12.2303C4.89859 12.2339 4.96201 12.2195 5.01787 12.1887L6.6 11.3344L8.19149 12.1559C8.24804 12.1851 8.31168 12.1978 8.37512 12.1926C8.43857 12.1874 8.49927 12.1644 8.55028 12.1264C8.6013 12.0883 8.64058 12.0366 8.66363 11.9773C8.68668 11.9179 8.69257 11.8533 8.68064 11.7908L8.35766 10.0214L9.63319 8.75291C9.67756 8.70792 9.70858 8.6515 9.72281 8.58993C9.73704 8.52836 9.73392 8.46405 9.71379 8.40415C9.69366 8.34425 9.65731 8.2911 9.60879 8.25062C9.56027 8.21014 9.50147 8.1839 9.43894 8.17483H9.4483ZM7.76085 9.65866C7.72184 9.69761 7.69275 9.74537 7.67605 9.79791C7.65935 9.85046 7.65553 9.90624 7.66489 9.96057L7.89894 11.2291L6.75213 10.6416C6.70335 10.6162 6.64916 10.6029 6.59415 10.6029C6.53914 10.6029 6.48495 10.6162 6.43617 10.6416L5.3034 11.2525L5.50702 9.98164C5.5156 9.92729 5.51094 9.87167 5.49342 9.81952C5.47589 9.76736 5.44604 9.7202 5.40638 9.68206L4.47021 8.7927L5.74106 8.59376C5.79583 8.58539 5.84771 8.56373 5.89218 8.53069C5.93665 8.49764 5.97235 8.45421 5.99617 8.40419L6.55319 7.23398L7.13596 8.38313C7.16106 8.43221 7.19751 8.47459 7.24229 8.50675C7.28707 8.53891 7.33887 8.55991 7.3934 8.56802L8.67128 8.73887L7.76085 9.65866ZM18.8287 3.10547H12.0415C11.9515 3.10547 11.8652 3.14122 11.8015 3.20487C11.7379 3.26851 11.7021 3.35483 11.7021 3.44483C11.7021 3.53483 11.7379 3.62115 11.8015 3.68479C11.8652 3.74844 11.9515 3.78419 12.0415 3.78419H18.8287C18.9187 3.78419 19.005 3.74844 19.0687 3.68479C19.1323 3.62115 19.1681 3.53483 19.1681 3.44483C19.1681 3.35483 19.1323 3.26851 19.0687 3.20487C19.005 3.14122 18.9187 3.10547 18.8287 3.10547ZM18.8287 4.97781H13.7383C13.6529 4.9849 13.5732 5.02385 13.5151 5.08693C13.4571 5.15001 13.4248 5.23261 13.4248 5.31834C13.4248 5.40407 13.4571 5.48668 13.5151 5.54975C13.5732 5.61283 13.6529 5.65178 13.7383 5.65887H18.8287C18.9142 5.65178 18.9938 5.61283 19.0519 5.54975C19.1099 5.48668 19.1422 5.40407 19.1422 5.31834C19.1422 5.23261 19.1099 5.15001 19.0519 5.08693C18.9938 5.02385 18.9142 4.9849 18.8287 4.97781Z" fill="white"/>
</svg>
