<svg width="42" height="40" viewBox="0 0 42 40" fill="none" xmlns="http://www.w3.org/2000/svg">
<path d="M16.8535 27.9651H2.11029C1.55116 27.9642 1.01516 27.7418 0.619635 27.3466C0.224115 26.9514 0.00130876 26.4156 0 25.8564V2.11029C0.000655005 1.55081 0.223199 1.01443 0.618813 0.618813C1.01443 0.223199 1.55081 0.000655005 2.11029 0H33.7704C34.3301 0.000436653 34.8667 0.222884 35.2624 0.618522C35.6582 1.01416 35.8809 1.55067 35.8815 2.11029V14.1261C35.8754 14.3002 35.802 14.4652 35.6766 14.5862C35.5513 14.7072 35.3839 14.7749 35.2096 14.7749C35.0354 14.7749 34.8679 14.7072 34.7426 14.5862C34.6172 14.4652 34.5438 14.3002 34.5377 14.1261V2.11029C34.5374 1.90688 34.4565 1.71186 34.3127 1.56802C34.1689 1.42418 33.9739 1.34328 33.7704 1.34306H2.11029C1.90688 1.34328 1.71186 1.42418 1.56802 1.56802C1.42418 1.71186 1.34328 1.90688 1.34306 2.11029V25.8564C1.34328 26.0598 1.42418 26.2549 1.56802 26.3987C1.71186 26.5425 1.90688 26.6234 2.11029 26.6237H16.8535C17.0316 26.6237 17.2024 26.6944 17.3283 26.8203C17.4542 26.9463 17.525 27.1171 17.525 27.2952C17.525 27.4733 17.4542 27.6441 17.3283 27.77C17.2024 27.896 17.0316 27.9667 16.8535 27.9667V27.9651Z" fill="url(#paint0_linear_727_10504)"/>
<path d="M35.2092 8.53747H0.671531C0.49343 8.53747 0.322623 8.46672 0.196687 8.34078C0.0707504 8.21484 0 8.04404 0 7.86594C0 7.68783 0.0707504 7.51703 0.196687 7.39109C0.322623 7.26515 0.49343 7.1944 0.671531 7.1944H35.2092C35.3873 7.1944 35.5581 7.26515 35.684 7.39109C35.81 7.51703 35.8807 7.68783 35.8807 7.86594C35.8807 8.04404 35.81 8.21484 35.684 8.34078C35.5581 8.46672 35.3873 8.53747 35.2092 8.53747ZM5.70801 4.93974H4.26926C4.09115 4.93974 3.92035 4.86899 3.79441 4.74306C3.66847 4.61712 3.59772 4.44631 3.59772 4.26821C3.59772 4.09011 3.66847 3.9193 3.79441 3.79337C3.92035 3.66743 4.09115 3.59668 4.26926 3.59668H5.70801C5.88612 3.59668 6.05692 3.66743 6.18286 3.79337C6.3088 3.9193 6.37955 4.09011 6.37955 4.26821C6.37955 4.44631 6.3088 4.61712 6.18286 4.74306C6.05692 4.86899 5.88612 4.93974 5.70801 4.93974ZM31.6115 4.93974H15.7859C15.6078 4.93974 15.437 4.86899 15.3111 4.74306C15.1852 4.61712 15.1144 4.44631 15.1144 4.26821C15.1144 4.09011 15.1852 3.9193 15.3111 3.79337C15.437 3.66743 15.6078 3.59668 15.7859 3.59668H31.6115C31.7896 3.59668 31.9604 3.66743 32.0863 3.79337C32.2122 3.9193 32.283 4.09011 32.283 4.26821C32.283 4.44631 32.2122 4.61712 32.0863 4.74306C31.9604 4.86899 31.7896 4.93974 31.6115 4.93974ZM10.0251 4.93974H8.58636C8.40826 4.93974 8.23745 4.86899 8.11152 4.74306C7.98558 4.61712 7.91483 4.44631 7.91483 4.26821C7.91483 4.09011 7.98558 3.9193 8.11152 3.79337C8.23745 3.66743 8.40826 3.59668 8.58636 3.59668H10.0251C10.2032 3.59668 10.374 3.66743 10.5 3.79337C10.6259 3.9193 10.6967 4.09011 10.6967 4.26821C10.6967 4.44631 10.6259 4.61712 10.5 4.74306C10.374 4.86899 10.2032 4.93974 10.0251 4.93974ZM31.6115 16.2131H12.1841C12.0064 16.2131 11.836 16.1426 11.7101 16.0172C11.5842 15.8918 11.5132 15.7217 11.5126 15.544V11.4637C11.5126 11.2856 11.5833 11.1148 11.7092 10.9888C11.8352 10.8629 12.006 10.7921 12.1841 10.7921H31.6115C31.7895 10.7923 31.9602 10.8632 32.0861 10.9891C32.212 11.1149 32.2828 11.2856 32.283 11.4637V15.544C32.2821 15.7216 32.211 15.8916 32.0852 16.017C31.9594 16.1424 31.7891 16.2128 31.6115 16.2131ZM12.8556 14.8692H30.9399V12.1352H12.8556V14.8692ZM16.9607 19.1293H12.1841C12.006 19.1293 11.8352 19.0586 11.7092 18.9327C11.5833 18.8067 11.5126 18.6359 11.5126 18.4578C11.5126 18.2797 11.5833 18.1089 11.7092 17.983C11.8352 17.857 12.006 17.7863 12.1841 17.7863H16.9607C17.1388 17.7863 17.3096 17.857 17.4355 17.983C17.5615 18.1089 17.6322 18.2797 17.6322 18.4578C17.6322 18.6359 17.5615 18.8067 17.4355 18.9327C17.3096 19.0586 17.1388 19.1293 16.9607 19.1293ZM28.9204 19.1293H20.0931C19.915 19.1293 19.7442 19.0586 19.6183 18.9327C19.4924 18.8067 19.4216 18.6359 19.4216 18.4578C19.4216 18.2797 19.4924 18.1089 19.6183 17.983C19.7442 17.857 19.915 17.7863 20.0931 17.7863H28.9204C29.0985 17.7863 29.2693 17.857 29.3952 17.983C29.5212 18.1089 29.5919 18.2797 29.5919 18.4578C29.5919 18.6359 29.5212 18.8067 29.3952 18.9327C29.2693 19.0586 29.0985 19.1293 28.9204 19.1293ZM23.4302 22.0506H12.1841C12.006 22.0506 11.8352 21.9798 11.7092 21.8539C11.5833 21.728 11.5126 21.5572 11.5126 21.3791C11.5126 21.201 11.5833 21.0302 11.7092 20.9042C11.8352 20.7783 12.006 20.7075 12.1841 20.7075H23.4302C23.6083 20.7075 23.7791 20.7783 23.905 20.9042C24.031 21.0302 24.1017 21.201 24.1017 21.3791C24.1017 21.5572 24.031 21.728 23.905 21.8539C23.7791 21.9798 23.6083 22.0506 23.4302 22.0506ZM9.30574 22.0489H4.27338C4.09528 22.0489 3.92447 21.9782 3.79854 21.8523C3.6726 21.7263 3.60185 21.5555 3.60185 21.3774V11.4637C3.60185 11.2856 3.6726 11.1148 3.79854 10.9888C3.92447 10.8629 4.09528 10.7921 4.27338 10.7921H9.30986C9.48797 10.7921 9.65877 10.8629 9.78471 10.9888C9.91065 11.1148 9.9814 11.2856 9.9814 11.4637V21.3774C9.9814 21.4659 9.96389 21.5536 9.92989 21.6353C9.89588 21.7171 9.84605 21.7913 9.78325 21.8537C9.72046 21.9161 9.64594 21.9655 9.56399 21.999C9.48204 22.0325 9.39427 22.0495 9.30574 22.0489ZM4.94079 20.7059H8.63421V12.1352H4.94079V20.7059ZM37.2906 35.11C36.9698 35.1094 36.6589 34.9981 36.4106 34.7949C36.1623 34.5917 35.9918 34.309 35.9277 33.9946L32.7466 18.2664C32.7104 18.0874 32.7098 17.903 32.7448 17.7237C32.7798 17.5444 32.8498 17.3738 32.9508 17.2216C33.0518 17.0694 33.1817 16.9386 33.3333 16.8366C33.4848 16.7346 33.6549 16.6634 33.834 16.6272L35.2447 16.3417C35.6062 16.269 35.9818 16.3426 36.2891 16.5465C36.5964 16.7503 36.8103 17.0677 36.8839 17.4291L40.065 33.1581C40.1012 33.3371 40.1019 33.5215 40.0668 33.7008C40.0318 33.8801 39.9618 34.0507 39.8608 34.2029C39.7599 34.3551 39.6299 34.4859 39.4784 34.5879C39.3269 34.6899 39.1567 34.7611 38.9777 34.7973L37.5653 35.0819C37.4749 35.1005 37.3829 35.1099 37.2906 35.11ZM35.5202 17.6568H35.5111L34.1004 17.943C34.0941 17.944 34.0882 17.9464 34.0829 17.95C34.0776 17.9535 34.0732 17.9582 34.0699 17.9637C34.0664 17.9688 34.0641 17.9746 34.0629 17.9807C34.0618 17.9868 34.0619 17.9931 34.0633 17.9991L37.2444 33.7281C37.2456 33.7343 37.248 33.7402 37.2515 33.7455C37.2549 33.7507 37.2594 33.7552 37.2646 33.7587C37.2698 33.7623 37.2757 33.7647 37.2818 33.766C37.288 33.7673 37.2943 33.7673 37.3005 33.7661L38.7112 33.4806C38.7175 33.4796 38.7234 33.4772 38.7287 33.4736C38.734 33.4701 38.7384 33.4654 38.7417 33.46C38.7453 33.4549 38.7477 33.4491 38.749 33.443C38.7503 33.4369 38.7503 33.4307 38.7492 33.4245L35.5672 17.6947C35.5651 17.6839 35.5592 17.6741 35.5506 17.6672C35.542 17.6602 35.5313 17.6566 35.5202 17.6568Z" fill="url(#paint1_linear_727_10504)"/>
<path d="M36.5014 34.1143C36.4288 34.1141 36.3566 34.1021 36.2878 34.0788C32.2557 32.7447 27.9895 32.267 23.7621 32.6763C23.6178 32.6903 23.4742 32.6978 23.3315 32.6978C22.2901 32.7028 21.2817 32.3328 20.4907 31.6555C19.6996 30.9782 19.1787 30.0389 19.0232 29.0091C18.8677 27.9794 19.088 26.9281 19.6439 26.0475C20.1997 25.1668 21.0539 24.5156 22.0503 24.2129C26.1044 22.9465 29.8494 20.8475 33.0456 18.0503C33.111 17.9886 33.1882 17.9406 33.2725 17.9093C33.3569 17.8779 33.4466 17.8638 33.5365 17.8679C33.6264 17.8719 33.7145 17.8939 33.7957 17.9327C33.8769 17.9714 33.9495 18.0261 34.0092 18.0934C34.0688 18.1608 34.1143 18.2394 34.143 18.3247C34.1717 18.4099 34.1829 18.5001 34.1761 18.5898C34.1692 18.6795 34.1444 18.7669 34.1031 18.8469C34.0619 18.9268 34.0049 18.9976 33.9358 19.0551C30.5978 21.9759 26.6867 24.1676 22.4529 25.4899C21.7377 25.7044 21.1283 26.1784 20.7444 26.8188C20.3605 27.4593 20.2298 28.2201 20.3778 28.952C20.5258 29.6839 20.9419 30.3341 21.5445 30.7751C22.1471 31.2161 22.8927 31.416 23.6351 31.3357C28.0503 30.9089 32.506 31.4091 36.7168 32.8042C36.868 32.8548 36.9963 32.9575 37.0787 33.094C37.1612 33.2305 37.1923 33.3919 37.1666 33.5493C37.1409 33.7067 37.06 33.8498 36.9385 33.953C36.8169 34.0562 36.6626 34.1128 36.5031 34.1126L36.5014 34.1143Z" fill="url(#paint2_linear_727_10504)"/>
<path d="M26.9797 32.5348C26.8243 32.5352 26.6737 32.4818 26.5533 32.3835C26.433 32.2853 26.3504 32.1484 26.3197 31.9961L24.6697 23.842C24.6398 23.6697 24.6782 23.4926 24.7769 23.3482C24.8756 23.2038 25.0267 23.1036 25.1981 23.0689C25.3695 23.0341 25.5477 23.0677 25.6947 23.1623C25.8418 23.2569 25.9461 23.4052 25.9856 23.5756L27.6355 31.7305C27.6552 31.8281 27.653 31.9289 27.6289 32.0255C27.6048 32.1222 27.5596 32.2123 27.4964 32.2893C27.4332 32.3663 27.3537 32.4282 27.2636 32.4707C27.1736 32.5132 27.0752 32.5351 26.9756 32.5348H26.9797ZM25.2943 40C24.8492 39.9998 24.4157 39.8577 24.0569 39.5943C23.698 39.331 23.4324 38.9602 23.2986 38.5357C23.2986 38.5266 23.2929 38.5167 23.2904 38.5077L21.5464 32.0134C21.5002 31.8414 21.5243 31.658 21.6133 31.5037C21.7024 31.3493 21.8491 31.2367 22.0212 31.1905C22.1932 31.1444 22.3766 31.1684 22.5309 31.2575C22.6853 31.3465 22.7979 31.4932 22.8441 31.6653L24.5831 38.1422C24.6419 38.3159 24.7622 38.462 24.9213 38.5532C25.0804 38.6444 25.2673 38.6742 25.4469 38.6372C25.5511 38.6165 25.6498 38.574 25.7364 38.5124C25.823 38.4508 25.8956 38.3716 25.9494 38.2799C26.0032 38.1883 26.0369 38.0863 26.0484 37.9806C26.0599 37.875 26.0489 37.7681 26.0161 37.667L26.0062 37.6315L24.5064 32.077C24.4834 31.9918 24.4775 31.903 24.4888 31.8155C24.5002 31.728 24.5287 31.6437 24.5727 31.5672C24.6166 31.4908 24.6752 31.4237 24.7451 31.3699C24.815 31.3161 24.8948 31.2766 24.9799 31.2536C25.0651 31.2307 25.1539 31.2247 25.2414 31.2361C25.3289 31.2474 25.4132 31.2759 25.4897 31.3199C25.5661 31.3639 25.6332 31.4225 25.687 31.4923C25.7408 31.5622 25.7803 31.642 25.8033 31.7272L27.2981 37.2652C27.3877 37.5459 27.4171 37.8423 27.3844 38.1352C27.3517 38.428 27.2577 38.7106 27.1085 38.9647C26.9593 39.2187 26.7582 39.4385 26.5184 39.6096C26.2786 39.7808 26.0054 39.8995 25.7166 39.958C25.5776 39.9859 25.4361 40 25.2943 40ZM38.4403 29.1846C38.2737 29.1845 38.1132 29.1225 37.9898 29.0106C37.8664 28.8988 37.789 28.7451 37.7725 28.5794C37.7561 28.4137 37.8018 28.2477 37.9008 28.1138C37.9998 27.9799 38.145 27.8876 38.3083 27.8547C38.627 27.7903 38.9299 27.6637 39.1997 27.4821C39.4695 27.3006 39.7009 27.0677 39.8807 26.7968C40.0605 26.5258 40.1852 26.2221 40.2476 25.903C40.31 25.5838 40.3089 25.2555 40.2445 24.9368C40.18 24.6181 40.0534 24.3151 39.8719 24.0453C39.6904 23.7755 39.4575 23.5441 39.1865 23.3643C38.9156 23.1846 38.6118 23.0599 38.2927 22.9975C37.9736 22.9351 37.6453 22.9361 37.3265 23.0006C37.2399 23.018 37.1506 23.0182 37.0639 23.0012C36.9771 22.9841 36.8946 22.9501 36.821 22.9012C36.7473 22.8522 36.6841 22.7893 36.6348 22.7159C36.5855 22.6425 36.5512 22.5601 36.5337 22.4734C36.5163 22.3867 36.5161 22.2975 36.5331 22.2107C36.5502 22.124 36.5842 22.0414 36.6331 21.9678C36.6821 21.8942 36.745 21.831 36.8184 21.7817C36.8918 21.7324 36.9742 21.698 37.0609 21.6806C38.0499 21.4897 39.0742 21.6971 39.911 22.2577C40.7478 22.8183 41.3293 23.6868 41.5289 24.674C41.7285 25.6613 41.53 26.6874 40.9768 27.5291C40.4235 28.3708 39.5602 28.9598 38.5747 29.1681C38.5306 29.1781 38.4855 29.1836 38.4403 29.1846Z" fill="url(#paint3_linear_727_10504)"/>
<defs>
<linearGradient id="paint0_linear_727_10504" x1="35.8816" y1="8.32399e-07" x2="21.7083" y2="36.4157" gradientUnits="userSpaceOnUse">
<stop stop-color="#2D44B4"/>
<stop offset="1" stop-color="#010C42"/>
</linearGradient>
<linearGradient id="paint1_linear_727_10504" x1="40.0927" y1="3.59668" x2="24.0229" y2="44.5389" gradientUnits="userSpaceOnUse">
<stop stop-color="#2D44B4"/>
<stop offset="1" stop-color="#010C42"/>
</linearGradient>
<linearGradient id="paint2_linear_727_10504" x1="37.1754" y1="17.8672" x2="28.1167" y2="38.1894" gradientUnits="userSpaceOnUse">
<stop stop-color="#2D44B4"/>
<stop offset="1" stop-color="#010C42"/>
</linearGradient>
<linearGradient id="paint3_linear_727_10504" x1="41.6046" y1="21.6113" x2="31.1774" y2="44.4145" gradientUnits="userSpaceOnUse">
<stop stop-color="#2D44B4"/>
<stop offset="1" stop-color="#010C42"/>
</linearGradient>
</defs>
</svg>
