<svg width="19" height="18" viewBox="0 0 19 18" fill="none" xmlns="http://www.w3.org/2000/svg">
<path d="M9.36 0C4.266 0 0 3.6576 0 8.28C0 10.4616 0.97848 12.4186 2.52 13.8823C2.33257 14.3721 2.06652 14.8281 1.73232 15.2323C1.28937 15.7696 0.800049 16.2669 0.27 16.7184C0.153732 16.8117 0.069281 16.9387 0.0283025 17.0821C-0.012676 17.2254 -0.00816212 17.3779 0.0412213 17.5185C0.0906047 17.6592 0.182423 17.781 0.304005 17.8673C0.425587 17.9535 0.570938 17.9999 0.72 18C2.3148 18 3.46176 17.982 4.5 17.7077C5.4288 17.4614 6.22728 16.9459 7.04232 16.2223C7.78392 16.4002 8.54928 16.56 9.36 16.56C14.454 16.56 18.72 12.9024 18.72 8.28C18.72 3.6576 14.454 0 9.36 0ZM9.36 1.44C13.77 1.44 17.28 4.5504 17.28 8.28C17.28 12.0096 13.77 15.12 9.36 15.12C8.57592 15.12 7.7616 14.9846 7.02 14.7823C6.90141 14.7525 6.77717 14.7534 6.65901 14.7849C6.54085 14.8164 6.43266 14.8774 6.34464 14.9623C5.53464 15.7392 4.93776 16.1014 4.14 16.3123C3.7728 16.4095 3.06432 16.3865 2.56464 16.4254C2.66544 16.3116 2.75976 16.2511 2.85768 16.1323C3.4236 15.4411 3.93984 14.7103 4.09536 13.8823C4.11678 13.758 4.10518 13.6303 4.06171 13.5119C4.01824 13.3935 3.94444 13.2886 3.84768 13.2077C2.33928 11.9621 1.44 10.2161 1.44 8.28C1.44 4.5504 4.95 1.44 9.36 1.44ZM7.98768 4.25232C7.86094 4.28076 7.74426 4.34296 7.65 4.43232L6.57 5.44536L7.53768 6.50232L8.39232 5.69232H10.1246L10.8 6.4584V7.51608L8.95464 8.75304C8.856 8.82021 8.77561 8.91085 8.72069 9.01679C8.66576 9.12274 8.63804 9.24068 8.64 9.36V10.8H10.08V9.76464L11.9254 8.52768C12.0241 8.46044 12.1046 8.36969 12.1595 8.26361C12.2144 8.15753 12.2421 8.03944 12.24 7.92V6.18768C12.2391 6.01366 12.1751 5.84587 12.06 5.71536L10.98 4.5C10.9128 4.42267 10.8299 4.36058 10.7367 4.31787C10.6436 4.27516 10.5424 4.25281 10.44 4.25232H8.14464C8.09248 4.2466 8.03984 4.2466 7.98768 4.25232ZM8.64 11.52V12.96H10.08V11.52H8.64Z" fill="white"/>
</svg>
