<svg width="18" height="19" viewBox="0 0 18 19" fill="none" xmlns="http://www.w3.org/2000/svg">
<path d="M7.30364 2.96387C5.83378 2.96387 4.63768 4.15968 4.63768 5.62983C4.63768 7.09969 5.83349 8.29578 7.30364 8.29578C8.77378 8.29578 9.9696 7.09997 9.9696 5.62983C9.9696 4.15997 8.77378 2.96387 7.30364 2.96387ZM7.30364 7.86787C6.06986 7.86787 5.06588 6.86389 5.06588 5.63011C5.06588 4.39605 6.06986 3.39235 7.30364 3.39235C8.53742 3.39235 9.5414 4.39633 9.5414 5.63011C9.5414 6.86389 8.53742 7.86787 7.30364 7.86787Z" fill="white"/>
<path d="M8.34587 5.21308L7.26024 4.40522C6.91968 4.15087 6.43182 4.39437 6.43182 4.82142V6.43744C6.43182 6.86507 6.92025 7.10714 7.26053 6.85365L8.34587 6.04578C8.62448 5.83768 8.62477 5.42062 8.34587 5.21308ZM8.09009 5.7018L7.00475 6.50966C6.9448 6.55448 6.86002 6.51195 6.86002 6.43716V4.82114C6.86002 4.74835 6.94338 4.70267 7.00475 4.74863L8.09009 5.5565C8.1389 5.59275 8.13862 5.66554 8.09009 5.7018Z" fill="white"/>
<path d="M16.1796 12.1497H16.4294C17.2955 12.1497 18 11.4452 18 10.5642C18 9.69811 17.2955 8.99386 16.4294 8.99386H15.3826C14.7528 8.99386 14.2404 8.48145 14.2404 7.85172V7.81461C14.2404 7.18459 14.7528 6.67246 15.3826 6.67246H16.2992C17.165 6.67246 17.8695 5.96793 17.8695 5.10212C17.8695 4.2363 17.165 3.53177 16.2992 3.53177H12.8219V1.46501C12.8219 0.657141 12.1648 0 11.3569 0C8.7829 0 3.87861 0 1.30115 0C0.584347 0 0.00142736 0.58292 0.00142736 1.29972C0.00142736 2.39248 0.00199826 -2.97997 0 13.6829C0 14.3991 0.584061 14.9818 1.30201 14.9818H12.3181C12.597 14.9818 12.8237 14.7563 12.8237 14.4794V13.7143C12.8237 13.4357 12.597 13.209 12.3181 13.209H11.8185V12.0872H12.3181C12.597 12.0872 12.8237 11.8616 12.8237 11.5847C12.8214 1.13472 12.8222 4.73901 12.8219 3.9594H16.2992C16.9289 3.9594 17.4413 4.47181 17.4413 5.10155C17.4413 5.73128 16.9289 6.24369 16.2992 6.24369H15.3826C14.5168 6.24369 13.8122 6.94822 13.8122 7.81404V7.85115C13.8122 8.71696 14.5168 9.42149 15.3826 9.42149H16.4294C17.0594 9.42149 17.5718 9.9339 17.5718 10.5788C17.5718 11.2088 17.0594 11.7209 16.4294 11.7209H16.1796C15.7134 11.7209 15.3343 12.1 15.3343 12.5662V13.1696C14.1716 13.2813 13.3012 14.2687 13.3012 15.4085V17.6463C13.3012 18.2261 13.7728 18.6977 14.3526 18.6977H16.7497C17.3292 18.6977 17.801 18.2261 17.801 17.6463C17.8007 16.9803 17.8025 15.5384 17.7987 15.3652C17.7765 14.2159 16.8898 13.2753 15.7625 13.1696V12.5665C15.7625 12.3367 15.9495 12.1497 16.1796 12.1497ZM2.94457 0.428198H11.3572C11.929 0.428198 12.394 0.89322 12.394 1.46501V10.3164H2.94457V0.428198ZM0.42991 1.29972C0.42991 0.819285 0.820712 0.428198 1.30144 0.428198H2.51637V10.3164H1.30144C0.967441 10.3164 0.637444 10.4652 0.42991 10.6527V1.29972ZM4.37589 14.5533L4.95739 13.9984L5.52632 14.5533H4.37589ZM6.09411 14.5093L5.25627 13.692C5.08356 13.5236 4.81266 13.5236 4.63995 13.692L3.77927 14.4996C3.77927 14.4531 3.77927 12.0004 3.77927 12.0883H6.11495L6.09411 14.5093ZM12.3184 13.637C12.3601 13.637 12.3957 13.6724 12.3957 13.714V14.4791C12.3957 14.5199 12.3612 14.5533 12.3184 14.5533H6.53715C6.53943 14.5353 6.54514 14.5182 6.54514 14.4996V13.637C8.07409 13.637 10.8928 13.637 12.3184 13.637ZM6.54514 13.2088V12.0869H11.3906V13.2088H6.54514ZM12.3955 11.5847C12.3955 11.6259 12.3609 11.659 12.3181 11.659C9.15087 11.659 5.05673 11.659 1.91005 11.659C1.62201 11.659 1.38765 11.8933 1.38765 12.1814V13.1177C1.38765 13.4037 1.62001 13.6372 1.91005 13.6372H3.35107V14.4999C3.35107 14.5185 3.35678 14.5356 3.35907 14.5536H1.30229C0.820427 14.5536 0.428483 14.1631 0.428483 13.6829V11.623C0.428483 11.6207 0.42991 11.6184 0.42991 11.6161C0.42991 11.1349 0.833844 10.7455 1.30229 10.7455H12.3955V11.5847ZM3.35107 12.0872V13.209H1.91005C1.85267 13.209 1.81584 13.1679 1.81584 13.1177V12.1814C1.81584 12.1294 1.85809 12.0872 1.91005 12.0872H3.35107ZM17.3728 17.6466C17.3728 17.9903 17.0934 18.2698 16.7497 18.2698H14.3526C14.0092 18.2698 13.7294 17.9903 13.7294 17.6466V15.595H17.3728V17.6466ZM17.3531 15.1573C17.3537 15.1605 17.3543 15.1636 17.3546 15.1668H13.7474C13.7477 15.1636 13.7486 15.1605 13.7489 15.1573C13.8745 14.263 14.6435 13.5913 15.5444 13.5879C15.5459 13.5879 15.547 13.5887 15.5484 13.5887C15.5504 13.5887 15.5521 13.5876 15.5538 13.5876C16.4579 13.589 17.2278 14.2653 17.3531 15.1573Z" fill="white"/>
<path d="M15.2747 14.2483V14.4438C15.2747 14.562 15.3706 14.6579 15.4888 14.6579C15.6069 14.6579 15.7029 14.562 15.7029 14.4438V14.2483C15.7029 14.1301 15.6069 14.0342 15.4888 14.0342C15.3706 14.0342 15.2747 14.1301 15.2747 14.2483Z" fill="white"/>
</svg>
