<svg width="51" height="40" viewBox="0 0 51 40" fill="none" xmlns="http://www.w3.org/2000/svg">
<path fill-rule="evenodd" clip-rule="evenodd" d="M40.6981 38.0243H5.11507C3.25119 38.0243 1.85858 36.4463 1.85858 34.8843C1.85858 34.0106 2.32455 32.8827 2.54165 32.1944L5.01975 24.2093C5.49631 22.4831 6.17938 20.6987 6.693 18.9037C7.10602 17.4528 7.70966 15.1177 9.88065 15.1177H46.1627C47.7724 15.1177 49.0697 16.7909 49.0697 18.1412C49.0697 19.0784 44.6006 32.9939 44.1399 34.3759C43.7905 35.4297 43.7163 36.0598 43.1445 36.8699C42.7314 37.4524 41.7042 38.0295 40.6981 38.0295V38.0243ZM1.85858 27.6776V6.16365C1.85858 4.60689 2.03332 3.18251 3.44181 2.39883C3.75422 2.22409 4.44259 1.97522 4.88208 1.97522H16.6266C19.9255 1.97522 19.8884 6.20071 24.7811 6.72493C26.4543 6.90496 36.7956 6.67198 39.7715 6.73552C41.503 6.77258 42.7897 8.19167 42.7897 10.2303V13.1373H9.99715C8.51981 13.1373 6.93128 14.1487 6.29058 15.0118C5.05152 16.685 3.4577 22.965 2.59989 25.5066C2.43045 26.0097 2.11274 27.307 1.85858 27.6723V27.6776ZM0 4.77104V35.239C0 37.7489 2.38809 40.0046 5.69753 40.0046H40.1157C42.4879 40.0046 44.2247 39.1045 45.236 37.0976C45.6755 36.2239 46.7663 32.4326 47.227 31.0665C47.5553 30.0922 47.8306 29.0649 48.1536 28.043L50.0704 21.9377C50.9441 19.3484 51.7596 16.8915 49.3927 14.567C47.9259 13.1267 46.5492 13.1479 44.6483 13.1479C44.6483 10.4527 45.056 8.05929 43.1709 6.25366C42.419 5.53353 41.2382 4.83987 39.8827 4.77633C36.2767 4.60689 29.5943 4.76045 25.4641 4.77633C23.5208 4.78163 23.0549 4.41097 22.0647 3.4102C21.4187 2.7589 20.3173 1.52514 19.6554 1.05388C18.6493 0.333743 17.5427 0.0107422 15.8165 0.0107422H5.69753C3.73304 0.0107422 2.86994 0.42376 1.75797 1.30275C0.947823 1.94345 0 3.36254 0 4.77633V4.77104Z" fill="#EE7B1D"/>
</svg>
