<svg width="46" height="40" viewBox="0 0 46 40" fill="none" xmlns="http://www.w3.org/2000/svg">
<path fill-rule="evenodd" clip-rule="evenodd" d="M2.05998 5.04668C2.05998 3.24619 3.15616 2.05468 4.96195 2.05468H37.0478C38.7477 2.05468 39.9498 3.20912 39.9498 4.58067V5.984H2.06527V5.04668H2.05998ZM0 5.32735V22.7286C0 25.9589 1.917 28.0612 5.1473 28.0612H18.8046C20.3297 28.0612 20.2556 26.4779 19.5354 26.1178C19.1912 25.943 18.7304 26.0013 18.2486 26.0066C16.0191 26.0119 5.57094 26.0966 4.60185 25.996C3.06084 25.8371 2.06527 24.7303 2.06527 23.0146V8.04927H39.9498V15.0659C39.9498 16.358 42.0098 16.358 42.0098 15.0659V4.68129C42.0098 3.75986 41.6073 2.61072 41.0884 1.95407C40.8977 1.71577 40.7124 1.44569 40.4741 1.25505C39.415 0.41835 38.6259 0 36.7672 0H5.15259C2.01761 0 0.00529557 2.00173 0.00529557 5.33264L0 5.32735Z" fill="#EA5C67"/>
<path fill-rule="evenodd" clip-rule="evenodd" d="M26.0068 28.9934C26.0068 27.0447 26.674 25.3395 27.6325 23.8832C28.1409 23.1154 29.11 22.1463 29.8778 21.6379C30.3809 21.3043 30.7251 21.0766 31.3129 20.8277C33.1558 20.0333 34.9139 19.8056 36.9898 20.2557C38.928 20.6741 40.6067 21.7862 41.8458 23.2583C42.0735 23.5284 42.1318 23.5655 42.3436 23.8832C42.6772 24.3863 42.9049 24.7305 43.1538 25.3183C44.483 28.395 44.1335 31.3817 42.3436 34.1037C41.8352 34.8715 40.8661 35.8406 40.0983 36.349C36.6667 38.6102 32.4144 38.5149 29.2529 35.8512C27.2512 34.1672 26.0068 31.7048 26.0068 28.9934ZM23.9468 28.9934C23.9468 32.3085 25.4613 35.2634 27.8973 37.3922C33.4735 42.2589 42.243 39.9447 45.0232 33.5106C45.7804 31.7577 45.7751 31.2758 45.9446 29.6607C46.2253 27.0129 45.2085 23.9468 43.4292 21.9503C42.619 21.0395 43.0214 21.4208 42.0735 20.5947C36.492 15.7227 27.7278 18.0422 24.9476 24.4763C24.6882 25.0747 24.4181 25.8108 24.2645 26.5045C24.1162 27.1718 23.9468 28.2574 23.9468 28.9934Z" fill="#EA5C67"/>
<path fill-rule="evenodd" clip-rule="evenodd" d="M34.9827 30.4919C34.0348 29.8565 32.8698 27.966 31.9907 27.966C31.4453 27.966 30.9634 28.4479 30.9634 28.9933C30.9634 29.7135 33.161 31.6146 33.7489 32.1971C35.2528 33.7064 35.3481 33.0815 37.6305 30.7938C38.0594 30.3649 38.4195 30.0048 38.8485 29.5758C39.1927 29.2316 39.8758 28.702 39.9923 28.1884C40.13 27.5582 39.5157 26.9333 38.9279 26.9598C38.3401 26.9863 37.8635 27.6588 37.4928 28.0295C36.8997 28.6226 35.5652 30.1001 34.988 30.4866L34.9827 30.4919Z" fill="#EA5C67"/>
<path fill-rule="evenodd" clip-rule="evenodd" d="M4.0249 21.8817C4.0249 22.4853 4.37441 23.0043 4.96222 23.0043H13.1015C14.2983 23.0043 14.5207 20.9443 12.8209 20.9443H5.43353C4.70274 20.9443 4.0302 21.2938 4.0302 21.8817H4.0249Z" fill="#EA5C67"/>
<path fill-rule="evenodd" clip-rule="evenodd" d="M4.0249 17.0199C4.0249 17.5654 4.5068 18.0473 5.05224 18.0473H9.07688C10.369 18.0473 10.369 15.9873 9.07688 15.9873H5.05224C4.5068 15.9873 4.0249 16.4692 4.0249 17.0146V17.0199Z" fill="#EA5C67"/>
</svg>
