<svg width="40" height="40" viewBox="0 0 40 40" fill="none" xmlns="http://www.w3.org/2000/svg">
<path fill-rule="evenodd" clip-rule="evenodd" d="M1.29191 19.9875C1.29191 16.2124 2.74795 11.5848 5.13585 8.67801L6.1895 7.3914C7.90498 5.60708 10.0123 3.93925 12.3102 2.95973C14.6822 1.94315 17.3454 1.29191 19.9875 1.29191C20.7023 1.29191 21.4965 1.3925 22.1636 1.45075C25.1127 1.6996 28.1943 2.98621 30.6404 4.65933C34.5532 7.33845 37.0364 11.2142 38.1853 15.81C38.3336 16.4136 38.4713 17.1442 38.5242 17.8061C38.7942 20.9723 38.6777 22.926 37.6665 25.9811C37.46 26.6058 37.227 27.1088 37.0046 27.6542C35.8398 30.4974 33.1924 33.6107 30.6457 35.3156C28.459 36.777 26.7117 37.55 24.165 38.1853C23.5349 38.3442 22.8519 38.4448 22.1636 38.5242C20.0245 38.7625 17.8908 38.7042 15.81 38.1853C13.1467 37.5235 11.5477 36.8034 9.32925 35.3156C8.37621 34.6803 7.582 33.9814 6.7878 33.1819C4.20928 30.6033 2.67382 27.7336 1.78431 24.1597C1.63606 23.5561 1.4984 22.8254 1.44545 22.1636C1.38721 21.4912 1.28661 20.697 1.28661 19.9875H1.29191ZM0 19.2621V20.7128C0 24.9857 1.80549 29.0732 4.14575 32.2023C4.47402 32.6418 5.6865 34.0449 6.13655 34.3996C6.25833 34.4949 6.31657 34.5585 6.42776 34.675C7.77791 36.0463 9.75283 37.2376 11.4683 38.0953C18.2455 41.4839 26.9977 40.2238 32.8218 35.3262C33.1024 35.0879 33.203 35.0138 33.4625 34.7544C33.7007 34.5161 33.8649 34.4367 34.1137 34.1931C34.3573 33.9496 34.4367 33.7855 34.675 33.5419C37.7035 30.4869 39.9749 25.1604 39.9749 20.7076C39.9749 16.8265 39.5726 14.7881 38.1218 11.5213C37.873 10.9653 37.5817 10.4782 37.2905 9.93814C36.5016 8.47681 35.2891 7.03136 34.1137 5.86123L32.9065 4.73346C30.0527 2.07552 24.8427 0 20.7181 0H19.2674C15.4287 0 11.2936 1.63077 8.46622 3.62687L5.82416 5.81887L4.18281 7.72496C1.82667 10.8859 0.0052947 14.9363 0.0052947 19.2621H0Z" fill="#2F68B1"/>
<path fill-rule="evenodd" clip-rule="evenodd" d="M13.5384 13.5387C13.5384 8.03221 20.3527 4.83951 24.5196 9.00644C25.0914 9.57826 25.4779 10.1183 25.8433 10.9072C27.3576 14.1529 25.7903 17.8645 22.6718 19.3735C19.5532 20.8824 15.7357 19.5058 14.1526 16.2284C13.999 15.9107 13.8296 15.413 13.729 15.0371C13.6443 14.7088 13.5331 13.8934 13.5331 13.5387H13.5384ZM12.2465 13.1363C12.2465 14.6135 12.3259 15.5401 12.9719 16.8426C13.2419 17.3879 13.6178 18.0604 14.0414 18.5157C14.2055 18.6904 14.3538 18.9022 14.4915 19.0293L15.4551 19.8341C17.6524 21.449 20.8239 21.7561 23.2859 20.5489C23.6778 20.3583 24.1013 20.1306 24.4614 19.8712C25.5838 19.0558 26.3304 18.1716 26.9658 16.8955C27.9718 14.8888 27.9823 12.2415 26.9922 10.2295C26.7699 9.77946 26.611 9.46708 26.3145 9.05409C24.9485 7.16388 22.7459 5.79785 20.305 5.79785C18.8596 5.79785 17.9277 5.90375 16.6782 6.52322C16.0746 6.81973 15.5133 7.13741 15.005 7.59275C14.3803 8.15399 14.2426 8.2493 13.6814 9.01173C12.9242 10.0442 12.2412 11.712 12.2412 13.1363H12.2465Z" fill="#2F68B1"/>
<path fill-rule="evenodd" clip-rule="evenodd" d="M5.88232 29.8194C5.88232 30.6295 6.48062 30.9789 7.23247 30.2006C7.48132 29.9412 7.61898 29.8617 7.87842 29.6341C9.06973 28.5751 10.7376 27.5374 12.1989 26.8596C14.465 25.8113 17.4248 25.1389 19.9874 25.1389C20.6598 25.1389 21.5229 25.2448 22.1635 25.2977C25.1709 25.5518 28.2683 26.8702 30.7356 28.5698L32.7 30.1529C33.5312 31.0054 34.0925 30.5977 34.0925 29.8088C34.0925 29.4064 31.9799 27.8074 31.5616 27.5056C30.5768 26.7961 29.6343 26.2878 28.5066 25.7266C22.2429 22.5921 14.1473 23.4551 8.46614 27.4738L6.47004 29.1046C6.29531 29.2793 5.88232 29.5282 5.88232 29.8088V29.8194Z" fill="#2F68B1"/>
</svg>
