<svg width="34" height="40" viewBox="0 0 34 40" fill="none" xmlns="http://www.w3.org/2000/svg">
<path fill-rule="evenodd" clip-rule="evenodd" d="M25.0589 10.0437C25.0007 9.7313 25.2601 8.61416 25.3607 8.3865C26.2343 6.32164 28.5692 5.37392 30.4752 6.18398C33.6519 7.52879 33.779 11.8226 30.8034 13.3422C30.274 13.6122 29.8504 13.7075 29.1992 13.7869C28.1562 13.9087 27.0973 13.3316 26.3666 12.7439C25.5036 12.0503 25.2495 11.0232 25.0642 10.049L25.0589 10.0437ZM24.0794 9.80013C24.0794 12.458 26.3508 14.6976 28.4897 14.6976V37.1463C28.4897 38.3852 27.3673 39.0258 26.0384 39.0258H3.34613C1.94308 39.0258 0.979484 38.2052 0.979484 36.8233V3.19259C0.979484 1.80543 1.94308 0.990073 3.34613 0.990073H26.2025C26.8855 0.990073 27.3779 1.1542 27.7697 1.46658C28.7439 2.24487 28.4897 3.43614 28.4897 4.99272C26.3666 4.99272 24.0794 7.24289 24.0794 9.81072V9.80013ZM0 3.10788V36.9821C0 38.5864 1.38187 40 3.182 40H26.3613C28.4897 40 29.5433 38.4381 29.5433 36.4103V14.6976C30.6022 14.6976 32.0529 13.8822 32.6248 13.2045C35.9021 9.28656 32.4553 4.98213 29.5433 4.98213C29.5433 3.44143 29.6969 2.11251 28.7492 1.04302C28.2197 0.450033 27.4467 0 26.3613 0H3.182C1.40834 0 0 1.32892 0 3.10258V3.10788Z" fill="#39B594"/>
<path fill-rule="evenodd" clip-rule="evenodd" d="M14.6924 13.5541C16.932 13.5541 18.4463 15.889 18.4463 17.8797H11.0181C11.2934 16.6991 11.2987 16.0531 12.114 14.973C12.617 14.3059 13.57 13.5541 14.6924 13.5541ZM10.0386 18.1233C10.0386 18.5151 10.0386 18.9386 10.6898 18.9386H18.8539C19.161 18.9386 19.5052 18.748 19.5052 18.3668C19.5052 15.386 17.6627 12.5693 14.6077 12.5693C12.0293 12.5693 10.0386 15.4866 10.0386 18.118V18.1233Z" fill="#39B594"/>
<path fill-rule="evenodd" clip-rule="evenodd" d="M5.54875 22.2898C5.54875 22.6022 5.7923 22.7822 6.12056 22.7822H23.423C23.6454 22.7822 23.6507 22.7452 23.8307 22.7028C24.1642 22.0092 23.6507 21.8027 23.5024 21.8027H6.11526C5.787 21.8027 5.54346 21.9827 5.54346 22.2951L5.54875 22.2898Z" fill="#39B594"/>
<path fill-rule="evenodd" clip-rule="evenodd" d="M5.54883 26.616C5.54883 26.9284 5.79238 27.1084 6.12063 27.1084H23.4231C24.1378 27.1084 24.1378 26.1289 23.4231 26.1289H6.12063C5.79238 26.1289 5.54883 26.3089 5.54883 26.6213V26.616Z" fill="#39B594"/>
<path fill-rule="evenodd" clip-rule="evenodd" d="M13.0616 9.63589V9.1435C13.0616 7.24277 16.4925 6.80862 16.4925 9.47176C16.4925 10.7371 14.83 11.6266 13.6546 10.6736C13.4217 10.4883 13.0616 10.0118 13.0616 9.63589ZM14.7771 12.0872C16.1377 12.0872 17.472 10.8536 17.472 9.63589C17.472 8.667 17.4349 8.16402 16.7201 7.44926C14.8035 5.53794 11.9551 7.15277 12.0186 9.38175C12.0557 10.806 13.2946 12.082 14.7771 12.082V12.0872Z" fill="#39B594"/>
<path fill-rule="evenodd" clip-rule="evenodd" d="M9.95898 30.8618C9.95898 31.1742 10.0384 31.4336 10.5308 31.4336H19.0179C19.7856 31.4336 19.7856 30.4541 19.0179 30.4541H10.3667C10.1761 30.4541 9.95898 30.6712 9.95898 30.8618Z" fill="#39B594"/>
<path fill-rule="evenodd" clip-rule="evenodd" d="M8.97942 2.70065C8.97942 2.97596 9.12237 3.27245 9.38709 3.27245H17.0588C17.5724 3.27245 17.6412 2.29297 16.8153 2.29297H9.46651C9.29179 2.29297 8.97412 2.62123 8.97412 2.70065H8.97942Z" fill="#39B594"/>
<path fill-rule="evenodd" clip-rule="evenodd" d="M14.1203 36.3307C14.1203 35.3353 15.428 35.3829 15.428 36.3307C15.428 37.1513 14.1203 37.2466 14.1203 36.3307ZM14.6921 37.9614C17.0587 37.9614 16.8734 34.6152 14.7715 34.6152C12.5478 34.6152 12.6219 37.9614 14.6921 37.9614Z" fill="#39B594"/>
<path fill-rule="evenodd" clip-rule="evenodd" d="M28.3257 10.2925C28.0981 10.1389 27.6957 9.55652 27.4257 9.55652C25.975 9.55652 27.7857 11.5155 28.3257 11.5155C28.654 11.5155 31.1848 8.99001 31.1848 8.65645C31.1848 8.39173 30.9571 8.16406 30.6924 8.16406C30.2212 8.16406 28.8128 9.9589 28.3257 10.2872V10.2925Z" fill="#39B594"/>
<path fill-rule="evenodd" clip-rule="evenodd" d="M18.8535 2.78007C18.8535 3.49483 19.9707 3.28834 20.4048 3.18775C20.876 2.20826 19.8965 2.28768 19.4253 2.28768C19.0971 2.28768 18.8535 2.46769 18.8535 2.78007Z" fill="#39B594"/>
</svg>
