<svg width="100" height="100" viewBox="0 0 100 100" fill="none" xmlns="http://www.w3.org/2000/svg">
<g clip-path="url(#clip0_816_4)">
<path d="M100 0H0V100H100V0Z" fill="white"/>
<path d="M40.5405 5.40527H37.8378V8.10798H40.5405V5.40527Z" fill="black"/>
<path d="M43.2432 5.40527H40.5405V8.10798H43.2432V5.40527Z" fill="black"/>
<path d="M45.9459 5.40527H43.2432V8.10798H45.9459V5.40527Z" fill="black"/>
<path d="M51.3513 5.40527H48.6486V8.10798H51.3513V5.40527Z" fill="black"/>
<path d="M54.054 5.40527H51.3513V8.10798H54.054V5.40527Z" fill="black"/>
<path d="M56.7567 5.40527H54.054V8.10798H56.7567V5.40527Z" fill="black"/>
<path d="M59.4595 5.40527H56.7568V8.10798H59.4595V5.40527Z" fill="black"/>
<path d="M62.1622 5.40527H59.4595V8.10798H62.1622V5.40527Z" fill="black"/>
<path d="M70.2703 5.40527H67.5676V8.10798H70.2703V5.40527Z" fill="black"/>
<path d="M37.8378 8.1084H35.1351V10.8111H37.8378V8.1084Z" fill="black"/>
<path d="M43.2432 8.1084H40.5405V10.8111H43.2432V8.1084Z" fill="black"/>
<path d="M45.9459 8.1084H43.2432V10.8111H45.9459V8.1084Z" fill="black"/>
<path d="M48.6486 8.1084H45.9459V10.8111H48.6486V8.1084Z" fill="black"/>
<path d="M51.3513 8.1084H48.6486V10.8111H51.3513V8.1084Z" fill="black"/>
<path d="M54.054 8.1084H51.3513V10.8111H54.054V8.1084Z" fill="black"/>
<path d="M62.1622 8.1084H59.4595V10.8111H62.1622V8.1084Z" fill="black"/>
<path d="M67.5676 8.1084H64.8649V10.8111H67.5676V8.1084Z" fill="black"/>
<path d="M72.973 8.1084H70.2703V10.8111H72.973V8.1084Z" fill="black"/>
<path d="M29.7297 10.8105H27.027V13.5132H29.7297V10.8105Z" fill="black"/>
<path d="M37.8378 10.8105H35.1351V13.5132H37.8378V10.8105Z" fill="black"/>
<path d="M43.2432 10.8105H40.5405V13.5132H43.2432V10.8105Z" fill="black"/>
<path d="M48.6486 10.8105H45.9459V13.5132H48.6486V10.8105Z" fill="black"/>
<path d="M54.054 10.8105H51.3513V13.5132H54.054V10.8105Z" fill="black"/>
<path d="M56.7567 10.8105H54.054V13.5132H56.7567V10.8105Z" fill="black"/>
<path d="M72.973 10.8105H70.2703V13.5132H72.973V10.8105Z" fill="black"/>
<path d="M29.7297 13.5137H27.027V16.2164H29.7297V13.5137Z" fill="black"/>
<path d="M37.8378 13.5137H35.1351V16.2164H37.8378V13.5137Z" fill="black"/>
<path d="M40.5405 13.5137H37.8378V16.2164H40.5405V13.5137Z" fill="black"/>
<path d="M45.9459 13.5137H43.2432V16.2164H45.9459V13.5137Z" fill="black"/>
<path d="M48.6486 13.5137H45.9459V16.2164H48.6486V13.5137Z" fill="black"/>
<path d="M51.3513 13.5137H48.6486V16.2164H51.3513V13.5137Z" fill="black"/>
<path d="M59.4595 13.5137H56.7568V16.2164H59.4595V13.5137Z" fill="black"/>
<path d="M62.1622 13.5137H59.4595V16.2164H62.1622V13.5137Z" fill="black"/>
<path d="M64.8649 13.5137H62.1622V16.2164H64.8649V13.5137Z" fill="black"/>
<path d="M67.5676 13.5137H64.8649V16.2164H67.5676V13.5137Z" fill="black"/>
<path d="M72.973 13.5137H70.2703V16.2164H72.973V13.5137Z" fill="black"/>
<path d="M29.7297 16.2158H27.027V18.9185H29.7297V16.2158Z" fill="black"/>
<path d="M35.1351 16.2158H32.4324V18.9185H35.1351V16.2158Z" fill="black"/>
<path d="M40.5405 16.2158H37.8378V18.9185H40.5405V16.2158Z" fill="black"/>
<path d="M48.6486 16.2158H45.9459V18.9185H48.6486V16.2158Z" fill="black"/>
<path d="M54.054 16.2158H51.3513V18.9185H54.054V16.2158Z" fill="black"/>
<path d="M56.7567 16.2158H54.054V18.9185H56.7567V16.2158Z" fill="black"/>
<path d="M72.973 16.2158H70.2703V18.9185H72.973V16.2158Z" fill="black"/>
<path d="M29.7297 18.9189H27.027V21.6216H29.7297V18.9189Z" fill="black"/>
<path d="M35.1351 18.9189H32.4324V21.6216H35.1351V18.9189Z" fill="black"/>
<path d="M40.5405 18.9189H37.8378V21.6216H40.5405V18.9189Z" fill="black"/>
<path d="M43.2432 18.9189H40.5405V21.6216H43.2432V18.9189Z" fill="black"/>
<path d="M48.6486 18.9189H45.9459V21.6216H48.6486V18.9189Z" fill="black"/>
<path d="M51.3513 18.9189H48.6486V21.6216H51.3513V18.9189Z" fill="black"/>
<path d="M54.054 18.9189H51.3513V21.6216H54.054V18.9189Z" fill="black"/>
<path d="M56.7567 18.9189H54.054V21.6216H56.7567V18.9189Z" fill="black"/>
<path d="M62.1622 18.9189H59.4595V21.6216H62.1622V18.9189Z" fill="black"/>
<path d="M67.5676 18.9189H64.8649V21.6216H67.5676V18.9189Z" fill="black"/>
<path d="M72.973 18.9189H70.2703V21.6216H72.973V18.9189Z" fill="black"/>
<path d="M29.7297 21.6211H27.027V24.3238H29.7297V21.6211Z" fill="black"/>
<path d="M35.1351 21.6211H32.4324V24.3238H35.1351V21.6211Z" fill="black"/>
<path d="M40.5405 21.6211H37.8378V24.3238H40.5405V21.6211Z" fill="black"/>
<path d="M45.9459 21.6211H43.2432V24.3238H45.9459V21.6211Z" fill="black"/>
<path d="M51.3513 21.6211H48.6486V24.3238H51.3513V21.6211Z" fill="black"/>
<path d="M56.7567 21.6211H54.054V24.3238H56.7567V21.6211Z" fill="black"/>
<path d="M62.1622 21.6211H59.4595V24.3238H62.1622V21.6211Z" fill="black"/>
<path d="M67.5676 21.6211H64.8649V24.3238H67.5676V21.6211Z" fill="black"/>
<path d="M72.973 21.6211H70.2703V24.3238H72.973V21.6211Z" fill="black"/>
<path d="M29.7297 24.3242H27.027V27.0269H29.7297V24.3242Z" fill="black"/>
<path d="M35.1351 24.3242H32.4324V27.0269H35.1351V24.3242Z" fill="black"/>
<path d="M45.9459 24.3242H43.2432V27.0269H45.9459V24.3242Z" fill="black"/>
<path d="M48.6486 24.3242H45.9459V27.0269H48.6486V24.3242Z" fill="black"/>
<path d="M64.8649 24.3242H62.1622V27.0269H64.8649V24.3242Z" fill="black"/>
<path d="M67.5676 24.3242H64.8649V27.0269H67.5676V24.3242Z" fill="black"/>
<path d="M8.1081 27.0273H5.4054V29.73H8.1081V27.0273Z" fill="black"/>
<path d="M13.5135 27.0273H10.8108V29.73H13.5135V27.0273Z" fill="black"/>
<path d="M16.2162 27.0273H13.5135V29.73H16.2162V27.0273Z" fill="black"/>
<path d="M18.9189 27.0273H16.2162V29.73H18.9189V27.0273Z" fill="black"/>
<path d="M21.6216 27.0273H18.9189V29.73H21.6216V27.0273Z" fill="black"/>
<path d="M24.3243 27.0273H21.6216V29.73H24.3243V27.0273Z" fill="black"/>
<path d="M35.1351 27.0273H32.4324V29.73H35.1351V27.0273Z" fill="black"/>
<path d="M37.8378 27.0273H35.1351V29.73H37.8378V27.0273Z" fill="black"/>
<path d="M40.5405 27.0273H37.8378V29.73H40.5405V27.0273Z" fill="black"/>
<path d="M43.2432 27.0273H40.5405V29.73H43.2432V27.0273Z" fill="black"/>
<path d="M45.9459 27.0273H43.2432V29.73H45.9459V27.0273Z" fill="black"/>
<path d="M48.6486 27.0273H45.9459V29.73H48.6486V27.0273Z" fill="black"/>
<path d="M54.054 27.0273H51.3513V29.73H54.054V27.0273Z" fill="black"/>
<path d="M67.5676 27.0273H64.8649V29.73H67.5676V27.0273Z" fill="black"/>
<path d="M78.3784 27.0273H75.6757V29.73H78.3784V27.0273Z" fill="black"/>
<path d="M81.0811 27.0273H78.3784V29.73H81.0811V27.0273Z" fill="black"/>
<path d="M83.7838 27.0273H81.0811V29.73H83.7838V27.0273Z" fill="black"/>
<path d="M86.4865 27.0273H83.7838V29.73H86.4865V27.0273Z" fill="black"/>
<path d="M89.1892 27.0273H86.4865V29.73H89.1892V27.0273Z" fill="black"/>
<path d="M10.8108 29.7295H8.10809V32.4322H10.8108V29.7295Z" fill="black"/>
<path d="M13.5135 29.7295H10.8108V32.4322H13.5135V29.7295Z" fill="black"/>
<path d="M40.5405 29.7295H37.8378V32.4322H40.5405V29.7295Z" fill="black"/>
<path d="M51.3513 29.7295H48.6486V32.4322H51.3513V29.7295Z" fill="black"/>
<path d="M56.7567 29.7295H54.054V32.4322H56.7567V29.7295Z" fill="black"/>
<path d="M59.4595 29.7295H56.7568V32.4322H59.4595V29.7295Z" fill="black"/>
<path d="M62.1622 29.7295H59.4595V32.4322H62.1622V29.7295Z" fill="black"/>
<path d="M64.8649 29.7295H62.1622V32.4322H64.8649V29.7295Z" fill="black"/>
<path d="M70.2703 29.7295H67.5676V32.4322H70.2703V29.7295Z" fill="black"/>
<path d="M78.3784 29.7295H75.6757V32.4322H78.3784V29.7295Z" fill="black"/>
<path d="M81.0811 29.7295H78.3784V32.4322H81.0811V29.7295Z" fill="black"/>
<path d="M86.4865 29.7295H83.7838V32.4322H86.4865V29.7295Z" fill="black"/>
<path d="M89.1892 29.7295H86.4865V32.4322H89.1892V29.7295Z" fill="black"/>
<path d="M94.5946 29.7295H91.8919V32.4322H94.5946V29.7295Z" fill="black"/>
<path d="M18.9189 32.4326H16.2162V35.1353H18.9189V32.4326Z" fill="black"/>
<path d="M21.6216 32.4326H18.9189V35.1353H21.6216V32.4326Z" fill="black"/>
<path d="M24.3243 32.4326H21.6216V35.1353H24.3243V32.4326Z" fill="black"/>
<path d="M29.7297 32.4326H27.027V35.1353H29.7297V32.4326Z" fill="black"/>
<path d="M35.1351 32.4326H32.4324V35.1353H35.1351V32.4326Z" fill="black"/>
<path d="M37.8378 32.4326H35.1351V35.1353H37.8378V32.4326Z" fill="black"/>
<path d="M48.6486 32.4326H45.9459V35.1353H48.6486V32.4326Z" fill="black"/>
<path d="M56.7567 32.4326H54.054V35.1353H56.7567V32.4326Z" fill="black"/>
<path d="M64.8649 32.4326H62.1622V35.1353H64.8649V32.4326Z" fill="black"/>
<path d="M72.973 32.4326H70.2703V35.1353H72.973V32.4326Z" fill="black"/>
<path d="M75.6757 32.4326H72.973V35.1353H75.6757V32.4326Z" fill="black"/>
<path d="M78.3784 32.4326H75.6757V35.1353H78.3784V32.4326Z" fill="black"/>
<path d="M83.7838 32.4326H81.0811V35.1353H83.7838V32.4326Z" fill="black"/>
<path d="M89.1892 32.4326H86.4865V35.1353H89.1892V32.4326Z" fill="black"/>
<path d="M91.8919 32.4326H89.1892V35.1353H91.8919V32.4326Z" fill="black"/>
<path d="M8.1081 35.1348H5.4054V37.8375H8.1081V35.1348Z" fill="black"/>
<path d="M10.8108 35.1348H8.10809V37.8375H10.8108V35.1348Z" fill="black"/>
<path d="M13.5135 35.1348H10.8108V37.8375H13.5135V35.1348Z" fill="black"/>
<path d="M16.2162 35.1348H13.5135V37.8375H16.2162V35.1348Z" fill="black"/>
<path d="M18.9189 35.1348H16.2162V37.8375H18.9189V35.1348Z" fill="black"/>
<path d="M35.1351 35.1348H32.4324V37.8375H35.1351V35.1348Z" fill="black"/>
<path d="M37.8378 35.1348H35.1351V37.8375H37.8378V35.1348Z" fill="black"/>
<path d="M40.5405 35.1348H37.8378V37.8375H40.5405V35.1348Z" fill="black"/>
<path d="M45.9459 35.1348H43.2432V37.8375H45.9459V35.1348Z" fill="black"/>
<path d="M48.6486 35.1348H45.9459V37.8375H48.6486V35.1348Z" fill="black"/>
<path d="M51.3513 35.1348H48.6486V37.8375H51.3513V35.1348Z" fill="black"/>
<path d="M59.4595 35.1348H56.7568V37.8375H59.4595V35.1348Z" fill="black"/>
<path d="M62.1622 35.1348H59.4595V37.8375H62.1622V35.1348Z" fill="black"/>
<path d="M64.8649 35.1348H62.1622V37.8375H64.8649V35.1348Z" fill="black"/>
<path d="M67.5676 35.1348H64.8649V37.8375H67.5676V35.1348Z" fill="black"/>
<path d="M70.2703 35.1348H67.5676V37.8375H70.2703V35.1348Z" fill="black"/>
<path d="M78.3784 35.1348H75.6757V37.8375H78.3784V35.1348Z" fill="black"/>
<path d="M83.7838 35.1348H81.0811V37.8375H83.7838V35.1348Z" fill="black"/>
<path d="M86.4865 35.1348H83.7838V37.8375H86.4865V35.1348Z" fill="black"/>
<path d="M89.1892 35.1348H86.4865V37.8375H89.1892V35.1348Z" fill="black"/>
<path d="M91.8919 35.1348H89.1892V37.8375H91.8919V35.1348Z" fill="black"/>
<path d="M10.8108 37.8379H8.10809V40.5406H10.8108V37.8379Z" fill="black"/>
<path d="M13.5135 37.8379H10.8108V40.5406H13.5135V37.8379Z" fill="black"/>
<path d="M18.9189 37.8379H16.2162V40.5406H18.9189V37.8379Z" fill="black"/>
<path d="M24.3243 37.8379H21.6216V40.5406H24.3243V37.8379Z" fill="black"/>
<path d="M29.7297 37.8379H27.027V40.5406H29.7297V37.8379Z" fill="black"/>
<path d="M37.8378 37.8379H35.1351V40.5406H37.8378V37.8379Z" fill="black"/>
<path d="M48.6486 37.8379H45.9459V40.5406H48.6486V37.8379Z" fill="black"/>
<path d="M56.7567 37.8379H54.054V40.5406H56.7567V37.8379Z" fill="black"/>
<path d="M59.4595 37.8379H56.7568V40.5406H59.4595V37.8379Z" fill="black"/>
<path d="M64.8649 37.8379H62.1622V40.5406H64.8649V37.8379Z" fill="black"/>
<path d="M70.2703 37.8379H67.5676V40.5406H70.2703V37.8379Z" fill="black"/>
<path d="M72.973 37.8379H70.2703V40.5406H72.973V37.8379Z" fill="black"/>
<path d="M75.6757 37.8379H72.973V40.5406H75.6757V37.8379Z" fill="black"/>
<path d="M81.0811 37.8379H78.3784V40.5406H81.0811V37.8379Z" fill="black"/>
<path d="M83.7838 37.8379H81.0811V40.5406H83.7838V37.8379Z" fill="black"/>
<path d="M86.4865 37.8379H83.7838V40.5406H86.4865V37.8379Z" fill="black"/>
<path d="M91.8919 37.8379H89.1892V40.5406H91.8919V37.8379Z" fill="black"/>
<path d="M94.5946 37.8379H91.8919V40.5406H94.5946V37.8379Z" fill="black"/>
<path d="M16.2162 40.54H13.5135V43.2427H16.2162V40.54Z" fill="black"/>
<path d="M21.6216 40.54H18.9189V43.2427H21.6216V40.54Z" fill="black"/>
<path d="M40.5405 40.54H37.8378V43.2427H40.5405V40.54Z" fill="black"/>
<path d="M43.2432 40.54H40.5405V43.2427H43.2432V40.54Z" fill="black"/>
<path d="M45.9459 40.54H43.2432V43.2427H45.9459V40.54Z" fill="black"/>
<path d="M48.6486 40.54H45.9459V43.2427H48.6486V40.54Z" fill="black"/>
<path d="M51.3513 40.54H48.6486V43.2427H51.3513V40.54Z" fill="black"/>
<path d="M54.054 40.54H51.3513V43.2427H54.054V40.54Z" fill="black"/>
<path d="M62.1622 40.54H59.4595V43.2427H62.1622V40.54Z" fill="black"/>
<path d="M67.5676 40.54H64.8649V43.2427H67.5676V40.54Z" fill="black"/>
<path d="M70.2703 40.54H67.5676V43.2427H70.2703V40.54Z" fill="black"/>
<path d="M78.3784 40.54H75.6757V43.2427H78.3784V40.54Z" fill="black"/>
<path d="M81.0811 40.54H78.3784V43.2427H81.0811V40.54Z" fill="black"/>
<path d="M89.1892 40.54H86.4865V43.2427H89.1892V40.54Z" fill="black"/>
<path d="M91.8919 40.54H89.1892V43.2427H91.8919V40.54Z" fill="black"/>
<path d="M94.5946 40.54H91.8919V43.2427H94.5946V40.54Z" fill="black"/>
<path d="M8.1081 43.2432H5.4054V45.9459H8.1081V43.2432Z" fill="black"/>
<path d="M16.2162 43.2432H13.5135V45.9459H16.2162V43.2432Z" fill="black"/>
<path d="M18.9189 43.2432H16.2162V45.9459H18.9189V43.2432Z" fill="black"/>
<path d="M24.3243 43.2432H21.6216V45.9459H24.3243V43.2432Z" fill="black"/>
<path d="M27.027 43.2432H24.3243V45.9459H27.027V43.2432Z" fill="black"/>
<path d="M32.4324 43.2432H29.7297V45.9459H32.4324V43.2432Z" fill="black"/>
<path d="M35.1351 43.2432H32.4324V45.9459H35.1351V43.2432Z" fill="black"/>
<path d="M43.2432 43.2432H40.5405V45.9459H43.2432V43.2432Z" fill="black"/>
<path d="M45.9459 43.2432H43.2432V45.9459H45.9459V43.2432Z" fill="black"/>
<path d="M59.4595 43.2432H56.7568V45.9459H59.4595V43.2432Z" fill="black"/>
<path d="M64.8649 43.2432H62.1622V45.9459H64.8649V43.2432Z" fill="black"/>
<path d="M67.5676 43.2432H64.8649V45.9459H67.5676V43.2432Z" fill="black"/>
<path d="M75.6757 43.2432H72.973V45.9459H75.6757V43.2432Z" fill="black"/>
<path d="M78.3784 43.2432H75.6757V45.9459H78.3784V43.2432Z" fill="black"/>
<path d="M86.4865 43.2432H83.7838V45.9459H86.4865V43.2432Z" fill="black"/>
<path d="M89.1892 43.2432H86.4865V45.9459H89.1892V43.2432Z" fill="black"/>
<path d="M91.8919 43.2432H89.1892V45.9459H91.8919V43.2432Z" fill="black"/>
<path d="M8.1081 45.9463H5.4054V48.649H8.1081V45.9463Z" fill="black"/>
<path d="M10.8108 45.9463H8.10809V48.649H10.8108V45.9463Z" fill="black"/>
<path d="M16.2162 45.9463H13.5135V48.649H16.2162V45.9463Z" fill="black"/>
<path d="M27.027 45.9463H24.3243V48.649H27.027V45.9463Z" fill="black"/>
<path d="M29.7297 45.9463H27.027V48.649H29.7297V45.9463Z" fill="black"/>
<path d="M40.5405 45.9463H37.8378V48.649H40.5405V45.9463Z" fill="black"/>
<path d="M43.2432 45.9463H40.5405V48.649H43.2432V45.9463Z" fill="black"/>
<path d="M45.9459 45.9463H43.2432V48.649H45.9459V45.9463Z" fill="black"/>
<path d="M51.3513 45.9463H48.6486V48.649H51.3513V45.9463Z" fill="black"/>
<path d="M56.7567 45.9463H54.054V48.649H56.7567V45.9463Z" fill="black"/>
<path d="M59.4595 45.9463H56.7568V48.649H59.4595V45.9463Z" fill="black"/>
<path d="M62.1622 45.9463H59.4595V48.649H62.1622V45.9463Z" fill="black"/>
<path d="M64.8649 45.9463H62.1622V48.649H64.8649V45.9463Z" fill="black"/>
<path d="M72.973 45.9463H70.2703V48.649H72.973V45.9463Z" fill="black"/>
<path d="M75.6757 45.9463H72.973V48.649H75.6757V45.9463Z" fill="black"/>
<path d="M78.3784 45.9463H75.6757V48.649H78.3784V45.9463Z" fill="black"/>
<path d="M81.0811 45.9463H78.3784V48.649H81.0811V45.9463Z" fill="black"/>
<path d="M86.4865 45.9463H83.7838V48.649H86.4865V45.9463Z" fill="black"/>
<path d="M89.1892 45.9463H86.4865V48.649H89.1892V45.9463Z" fill="black"/>
<path d="M10.8108 48.6484H8.10809V51.3511H10.8108V48.6484Z" fill="black"/>
<path d="M13.5135 48.6484H10.8108V51.3511H13.5135V48.6484Z" fill="black"/>
<path d="M16.2162 48.6484H13.5135V51.3511H16.2162V48.6484Z" fill="black"/>
<path d="M18.9189 48.6484H16.2162V51.3511H18.9189V48.6484Z" fill="black"/>
<path d="M24.3243 48.6484H21.6216V51.3511H24.3243V48.6484Z" fill="black"/>
<path d="M27.027 48.6484H24.3243V51.3511H27.027V48.6484Z" fill="black"/>
<path d="M29.7297 48.6484H27.027V51.3511H29.7297V48.6484Z" fill="black"/>
<path d="M32.4324 48.6484H29.7297V51.3511H32.4324V48.6484Z" fill="black"/>
<path d="M40.5405 48.6484H37.8378V51.3511H40.5405V48.6484Z" fill="black"/>
<path d="M43.2432 48.6484H40.5405V51.3511H43.2432V48.6484Z" fill="black"/>
<path d="M51.3513 48.6484H48.6486V51.3511H51.3513V48.6484Z" fill="black"/>
<path d="M54.054 48.6484H51.3513V51.3511H54.054V48.6484Z" fill="black"/>
<path d="M59.4595 48.6484H56.7568V51.3511H59.4595V48.6484Z" fill="black"/>
<path d="M67.5676 48.6484H64.8649V51.3511H67.5676V48.6484Z" fill="black"/>
<path d="M70.2703 48.6484H67.5676V51.3511H70.2703V48.6484Z" fill="black"/>
<path d="M72.973 48.6484H70.2703V51.3511H72.973V48.6484Z" fill="black"/>
<path d="M75.6757 48.6484H72.973V51.3511H75.6757V48.6484Z" fill="black"/>
<path d="M81.0811 48.6484H78.3784V51.3511H81.0811V48.6484Z" fill="black"/>
<path d="M83.7838 48.6484H81.0811V51.3511H83.7838V48.6484Z" fill="black"/>
<path d="M94.5946 48.6484H91.8919V51.3511H94.5946V48.6484Z" fill="black"/>
<path d="M16.2162 51.3516H13.5135V54.0543H16.2162V51.3516Z" fill="black"/>
<path d="M18.9189 51.3516H16.2162V54.0543H18.9189V51.3516Z" fill="black"/>
<path d="M27.027 51.3516H24.3243V54.0543H27.027V51.3516Z" fill="black"/>
<path d="M29.7297 51.3516H27.027V54.0543H29.7297V51.3516Z" fill="black"/>
<path d="M32.4324 51.3516H29.7297V54.0543H32.4324V51.3516Z" fill="black"/>
<path d="M37.8378 51.3516H35.1351V54.0543H37.8378V51.3516Z" fill="black"/>
<path d="M43.2432 51.3516H40.5405V54.0543H43.2432V51.3516Z" fill="black"/>
<path d="M45.9459 51.3516H43.2432V54.0543H45.9459V51.3516Z" fill="black"/>
<path d="M51.3513 51.3516H48.6486V54.0543H51.3513V51.3516Z" fill="black"/>
<path d="M54.054 51.3516H51.3513V54.0543H54.054V51.3516Z" fill="black"/>
<path d="M59.4595 51.3516H56.7568V54.0543H59.4595V51.3516Z" fill="black"/>
<path d="M62.1622 51.3516H59.4595V54.0543H62.1622V51.3516Z" fill="black"/>
<path d="M70.2703 51.3516H67.5676V54.0543H70.2703V51.3516Z" fill="black"/>
<path d="M72.973 51.3516H70.2703V54.0543H72.973V51.3516Z" fill="black"/>
<path d="M75.6757 51.3516H72.973V54.0543H75.6757V51.3516Z" fill="black"/>
<path d="M78.3784 51.3516H75.6757V54.0543H78.3784V51.3516Z" fill="black"/>
<path d="M81.0811 51.3516H78.3784V54.0543H81.0811V51.3516Z" fill="black"/>
<path d="M86.4865 51.3516H83.7838V54.0543H86.4865V51.3516Z" fill="black"/>
<path d="M89.1892 51.3516H86.4865V54.0543H89.1892V51.3516Z" fill="black"/>
<path d="M94.5946 51.3516H91.8919V54.0543H94.5946V51.3516Z" fill="black"/>
<path d="M18.9189 54.0537H16.2162V56.7564H18.9189V54.0537Z" fill="black"/>
<path d="M21.6216 54.0537H18.9189V56.7564H21.6216V54.0537Z" fill="black"/>
<path d="M24.3243 54.0537H21.6216V56.7564H24.3243V54.0537Z" fill="black"/>
<path d="M32.4324 54.0537H29.7297V56.7564H32.4324V54.0537Z" fill="black"/>
<path d="M35.1351 54.0537H32.4324V56.7564H35.1351V54.0537Z" fill="black"/>
<path d="M40.5405 54.0537H37.8378V56.7564H40.5405V54.0537Z" fill="black"/>
<path d="M45.9459 54.0537H43.2432V56.7564H45.9459V54.0537Z" fill="black"/>
<path d="M48.6486 54.0537H45.9459V56.7564H48.6486V54.0537Z" fill="black"/>
<path d="M51.3513 54.0537H48.6486V56.7564H51.3513V54.0537Z" fill="black"/>
<path d="M54.054 54.0537H51.3513V56.7564H54.054V54.0537Z" fill="black"/>
<path d="M62.1622 54.0537H59.4595V56.7564H62.1622V54.0537Z" fill="black"/>
<path d="M67.5676 54.0537H64.8649V56.7564H67.5676V54.0537Z" fill="black"/>
<path d="M72.973 54.0537H70.2703V56.7564H72.973V54.0537Z" fill="black"/>
<path d="M81.0811 54.0537H78.3784V56.7564H81.0811V54.0537Z" fill="black"/>
<path d="M83.7838 54.0537H81.0811V56.7564H83.7838V54.0537Z" fill="black"/>
<path d="M89.1892 54.0537H86.4865V56.7564H89.1892V54.0537Z" fill="black"/>
<path d="M91.8919 54.0537H89.1892V56.7564H91.8919V54.0537Z" fill="black"/>
<path d="M8.1081 56.7568H5.4054V59.4595H8.1081V56.7568Z" fill="black"/>
<path d="M10.8108 56.7568H8.10809V59.4595H10.8108V56.7568Z" fill="black"/>
<path d="M13.5135 56.7568H10.8108V59.4595H13.5135V56.7568Z" fill="black"/>
<path d="M16.2162 56.7568H13.5135V59.4595H16.2162V56.7568Z" fill="black"/>
<path d="M21.6216 56.7568H18.9189V59.4595H21.6216V56.7568Z" fill="black"/>
<path d="M32.4324 56.7568H29.7297V59.4595H32.4324V56.7568Z" fill="black"/>
<path d="M40.5405 56.7568H37.8378V59.4595H40.5405V56.7568Z" fill="black"/>
<path d="M48.6486 56.7568H45.9459V59.4595H48.6486V56.7568Z" fill="black"/>
<path d="M51.3513 56.7568H48.6486V59.4595H51.3513V56.7568Z" fill="black"/>
<path d="M54.054 56.7568H51.3513V59.4595H54.054V56.7568Z" fill="black"/>
<path d="M56.7567 56.7568H54.054V59.4595H56.7567V56.7568Z" fill="black"/>
<path d="M59.4595 56.7568H56.7568V59.4595H59.4595V56.7568Z" fill="black"/>
<path d="M70.2703 56.7568H67.5676V59.4595H70.2703V56.7568Z" fill="black"/>
<path d="M72.973 56.7568H70.2703V59.4595H72.973V56.7568Z" fill="black"/>
<path d="M75.6757 56.7568H72.973V59.4595H75.6757V56.7568Z" fill="black"/>
<path d="M81.0811 56.7568H78.3784V59.4595H81.0811V56.7568Z" fill="black"/>
<path d="M83.7838 56.7568H81.0811V59.4595H83.7838V56.7568Z" fill="black"/>
<path d="M86.4865 56.7568H83.7838V59.4595H86.4865V56.7568Z" fill="black"/>
<path d="M89.1892 56.7568H86.4865V59.4595H89.1892V56.7568Z" fill="black"/>
<path d="M91.8919 56.7568H89.1892V59.4595H91.8919V56.7568Z" fill="black"/>
<path d="M94.5946 56.7568H91.8919V59.4595H94.5946V56.7568Z" fill="black"/>
<path d="M8.1081 59.459H5.4054V62.1617H8.1081V59.459Z" fill="black"/>
<path d="M13.5135 59.459H10.8108V62.1617H13.5135V59.459Z" fill="black"/>
<path d="M18.9189 59.459H16.2162V62.1617H18.9189V59.459Z" fill="black"/>
<path d="M24.3243 59.459H21.6216V62.1617H24.3243V59.459Z" fill="black"/>
<path d="M27.027 59.459H24.3243V62.1617H27.027V59.459Z" fill="black"/>
<path d="M32.4324 59.459H29.7297V62.1617H32.4324V59.459Z" fill="black"/>
<path d="M37.8378 59.459H35.1351V62.1617H37.8378V59.459Z" fill="black"/>
<path d="M43.2432 59.459H40.5405V62.1617H43.2432V59.459Z" fill="black"/>
<path d="M51.3513 59.459H48.6486V62.1617H51.3513V59.459Z" fill="black"/>
<path d="M59.4595 59.459H56.7568V62.1617H59.4595V59.459Z" fill="black"/>
<path d="M62.1622 59.459H59.4595V62.1617H62.1622V59.459Z" fill="black"/>
<path d="M64.8649 59.459H62.1622V62.1617H64.8649V59.459Z" fill="black"/>
<path d="M67.5676 59.459H64.8649V62.1617H67.5676V59.459Z" fill="black"/>
<path d="M72.973 59.459H70.2703V62.1617H72.973V59.459Z" fill="black"/>
<path d="M75.6757 59.459H72.973V62.1617H75.6757V59.459Z" fill="black"/>
<path d="M81.0811 59.459H78.3784V62.1617H81.0811V59.459Z" fill="black"/>
<path d="M83.7838 59.459H81.0811V62.1617H83.7838V59.459Z" fill="black"/>
<path d="M86.4865 59.459H83.7838V62.1617H86.4865V59.459Z" fill="black"/>
<path d="M94.5946 59.459H91.8919V62.1617H94.5946V59.459Z" fill="black"/>
<path d="M8.1081 62.1621H5.4054V64.8648H8.1081V62.1621Z" fill="black"/>
<path d="M10.8108 62.1621H8.10809V64.8648H10.8108V62.1621Z" fill="black"/>
<path d="M13.5135 62.1621H10.8108V64.8648H13.5135V62.1621Z" fill="black"/>
<path d="M27.027 62.1621H24.3243V64.8648H27.027V62.1621Z" fill="black"/>
<path d="M29.7297 62.1621H27.027V64.8648H29.7297V62.1621Z" fill="black"/>
<path d="M32.4324 62.1621H29.7297V64.8648H32.4324V62.1621Z" fill="black"/>
<path d="M35.1351 62.1621H32.4324V64.8648H35.1351V62.1621Z" fill="black"/>
<path d="M40.5405 62.1621H37.8378V64.8648H40.5405V62.1621Z" fill="black"/>
<path d="M43.2432 62.1621H40.5405V64.8648H43.2432V62.1621Z" fill="black"/>
<path d="M48.6486 62.1621H45.9459V64.8648H48.6486V62.1621Z" fill="black"/>
<path d="M56.7567 62.1621H54.054V64.8648H56.7567V62.1621Z" fill="black"/>
<path d="M70.2703 62.1621H67.5676V64.8648H70.2703V62.1621Z" fill="black"/>
<path d="M78.3784 62.1621H75.6757V64.8648H78.3784V62.1621Z" fill="black"/>
<path d="M86.4865 62.1621H83.7838V64.8648H86.4865V62.1621Z" fill="black"/>
<path d="M94.5946 62.1621H91.8919V64.8648H94.5946V62.1621Z" fill="black"/>
<path d="M8.1081 64.8643H5.4054V67.567H8.1081V64.8643Z" fill="black"/>
<path d="M16.2162 64.8643H13.5135V67.567H16.2162V64.8643Z" fill="black"/>
<path d="M21.6216 64.8643H18.9189V67.567H21.6216V64.8643Z" fill="black"/>
<path d="M24.3243 64.8643H21.6216V67.567H24.3243V64.8643Z" fill="black"/>
<path d="M27.027 64.8643H24.3243V67.567H27.027V64.8643Z" fill="black"/>
<path d="M29.7297 64.8643H27.027V67.567H29.7297V64.8643Z" fill="black"/>
<path d="M37.8378 64.8643H35.1351V67.567H37.8378V64.8643Z" fill="black"/>
<path d="M45.9459 64.8643H43.2432V67.567H45.9459V64.8643Z" fill="black"/>
<path d="M48.6486 64.8643H45.9459V67.567H48.6486V64.8643Z" fill="black"/>
<path d="M51.3513 64.8643H48.6486V67.567H51.3513V64.8643Z" fill="black"/>
<path d="M56.7567 64.8643H54.054V67.567H56.7567V64.8643Z" fill="black"/>
<path d="M62.1622 64.8643H59.4595V67.567H62.1622V64.8643Z" fill="black"/>
<path d="M64.8649 64.8643H62.1622V67.567H64.8649V64.8643Z" fill="black"/>
<path d="M72.973 64.8643H70.2703V67.567H72.973V64.8643Z" fill="black"/>
<path d="M89.1892 64.8643H86.4865V67.567H89.1892V64.8643Z" fill="black"/>
<path d="M91.8919 64.8643H89.1892V67.567H91.8919V64.8643Z" fill="black"/>
<path d="M8.1081 67.5674H5.4054V70.2701H8.1081V67.5674Z" fill="black"/>
<path d="M16.2162 67.5674H13.5135V70.2701H16.2162V67.5674Z" fill="black"/>
<path d="M18.9189 67.5674H16.2162V70.2701H18.9189V67.5674Z" fill="black"/>
<path d="M21.6216 67.5674H18.9189V70.2701H21.6216V67.5674Z" fill="black"/>
<path d="M32.4324 67.5674H29.7297V70.2701H32.4324V67.5674Z" fill="black"/>
<path d="M37.8378 67.5674H35.1351V70.2701H37.8378V67.5674Z" fill="black"/>
<path d="M48.6486 67.5674H45.9459V70.2701H48.6486V67.5674Z" fill="black"/>
<path d="M56.7567 67.5674H54.054V70.2701H56.7567V67.5674Z" fill="black"/>
<path d="M64.8649 67.5674H62.1622V70.2701H64.8649V67.5674Z" fill="black"/>
<path d="M67.5676 67.5674H64.8649V70.2701H67.5676V67.5674Z" fill="black"/>
<path d="M70.2703 67.5674H67.5676V70.2701H70.2703V67.5674Z" fill="black"/>
<path d="M81.0811 67.5674H78.3784V70.2701H81.0811V67.5674Z" fill="black"/>
<path d="M83.7838 67.5674H81.0811V70.2701H83.7838V67.5674Z" fill="black"/>
<path d="M86.4865 67.5674H83.7838V70.2701H86.4865V67.5674Z" fill="black"/>
<path d="M89.1892 67.5674H86.4865V70.2701H89.1892V67.5674Z" fill="black"/>
<path d="M8.1081 70.2705H5.4054V72.9732H8.1081V70.2705Z" fill="black"/>
<path d="M16.2162 70.2705H13.5135V72.9732H16.2162V70.2705Z" fill="black"/>
<path d="M18.9189 70.2705H16.2162V72.9732H18.9189V70.2705Z" fill="black"/>
<path d="M21.6216 70.2705H18.9189V72.9732H21.6216V70.2705Z" fill="black"/>
<path d="M24.3243 70.2705H21.6216V72.9732H24.3243V70.2705Z" fill="black"/>
<path d="M27.027 70.2705H24.3243V72.9732H27.027V70.2705Z" fill="black"/>
<path d="M37.8378 70.2705H35.1351V72.9732H37.8378V70.2705Z" fill="black"/>
<path d="M40.5405 70.2705H37.8378V72.9732H40.5405V70.2705Z" fill="black"/>
<path d="M43.2432 70.2705H40.5405V72.9732H43.2432V70.2705Z" fill="black"/>
<path d="M48.6486 70.2705H45.9459V72.9732H48.6486V70.2705Z" fill="black"/>
<path d="M54.054 70.2705H51.3513V72.9732H54.054V70.2705Z" fill="black"/>
<path d="M56.7567 70.2705H54.054V72.9732H56.7567V70.2705Z" fill="black"/>
<path d="M67.5676 70.2705H64.8649V72.9732H67.5676V70.2705Z" fill="black"/>
<path d="M70.2703 70.2705H67.5676V72.9732H70.2703V70.2705Z" fill="black"/>
<path d="M72.973 70.2705H70.2703V72.9732H72.973V70.2705Z" fill="black"/>
<path d="M75.6757 70.2705H72.973V72.9732H75.6757V70.2705Z" fill="black"/>
<path d="M78.3784 70.2705H75.6757V72.9732H78.3784V70.2705Z" fill="black"/>
<path d="M81.0811 70.2705H78.3784V72.9732H81.0811V70.2705Z" fill="black"/>
<path d="M83.7838 70.2705H81.0811V72.9732H83.7838V70.2705Z" fill="black"/>
<path d="M91.8919 70.2705H89.1892V72.9732H91.8919V70.2705Z" fill="black"/>
<path d="M94.5946 70.2705H91.8919V72.9732H94.5946V70.2705Z" fill="black"/>
<path d="M29.7297 72.9727H27.027V75.6754H29.7297V72.9727Z" fill="black"/>
<path d="M32.4324 72.9727H29.7297V75.6754H32.4324V72.9727Z" fill="black"/>
<path d="M37.8378 72.9727H35.1351V75.6754H37.8378V72.9727Z" fill="black"/>
<path d="M40.5405 72.9727H37.8378V75.6754H40.5405V72.9727Z" fill="black"/>
<path d="M59.4595 72.9727H56.7568V75.6754H59.4595V72.9727Z" fill="black"/>
<path d="M62.1622 72.9727H59.4595V75.6754H62.1622V72.9727Z" fill="black"/>
<path d="M64.8649 72.9727H62.1622V75.6754H64.8649V72.9727Z" fill="black"/>
<path d="M67.5676 72.9727H64.8649V75.6754H67.5676V72.9727Z" fill="black"/>
<path d="M72.973 72.9727H70.2703V75.6754H72.973V72.9727Z" fill="black"/>
<path d="M83.7838 72.9727H81.0811V75.6754H83.7838V72.9727Z" fill="black"/>
<path d="M89.1892 72.9727H86.4865V75.6754H89.1892V72.9727Z" fill="black"/>
<path d="M94.5946 72.9727H91.8919V75.6754H94.5946V72.9727Z" fill="black"/>
<path d="M32.4324 75.6758H29.7297V78.3785H32.4324V75.6758Z" fill="black"/>
<path d="M37.8378 75.6758H35.1351V78.3785H37.8378V75.6758Z" fill="black"/>
<path d="M48.6486 75.6758H45.9459V78.3785H48.6486V75.6758Z" fill="black"/>
<path d="M51.3513 75.6758H48.6486V78.3785H51.3513V75.6758Z" fill="black"/>
<path d="M56.7567 75.6758H54.054V78.3785H56.7567V75.6758Z" fill="black"/>
<path d="M62.1622 75.6758H59.4595V78.3785H62.1622V75.6758Z" fill="black"/>
<path d="M64.8649 75.6758H62.1622V78.3785H64.8649V75.6758Z" fill="black"/>
<path d="M70.2703 75.6758H67.5676V78.3785H70.2703V75.6758Z" fill="black"/>
<path d="M72.973 75.6758H70.2703V78.3785H72.973V75.6758Z" fill="black"/>
<path d="M78.3784 75.6758H75.6757V78.3785H78.3784V75.6758Z" fill="black"/>
<path d="M83.7838 75.6758H81.0811V78.3785H83.7838V75.6758Z" fill="black"/>
<path d="M89.1892 75.6758H86.4865V78.3785H89.1892V75.6758Z" fill="black"/>
<path d="M91.8919 75.6758H89.1892V78.3785H91.8919V75.6758Z" fill="black"/>
<path d="M29.7297 78.3779H27.027V81.0806H29.7297V78.3779Z" fill="black"/>
<path d="M37.8378 78.3779H35.1351V81.0806H37.8378V78.3779Z" fill="black"/>
<path d="M40.5405 78.3779H37.8378V81.0806H40.5405V78.3779Z" fill="black"/>
<path d="M43.2432 78.3779H40.5405V81.0806H43.2432V78.3779Z" fill="black"/>
<path d="M45.9459 78.3779H43.2432V81.0806H45.9459V78.3779Z" fill="black"/>
<path d="M48.6486 78.3779H45.9459V81.0806H48.6486V78.3779Z" fill="black"/>
<path d="M62.1622 78.3779H59.4595V81.0806H62.1622V78.3779Z" fill="black"/>
<path d="M64.8649 78.3779H62.1622V81.0806H64.8649V78.3779Z" fill="black"/>
<path d="M67.5676 78.3779H64.8649V81.0806H67.5676V78.3779Z" fill="black"/>
<path d="M70.2703 78.3779H67.5676V81.0806H70.2703V78.3779Z" fill="black"/>
<path d="M72.973 78.3779H70.2703V81.0806H72.973V78.3779Z" fill="black"/>
<path d="M83.7838 78.3779H81.0811V81.0806H83.7838V78.3779Z" fill="black"/>
<path d="M86.4865 78.3779H83.7838V81.0806H86.4865V78.3779Z" fill="black"/>
<path d="M89.1892 78.3779H86.4865V81.0806H89.1892V78.3779Z" fill="black"/>
<path d="M91.8919 78.3779H89.1892V81.0806H91.8919V78.3779Z" fill="black"/>
<path d="M29.7297 81.0811H27.027V83.7838H29.7297V81.0811Z" fill="black"/>
<path d="M32.4324 81.0811H29.7297V83.7838H32.4324V81.0811Z" fill="black"/>
<path d="M35.1351 81.0811H32.4324V83.7838H35.1351V81.0811Z" fill="black"/>
<path d="M45.9459 81.0811H43.2432V83.7838H45.9459V81.0811Z" fill="black"/>
<path d="M56.7567 81.0811H54.054V83.7838H56.7567V81.0811Z" fill="black"/>
<path d="M64.8649 81.0811H62.1622V83.7838H64.8649V81.0811Z" fill="black"/>
<path d="M72.973 81.0811H70.2703V83.7838H72.973V81.0811Z" fill="black"/>
<path d="M75.6757 81.0811H72.973V83.7838H75.6757V81.0811Z" fill="black"/>
<path d="M78.3784 81.0811H75.6757V83.7838H78.3784V81.0811Z" fill="black"/>
<path d="M81.0811 81.0811H78.3784V83.7838H81.0811V81.0811Z" fill="black"/>
<path d="M83.7838 81.0811H81.0811V83.7838H83.7838V81.0811Z" fill="black"/>
<path d="M86.4865 81.0811H83.7838V83.7838H86.4865V81.0811Z" fill="black"/>
<path d="M94.5946 81.0811H91.8919V83.7838H94.5946V81.0811Z" fill="black"/>
<path d="M29.7297 83.7832H27.027V86.4859H29.7297V83.7832Z" fill="black"/>
<path d="M32.4324 83.7832H29.7297V86.4859H32.4324V83.7832Z" fill="black"/>
<path d="M37.8378 83.7832H35.1351V86.4859H37.8378V83.7832Z" fill="black"/>
<path d="M48.6486 83.7832H45.9459V86.4859H48.6486V83.7832Z" fill="black"/>
<path d="M51.3513 83.7832H48.6486V86.4859H51.3513V83.7832Z" fill="black"/>
<path d="M62.1622 83.7832H59.4595V86.4859H62.1622V83.7832Z" fill="black"/>
<path d="M64.8649 83.7832H62.1622V86.4859H64.8649V83.7832Z" fill="black"/>
<path d="M67.5676 83.7832H64.8649V86.4859H67.5676V83.7832Z" fill="black"/>
<path d="M70.2703 83.7832H67.5676V86.4859H70.2703V83.7832Z" fill="black"/>
<path d="M72.973 83.7832H70.2703V86.4859H72.973V83.7832Z" fill="black"/>
<path d="M75.6757 83.7832H72.973V86.4859H75.6757V83.7832Z" fill="black"/>
<path d="M83.7838 83.7832H81.0811V86.4859H83.7838V83.7832Z" fill="black"/>
<path d="M89.1892 83.7832H86.4865V86.4859H89.1892V83.7832Z" fill="black"/>
<path d="M94.5946 83.7832H91.8919V86.4859H94.5946V83.7832Z" fill="black"/>
<path d="M29.7297 86.4863H27.027V89.189H29.7297V86.4863Z" fill="black"/>
<path d="M32.4324 86.4863H29.7297V89.189H32.4324V86.4863Z" fill="black"/>
<path d="M35.1351 86.4863H32.4324V89.189H35.1351V86.4863Z" fill="black"/>
<path d="M37.8378 86.4863H35.1351V89.189H37.8378V86.4863Z" fill="black"/>
<path d="M43.2432 86.4863H40.5405V89.189H43.2432V86.4863Z" fill="black"/>
<path d="M45.9459 86.4863H43.2432V89.189H45.9459V86.4863Z" fill="black"/>
<path d="M54.054 86.4863H51.3513V89.189H54.054V86.4863Z" fill="black"/>
<path d="M56.7567 86.4863H54.054V89.189H56.7567V86.4863Z" fill="black"/>
<path d="M59.4595 86.4863H56.7568V89.189H59.4595V86.4863Z" fill="black"/>
<path d="M64.8649 86.4863H62.1622V89.189H64.8649V86.4863Z" fill="black"/>
<path d="M67.5676 86.4863H64.8649V89.189H67.5676V86.4863Z" fill="black"/>
<path d="M70.2703 86.4863H67.5676V89.189H70.2703V86.4863Z" fill="black"/>
<path d="M78.3784 86.4863H75.6757V89.189H78.3784V86.4863Z" fill="black"/>
<path d="M81.0811 86.4863H78.3784V89.189H81.0811V86.4863Z" fill="black"/>
<path d="M86.4865 86.4863H83.7838V89.189H86.4865V86.4863Z" fill="black"/>
<path d="M89.1892 86.4863H86.4865V89.189H89.1892V86.4863Z" fill="black"/>
<path d="M32.4324 89.1895H29.7297V91.8922H32.4324V89.1895Z" fill="black"/>
<path d="M37.8378 89.1895H35.1351V91.8922H37.8378V89.1895Z" fill="black"/>
<path d="M40.5405 89.1895H37.8378V91.8922H40.5405V89.1895Z" fill="black"/>
<path d="M43.2432 89.1895H40.5405V91.8922H43.2432V89.1895Z" fill="black"/>
<path d="M45.9459 89.1895H43.2432V91.8922H45.9459V89.1895Z" fill="black"/>
<path d="M51.3513 89.1895H48.6486V91.8922H51.3513V89.1895Z" fill="black"/>
<path d="M59.4595 89.1895H56.7568V91.8922H59.4595V89.1895Z" fill="black"/>
<path d="M62.1622 89.1895H59.4595V91.8922H62.1622V89.1895Z" fill="black"/>
<path d="M64.8649 89.1895H62.1622V91.8922H64.8649V89.1895Z" fill="black"/>
<path d="M83.7838 89.1895H81.0811V91.8922H83.7838V89.1895Z" fill="black"/>
<path d="M86.4865 89.1895H83.7838V91.8922H86.4865V89.1895Z" fill="black"/>
<path d="M89.1892 89.1895H86.4865V91.8922H89.1892V89.1895Z" fill="black"/>
<path d="M29.7297 91.8916H27.027V94.5943H29.7297V91.8916Z" fill="black"/>
<path d="M45.9459 91.8916H43.2432V94.5943H45.9459V91.8916Z" fill="black"/>
<path d="M54.054 91.8916H51.3513V94.5943H54.054V91.8916Z" fill="black"/>
<path d="M59.4595 91.8916H56.7568V94.5943H59.4595V91.8916Z" fill="black"/>
<path d="M67.5676 91.8916H64.8649V94.5943H67.5676V91.8916Z" fill="black"/>
<path d="M72.973 91.8916H70.2703V94.5943H72.973V91.8916Z" fill="black"/>
<path d="M75.6757 91.8916H72.973V94.5943H75.6757V91.8916Z" fill="black"/>
<path d="M78.3784 91.8916H75.6757V94.5943H78.3784V91.8916Z" fill="black"/>
<path d="M81.0811 91.8916H78.3784V94.5943H81.0811V91.8916Z" fill="black"/>
<path d="M86.4865 91.8916H83.7838V94.5943H86.4865V91.8916Z" fill="black"/>
<path d="M91.8919 91.8916H89.1892V94.5943H91.8919V91.8916Z" fill="black"/>
<path d="M21.4865 5.40527H8.24323H5.4054V8.24311V21.4864V24.3242H8.24323H21.4865H24.3243V21.4864V8.24311V5.40527H21.4865ZM21.4865 21.4864H8.24323V8.24311H21.4865V21.4864Z" fill="black"/>
<path d="M91.7567 5.40527H78.5135H75.6757V8.24311V21.4864V24.3242H78.5135H91.7567H94.5946V21.4864V8.24311V5.40527H91.7567ZM91.7567 21.4864H78.5135V8.24311H91.7567V21.4864Z" fill="black"/>
<path d="M21.4865 75.6758H8.24323H5.4054V78.5136V91.7569V94.5947H8.24323H21.4865H24.3243V91.7569V78.5136V75.6758H21.4865ZM21.4865 91.7569H8.24323V78.5136H21.4865V91.7569Z" fill="black"/>
<path d="M18.9189 10.8105H10.8108V18.9187H18.9189V10.8105Z" fill="black"/>
<path d="M89.1892 10.8105H81.0811V18.9187H89.1892V10.8105Z" fill="black"/>
<path d="M18.9189 81.0811H10.8108V89.1892H18.9189V81.0811Z" fill="black"/>
</g>
<defs>
<clipPath id="clip0_816_4">
<rect width="100" height="100" fill="white"/>
</clipPath>
</defs>
</svg>
